solid OpenSCAD_Model
  facet normal -0.994522 0.104528 0
    outer loop
      vertex -15.5 0 -5
      vertex -15.5 0 5
      vertex -15.3798 1.14351 -5
    endloop
  endfacet
  facet normal -0.994522 0.104528 0
    outer loop
      vertex -15.3798 1.14351 -5
      vertex -15.5 0 5
      vertex -15.3798 1.14351 5
    endloop
  endfacet
  facet normal -0.994522 -0.104528 0
    outer loop
      vertex -15.5 0 -5
      vertex -15.3798 -1.14351 -5
      vertex -15.5 0 5
    endloop
  endfacet
  facet normal -0.994522 -0.104528 0
    outer loop
      vertex -15.5 0 5
      vertex -15.3798 -1.14351 -5
      vertex -15.3798 -1.14351 5
    endloop
  endfacet
  facet normal 0 0 -1
    outer loop
      vertex -15.5 0 -5
      vertex -15.3798 1.14351 -5
      vertex -15.3798 -1.14351 -5
    endloop
  endfacet
  facet normal 0 0 -1
    outer loop
      vertex -15.3798 -1.14351 -5
      vertex -15.3798 1.14351 -5
      vertex -15.0245 2.23705 -5
    endloop
  endfacet
  facet normal 0 0 -1
    outer loop
      vertex -15.3798 -1.14351 -5
      vertex -15.0245 2.23705 -5
      vertex -14.4496 3.23282 -5
    endloop
  endfacet
  facet normal 0 0 -1
    outer loop
      vertex -15.3798 -1.14351 -5
      vertex -14.4496 3.23282 -5
      vertex -13.6802 4.0873 -5
    endloop
  endfacet
  facet normal 0 0 -1
    outer loop
      vertex -15.3798 -1.14351 -5
      vertex -13.6802 4.0873 -5
      vertex -12.75 4.76314 -5
    endloop
  endfacet
  facet normal 0 0 -1
    outer loop
      vertex -15.3798 -1.14351 -5
      vertex -12.75 4.76314 -5
      vertex -11.6996 5.23081 -5
    endloop
  endfacet
  facet normal 0 0 -1
    outer loop
      vertex -15.3798 -1.14351 -5
      vertex -11.6996 5.23081 -5
      vertex -10.5749 5.46987 -5
    endloop
  endfacet
  facet normal 0 0 -1
    outer loop
      vertex -9.73868 2.4863 -5
      vertex -10.5749 5.46987 -5
      vertex -0.783963 7.45891 -5
    endloop
  endfacet
  facet normal 0 0 -1
    outer loop
      vertex -9.22746 2.37764 -5
      vertex -0.783963 7.45891 -5
      vertex 0.783963 7.45891 -5
    endloop
  endfacet
  facet normal 0 0 -1
    outer loop
      vertex 2.25 3.89711 -5
      vertex 0.783963 7.45891 -5
      vertex 10.5749 5.46987 -5
    endloop
  endfacet
  facet normal 0 0 -1
    outer loop
      vertex 3.01109 3.34415 -5
      vertex 10.5749 5.46987 -5
      vertex 11.6996 5.23081 -5
    endloop
  endfacet
  facet normal 0 0 -1
    outer loop
      vertex -4.11095 1.83031 -5
      vertex -7.71614 1.01684 -5
      vertex -7.97746 1.46946 -5
    endloop
  endfacet
  facet normal 0 0 -1
    outer loop
      vertex 3.64058 2.64503 -5
      vertex 12.75 4.76314 -5
      vertex 13.6802 4.0873 -5
    endloop
  endfacet
  facet normal 0 0 -1
    outer loop
      vertex 4.11095 1.83031 -5
      vertex 13.6802 4.0873 -5
      vertex 14.4496 3.23282 -5
    endloop
  endfacet
  facet normal 0 0 -1
    outer loop
      vertex 11.25 2.16506 -5
      vertex 14.4496 3.23282 -5
      vertex 15.0245 2.23705 -5
    endloop
  endfacet
  facet normal 0 0 -1
    outer loop
      vertex 12.0225 1.46946 -5
      vertex 15.0245 2.23705 -5
      vertex 15.3798 1.14351 -5
    endloop
  endfacet
  facet normal 0 0 -1
    outer loop
      vertex 7.71614 -1.01684 -5
      vertex 4.40166 -0.935603 -5
      vertex 7.55463 -0.519779 -5
    endloop
  endfacet
  facet normal 0 0 -1
    outer loop
      vertex 12.2839 -1.01684 -5
      vertex 15.5 0 -5
      vertex 15.3798 -1.14351 -5
    endloop
  endfacet
  facet normal 0 0 -1
    outer loop
      vertex 11.6728 -1.85786 -5
      vertex 15.3798 -1.14351 -5
      vertex 15.0245 -2.23705 -5
    endloop
  endfacet
  facet normal 0 0 -1
    outer loop
      vertex 10.7725 -2.37764 -5
      vertex 15.0245 -2.23705 -5
      vertex 14.4496 -3.23282 -5
    endloop
  endfacet
  facet normal 0 0 -1
    outer loop
      vertex 3.64058 -2.64503 -5
      vertex 14.4496 -3.23282 -5
      vertex 13.6802 -4.0873 -5
    endloop
  endfacet
  facet normal 0 0 -1
    outer loop
      vertex 3.01109 -3.34415 -5
      vertex 13.6802 -4.0873 -5
      vertex 12.75 -4.76314 -5
    endloop
  endfacet
  facet normal 0 0 -1
    outer loop
      vertex -3.01109 -3.34415 -5
      vertex -8.32717 -1.85786 -5
      vertex -3.64058 -2.64503 -5
    endloop
  endfacet
  facet normal 0 0 -1
    outer loop
      vertex 2.25 -3.89711 -5
      vertex 11.6996 -5.23081 -5
      vertex 10.5749 -5.46987 -5
    endloop
  endfacet
  facet normal 0 0 -1
    outer loop
      vertex -0.470378 -4.47535 -5
      vertex 10.5749 -5.46987 -5
      vertex 0.783963 -7.45891 -5
    endloop
  endfacet
  facet normal 0 0 -1
    outer loop
      vertex -15.3798 -1.14351 -5
      vertex 0.783963 -7.45891 -5
      vertex -0.783963 -7.45891 -5
    endloop
  endfacet
  facet normal 0 0 -1
    outer loop
      vertex -15.3798 -1.14351 -5
      vertex -0.783963 -7.45891 -5
      vertex -10.5749 -5.46987 -5
    endloop
  endfacet
  facet normal 0 0 -1
    outer loop
      vertex -15.3798 -1.14351 -5
      vertex -10.5749 -5.46987 -5
      vertex -11.6996 -5.23081 -5
    endloop
  endfacet
  facet normal 0 0 -1
    outer loop
      vertex -15.3798 -1.14351 -5
      vertex -11.6996 -5.23081 -5
      vertex -12.75 -4.76314 -5
    endloop
  endfacet
  facet normal 0 0 -1
    outer loop
      vertex -15.3798 -1.14351 -5
      vertex -12.75 -4.76314 -5
      vertex -13.6802 -4.0873 -5
    endloop
  endfacet
  facet normal 0 0 -1
    outer loop
      vertex -15.3798 -1.14351 -5
      vertex -13.6802 -4.0873 -5
      vertex -14.4496 -3.23282 -5
    endloop
  endfacet
  facet normal 0 0 -1
    outer loop
      vertex -15.3798 -1.14351 -5
      vertex -14.4496 -3.23282 -5
      vertex -15.0245 -2.23705 -5
    endloop
  endfacet
  facet normal 0 0 -1
    outer loop
      vertex -9.22746 2.37764 -5
      vertex 0.783963 7.45891 -5
      vertex -8.75 2.16506 -5
    endloop
  endfacet
  facet normal 0 0 -1
    outer loop
      vertex -12.2839 -1.01684 -5
      vertex -15.3798 -1.14351 -5
      vertex -12.4454 -0.519779 -5
    endloop
  endfacet
  facet normal 0 0 -1
    outer loop
      vertex -12.0225 -1.46946 -5
      vertex -15.3798 -1.14351 -5
      vertex -12.2839 -1.01684 -5
    endloop
  endfacet
  facet normal 0 0 -1
    outer loop
      vertex 8.75 2.16506 -5
      vertex 4.11095 1.83031 -5
      vertex 9.22746 2.37764 -5
    endloop
  endfacet
  facet normal 0 0 -1
    outer loop
      vertex -11.6728 -1.85786 -5
      vertex -15.3798 -1.14351 -5
      vertex -12.0225 -1.46946 -5
    endloop
  endfacet
  facet normal 0 0 -1
    outer loop
      vertex 4.5 0 -5
      vertex 7.5 0 -5
      vertex 7.55463 -0.519779 -5
    endloop
  endfacet
  facet normal 0 0 -1
    outer loop
      vertex -10.2613 -2.4863 -5
      vertex 0.783963 -7.45891 -5
      vertex -10.7725 -2.37764 -5
    endloop
  endfacet
  facet normal 0 0 -1
    outer loop
      vertex -8.75 -2.16506 -5
      vertex -3.01109 -3.34415 -5
      vertex -9.22746 -2.37764 -5
    endloop
  endfacet
  facet normal 0 0 -1
    outer loop
      vertex -15.3798 -1.14351 -5
      vertex -11.6728 -1.85786 -5
      vertex -11.25 -2.16506 -5
    endloop
  endfacet
  facet normal 0 0 -1
    outer loop
      vertex -15.3798 -1.14351 -5
      vertex -11.25 -2.16506 -5
      vertex -10.7725 -2.37764 -5
    endloop
  endfacet
  facet normal 0 0 -1
    outer loop
      vertex -15.3798 -1.14351 -5
      vertex -10.7725 -2.37764 -5
      vertex 0.783963 -7.45891 -5
    endloop
  endfacet
  facet normal 0 0 -1
    outer loop
      vertex -2.25 -3.89711 -5
      vertex -10.2613 -2.4863 -5
      vertex -9.73868 -2.4863 -5
    endloop
  endfacet
  facet normal 0 0 -1
    outer loop
      vertex -3.64058 -2.64503 -5
      vertex -8.32717 -1.85786 -5
      vertex -7.97746 -1.46946 -5
    endloop
  endfacet
  facet normal 0 0 -1
    outer loop
      vertex -4.40166 -0.935603 -5
      vertex -7.55463 -0.519779 -5
      vertex -4.5 0 -5
    endloop
  endfacet
  facet normal 0 0 -1
    outer loop
      vertex 2.25 3.89711 -5
      vertex 10.5749 5.46987 -5
      vertex 3.01109 3.34415 -5
    endloop
  endfacet
  facet normal 0 0 -1
    outer loop
      vertex 7.71614 1.01684 -5
      vertex 4.40166 0.935603 -5
      vertex 7.97746 1.46946 -5
    endloop
  endfacet
  facet normal 0 0 -1
    outer loop
      vertex -8.32717 1.85786 -5
      vertex 0.783963 7.45891 -5
      vertex -7.97746 1.46946 -5
    endloop
  endfacet
  facet normal 0 0 -1
    outer loop
      vertex -8.75 2.16506 -5
      vertex 0.783963 7.45891 -5
      vertex -8.32717 1.85786 -5
    endloop
  endfacet
  facet normal 0 0 -1
    outer loop
      vertex -12.4454 -0.519779 -5
      vertex -15.3798 -1.14351 -5
      vertex -12.5 0 -5
    endloop
  endfacet
  facet normal 0 0 -1
    outer loop
      vertex -9.73868 2.4863 -5
      vertex -0.783963 7.45891 -5
      vertex -9.22746 2.37764 -5
    endloop
  endfacet
  facet normal 0 0 -1
    outer loop
      vertex -10.2613 2.4863 -5
      vertex -10.5749 5.46987 -5
      vertex -9.73868 2.4863 -5
    endloop
  endfacet
  facet normal 0 0 -1
    outer loop
      vertex -12.0225 1.46946 -5
      vertex -15.3798 -1.14351 -5
      vertex -11.6728 1.85786 -5
    endloop
  endfacet
  facet normal 0 0 -1
    outer loop
      vertex -10.7725 2.37764 -5
      vertex -10.5749 5.46987 -5
      vertex -10.2613 2.4863 -5
    endloop
  endfacet
  facet normal 0 0 -1
    outer loop
      vertex -11.25 2.16506 -5
      vertex -10.5749 5.46987 -5
      vertex -10.7725 2.37764 -5
    endloop
  endfacet
  facet normal 0 0 -1
    outer loop
      vertex -11.6728 1.85786 -5
      vertex -10.5749 5.46987 -5
      vertex -11.25 2.16506 -5
    endloop
  endfacet
  facet normal 0 0 -1
    outer loop
      vertex -15.3798 -1.14351 -5
      vertex -10.5749 5.46987 -5
      vertex -11.6728 1.85786 -5
    endloop
  endfacet
  facet normal 0 0 -1
    outer loop
      vertex -12.2839 1.01684 -5
      vertex -15.3798 -1.14351 -5
      vertex -12.0225 1.46946 -5
    endloop
  endfacet
  facet normal 0 0 -1
    outer loop
      vertex -12.4454 0.519779 -5
      vertex -15.3798 -1.14351 -5
      vertex -12.2839 1.01684 -5
    endloop
  endfacet
  facet normal 0 0 -1
    outer loop
      vertex 4.11095 1.83031 -5
      vertex 14.4496 3.23282 -5
      vertex 9.73868 2.4863 -5
    endloop
  endfacet
  facet normal 0 0 -1
    outer loop
      vertex -4.5 0 -5
      vertex -7.5 0 -5
      vertex -7.55463 0.519779 -5
    endloop
  endfacet
  facet normal 0 0 -1
    outer loop
      vertex 12.5 0 -5
      vertex 15.5 0 -5
      vertex 12.4454 -0.519779 -5
    endloop
  endfacet
  facet normal 0 0 -1
    outer loop
      vertex 4.11095 -1.83031 -5
      vertex 8.75 -2.16506 -5
      vertex 9.22746 -2.37764 -5
    endloop
  endfacet
  facet normal 0 0 -1
    outer loop
      vertex -4.11095 -1.83031 -5
      vertex -7.97746 -1.46946 -5
      vertex -7.71614 -1.01684 -5
    endloop
  endfacet
  facet normal 0 0 -1
    outer loop
      vertex -3.01109 -3.34415 -5
      vertex -8.75 -2.16506 -5
      vertex -8.32717 -1.85786 -5
    endloop
  endfacet
  facet normal 0 0 -1
    outer loop
      vertex -4.11095 -1.83031 -5
      vertex -7.71614 -1.01684 -5
      vertex -4.40166 -0.935603 -5
    endloop
  endfacet
  facet normal 0 0 -1
    outer loop
      vertex 3.01109 -3.34415 -5
      vertex 11.6996 -5.23081 -5
      vertex 2.25 -3.89711 -5
    endloop
  endfacet
  facet normal 0 0 -1
    outer loop
      vertex 2.25 -3.89711 -5
      vertex 10.5749 -5.46987 -5
      vertex 1.39058 -4.27975 -5
    endloop
  endfacet
  facet normal 0 0 -1
    outer loop
      vertex -10.2613 -2.4863 -5
      vertex -2.25 -3.89711 -5
      vertex 0.783963 -7.45891 -5
    endloop
  endfacet
  facet normal 0 0 -1
    outer loop
      vertex -2.25 -3.89711 -5
      vertex -1.39058 -4.27975 -5
      vertex 0.783963 -7.45891 -5
    endloop
  endfacet
  facet normal 0 0 -1
    outer loop
      vertex 0.470378 -4.47535 -5
      vertex 10.5749 -5.46987 -5
      vertex -0.470378 -4.47535 -5
    endloop
  endfacet
  facet normal 0 0 -1
    outer loop
      vertex -1.39058 -4.27975 -5
      vertex -0.470378 -4.47535 -5
      vertex 0.783963 -7.45891 -5
    endloop
  endfacet
  facet normal 0 0 -1
    outer loop
      vertex 1.39058 -4.27975 -5
      vertex 10.5749 -5.46987 -5
      vertex 0.470378 -4.47535 -5
    endloop
  endfacet
  facet normal 0 0 -1
    outer loop
      vertex -2.25 -3.89711 -5
      vertex -9.22746 -2.37764 -5
      vertex -3.01109 -3.34415 -5
    endloop
  endfacet
  facet normal 0 0 -1
    outer loop
      vertex -2.25 -3.89711 -5
      vertex -9.73868 -2.4863 -5
      vertex -9.22746 -2.37764 -5
    endloop
  endfacet
  facet normal 0 0 -1
    outer loop
      vertex 4.11095 -1.83031 -5
      vertex 14.4496 -3.23282 -5
      vertex 3.64058 -2.64503 -5
    endloop
  endfacet
  facet normal 0 0 -1
    outer loop
      vertex 3.64058 -2.64503 -5
      vertex 13.6802 -4.0873 -5
      vertex 3.01109 -3.34415 -5
    endloop
  endfacet
  facet normal 0 0 -1
    outer loop
      vertex 3.01109 -3.34415 -5
      vertex 12.75 -4.76314 -5
      vertex 11.6996 -5.23081 -5
    endloop
  endfacet
  facet normal 0 0 -1
    outer loop
      vertex 8.32717 -1.85786 -5
      vertex 4.11095 -1.83031 -5
      vertex 7.97746 -1.46946 -5
    endloop
  endfacet
  facet normal 0 0 -1
    outer loop
      vertex 12.4454 0.519779 -5
      vertex 15.3798 1.14351 -5
      vertex 12.5 0 -5
    endloop
  endfacet
  facet normal 0 0 -1
    outer loop
      vertex 4.40166 -0.935603 -5
      vertex 7.97746 -1.46946 -5
      vertex 4.11095 -1.83031 -5
    endloop
  endfacet
  facet normal 0 0 -1
    outer loop
      vertex 3.01109 3.34415 -5
      vertex 11.6996 5.23081 -5
      vertex 12.75 4.76314 -5
    endloop
  endfacet
  facet normal 0 0 -1
    outer loop
      vertex 1.39058 4.27975 -5
      vertex 0.783963 7.45891 -5
      vertex 2.25 3.89711 -5
    endloop
  endfacet
  facet normal 0 0 -1
    outer loop
      vertex -3.01109 3.34415 -5
      vertex -7.97746 1.46946 -5
      vertex -2.25 3.89711 -5
    endloop
  endfacet
  facet normal 0 0 -1
    outer loop
      vertex 0.470378 4.47535 -5
      vertex 0.783963 7.45891 -5
      vertex 1.39058 4.27975 -5
    endloop
  endfacet
  facet normal 0 0 -1
    outer loop
      vertex -0.470378 4.47535 -5
      vertex 0.783963 7.45891 -5
      vertex 0.470378 4.47535 -5
    endloop
  endfacet
  facet normal 0 0 -1
    outer loop
      vertex -1.39058 4.27975 -5
      vertex 0.783963 7.45891 -5
      vertex -0.470378 4.47535 -5
    endloop
  endfacet
  facet normal 0 0 -1
    outer loop
      vertex -7.97746 1.46946 -5
      vertex 0.783963 7.45891 -5
      vertex -1.39058 4.27975 -5
    endloop
  endfacet
  facet normal 0 0 -1
    outer loop
      vertex -7.97746 1.46946 -5
      vertex -1.39058 4.27975 -5
      vertex -2.25 3.89711 -5
    endloop
  endfacet
  facet normal 0 0 -1
    outer loop
      vertex -3.64058 2.64503 -5
      vertex -7.97746 1.46946 -5
      vertex -3.01109 3.34415 -5
    endloop
  endfacet
  facet normal 0 0 -1
    outer loop
      vertex -4.11095 1.83031 -5
      vertex -7.97746 1.46946 -5
      vertex -3.64058 2.64503 -5
    endloop
  endfacet
  facet normal 0 0 -1
    outer loop
      vertex 4.11095 1.83031 -5
      vertex 9.73868 2.4863 -5
      vertex 9.22746 2.37764 -5
    endloop
  endfacet
  facet normal 0 0 -1
    outer loop
      vertex -4.40166 0.935603 -5
      vertex -7.71614 1.01684 -5
      vertex -4.11095 1.83031 -5
    endloop
  endfacet
  facet normal 0 0 -1
    outer loop
      vertex 12.5 0 -5
      vertex 15.3798 1.14351 -5
      vertex 15.5 0 -5
    endloop
  endfacet
  facet normal 0 0 -1
    outer loop
      vertex 12.2839 1.01684 -5
      vertex 15.3798 1.14351 -5
      vertex 12.4454 0.519779 -5
    endloop
  endfacet
  facet normal 0 0 -1
    outer loop
      vertex 12.2839 -1.01684 -5
      vertex 15.3798 -1.14351 -5
      vertex 12.0225 -1.46946 -5
    endloop
  endfacet
  facet normal 0 0 -1
    outer loop
      vertex 11.6728 -1.85786 -5
      vertex 15.0245 -2.23705 -5
      vertex 11.25 -2.16506 -5
    endloop
  endfacet
  facet normal 0 0 -1
    outer loop
      vertex 4.11095 -1.83031 -5
      vertex 9.73868 -2.4863 -5
      vertex 14.4496 -3.23282 -5
    endloop
  endfacet
  facet normal 0 0 -1
    outer loop
      vertex 4.11095 -1.83031 -5
      vertex 9.22746 -2.37764 -5
      vertex 9.73868 -2.4863 -5
    endloop
  endfacet
  facet normal 0 0 -1
    outer loop
      vertex -3.64058 -2.64503 -5
      vertex -7.97746 -1.46946 -5
      vertex -4.11095 -1.83031 -5
    endloop
  endfacet
  facet normal 0 0 -1
    outer loop
      vertex 10.7725 -2.37764 -5
      vertex 14.4496 -3.23282 -5
      vertex 10.2613 -2.4863 -5
    endloop
  endfacet
  facet normal 0 0 -1
    outer loop
      vertex 11.25 -2.16506 -5
      vertex 15.0245 -2.23705 -5
      vertex 10.7725 -2.37764 -5
    endloop
  endfacet
  facet normal 0 0 -1
    outer loop
      vertex 4.11095 1.83031 -5
      vertex 7.97746 1.46946 -5
      vertex 4.40166 0.935603 -5
    endloop
  endfacet
  facet normal 0 0 -1
    outer loop
      vertex 12.0225 -1.46946 -5
      vertex 15.3798 -1.14351 -5
      vertex 11.6728 -1.85786 -5
    endloop
  endfacet
  facet normal 0 0 -1
    outer loop
      vertex 8.75 -2.16506 -5
      vertex 4.11095 -1.83031 -5
      vertex 8.32717 -1.85786 -5
    endloop
  endfacet
  facet normal 0 0 -1
    outer loop
      vertex 12.4454 -0.519779 -5
      vertex 15.5 0 -5
      vertex 12.2839 -1.01684 -5
    endloop
  endfacet
  facet normal 0 0 -1
    outer loop
      vertex 4.40166 -0.935603 -5
      vertex 7.71614 -1.01684 -5
      vertex 7.97746 -1.46946 -5
    endloop
  endfacet
  facet normal 0 0 -1
    outer loop
      vertex 11.6728 1.85786 -5
      vertex 15.0245 2.23705 -5
      vertex 12.0225 1.46946 -5
    endloop
  endfacet
  facet normal 0 0 -1
    outer loop
      vertex 10.2613 -2.4863 -5
      vertex 14.4496 -3.23282 -5
      vertex 9.73868 -2.4863 -5
    endloop
  endfacet
  facet normal 0 0 -1
    outer loop
      vertex 10.7725 2.37764 -5
      vertex 14.4496 3.23282 -5
      vertex 11.25 2.16506 -5
    endloop
  endfacet
  facet normal 0 0 -1
    outer loop
      vertex 10.2613 2.4863 -5
      vertex 14.4496 3.23282 -5
      vertex 10.7725 2.37764 -5
    endloop
  endfacet
  facet normal 0 0 -1
    outer loop
      vertex 9.73868 2.4863 -5
      vertex 14.4496 3.23282 -5
      vertex 10.2613 2.4863 -5
    endloop
  endfacet
  facet normal 0 0 -1
    outer loop
      vertex 12.0225 1.46946 -5
      vertex 15.3798 1.14351 -5
      vertex 12.2839 1.01684 -5
    endloop
  endfacet
  facet normal 0 0 -1
    outer loop
      vertex 4.40166 0.935603 -5
      vertex 7.55463 0.519779 -5
      vertex 4.5 0 -5
    endloop
  endfacet
  facet normal 0 0 -1
    outer loop
      vertex 11.25 2.16506 -5
      vertex 15.0245 2.23705 -5
      vertex 11.6728 1.85786 -5
    endloop
  endfacet
  facet normal 0 0 -1
    outer loop
      vertex 4.11095 1.83031 -5
      vertex 8.32717 1.85786 -5
      vertex 7.97746 1.46946 -5
    endloop
  endfacet
  facet normal 0 0 -1
    outer loop
      vertex 4.11095 1.83031 -5
      vertex 8.75 2.16506 -5
      vertex 8.32717 1.85786 -5
    endloop
  endfacet
  facet normal 0 0 -1
    outer loop
      vertex 4.5 0 -5
      vertex 7.55463 -0.519779 -5
      vertex 4.40166 -0.935603 -5
    endloop
  endfacet
  facet normal 0 0 -1
    outer loop
      vertex 7.55463 0.519779 -5
      vertex 4.40166 0.935603 -5
      vertex 7.71614 1.01684 -5
    endloop
  endfacet
  facet normal 0 0 -1
    outer loop
      vertex -7.5 0 -5
      vertex -4.5 0 -5
      vertex -7.55463 -0.519779 -5
    endloop
  endfacet
  facet normal 0 0 -1
    outer loop
      vertex -12.5 0 -5
      vertex -15.3798 -1.14351 -5
      vertex -12.4454 0.519779 -5
    endloop
  endfacet
  facet normal 0 0 -1
    outer loop
      vertex -4.5 0 -5
      vertex -7.55463 0.519779 -5
      vertex -4.40166 0.935603 -5
    endloop
  endfacet
  facet normal 0 0 -1
    outer loop
      vertex 3.64058 2.64503 -5
      vertex 13.6802 4.0873 -5
      vertex 4.11095 1.83031 -5
    endloop
  endfacet
  facet normal 0 0 -1
    outer loop
      vertex -4.40166 0.935603 -5
      vertex -7.55463 0.519779 -5
      vertex -7.71614 1.01684 -5
    endloop
  endfacet
  facet normal 0 0 -1
    outer loop
      vertex 7.5 0 -5
      vertex 4.5 0 -5
      vertex 7.55463 0.519779 -5
    endloop
  endfacet
  facet normal 0 0 -1
    outer loop
      vertex 3.01109 3.34415 -5
      vertex 12.75 4.76314 -5
      vertex 3.64058 2.64503 -5
    endloop
  endfacet
  facet normal 0 0 -1
    outer loop
      vertex -4.40166 -0.935603 -5
      vertex -7.71614 -1.01684 -5
      vertex -7.55463 -0.519779 -5
    endloop
  endfacet
  facet normal -0.951057 0.309017 0
    outer loop
      vertex -15.3798 1.14351 -5
      vertex -15.3798 1.14351 5
      vertex -15.0245 2.23705 -5
    endloop
  endfacet
  facet normal -0.951057 0.309017 0
    outer loop
      vertex -15.0245 2.23705 -5
      vertex -15.3798 1.14351 5
      vertex -15.0245 2.23705 5
    endloop
  endfacet
  facet normal 0 0 1
    outer loop
      vertex -15.3798 1.14351 5
      vertex -15.5 0 5
      vertex -15.3798 -1.14351 5
    endloop
  endfacet
  facet normal 0 0 1
    outer loop
      vertex -14.4496 -3.23282 5
      vertex -15.3798 1.14351 5
      vertex -15.0245 -2.23705 5
    endloop
  endfacet
  facet normal 0 0 1
    outer loop
      vertex -15.0245 -2.23705 5
      vertex -15.3798 1.14351 5
      vertex -15.3798 -1.14351 5
    endloop
  endfacet
  facet normal 0 0 1
    outer loop
      vertex -13.6802 -4.0873 5
      vertex -15.3798 1.14351 5
      vertex -14.4496 -3.23282 5
    endloop
  endfacet
  facet normal 0 0 1
    outer loop
      vertex -12.75 -4.76314 5
      vertex -15.3798 1.14351 5
      vertex -13.6802 -4.0873 5
    endloop
  endfacet
  facet normal 0 0 1
    outer loop
      vertex -11.6996 -5.23081 5
      vertex -15.3798 1.14351 5
      vertex -12.75 -4.76314 5
    endloop
  endfacet
  facet normal 0 0 1
    outer loop
      vertex -10.5749 -5.46987 5
      vertex -15.3798 1.14351 5
      vertex -11.6996 -5.23081 5
    endloop
  endfacet
  facet normal 0 0 1
    outer loop
      vertex -11.6728 -1.85786 5
      vertex -15.3798 1.14351 5
      vertex -10.5749 -5.46987 5
    endloop
  endfacet
  facet normal 0 0 1
    outer loop
      vertex -9.22746 -2.37764 5
      vertex -9.73868 -2.4863 5
      vertex -0.783963 -7.45891 5
    endloop
  endfacet
  facet normal 0 0 1
    outer loop
      vertex -12.0225 -1.46946 5
      vertex -12.2839 -1.01684 5
      vertex -15.3798 1.14351 5
    endloop
  endfacet
  facet normal 0 0 1
    outer loop
      vertex 8.32717 -1.85786 5
      vertex 7.97746 -1.46946 5
      vertex 4.40166 -0.935603 5
    endloop
  endfacet
  facet normal 0 0 1
    outer loop
      vertex 3.64058 -2.64503 5
      vertex 11.6996 -5.23081 5
      vertex 12.75 -4.76314 5
    endloop
  endfacet
  facet normal 0 0 1
    outer loop
      vertex -12.2839 1.01684 5
      vertex -12.0225 1.46946 5
      vertex -15.3798 1.14351 5
    endloop
  endfacet
  facet normal 0 0 1
    outer loop
      vertex 4.11095 -1.83031 5
      vertex 3.64058 -2.64503 5
      vertex 13.6802 -4.0873 5
    endloop
  endfacet
  facet normal 0 0 1
    outer loop
      vertex 4.40166 -0.935603 5
      vertex 9.22746 -2.37764 5
      vertex 8.75 -2.16506 5
    endloop
  endfacet
  facet normal 0 0 1
    outer loop
      vertex 9.22746 -2.37764 5
      vertex 4.11095 -1.83031 5
      vertex 9.73868 -2.4863 5
    endloop
  endfacet
  facet normal 0 0 1
    outer loop
      vertex 9.73868 -2.4863 5
      vertex 4.11095 -1.83031 5
      vertex 14.4496 -3.23282 5
    endloop
  endfacet
  facet normal 0 0 1
    outer loop
      vertex 3.01109 3.34415 5
      vertex 3.64058 2.64503 5
      vertex 13.6802 4.0873 5
    endloop
  endfacet
  facet normal 0 0 1
    outer loop
      vertex 4.40166 0.935603 5
      vertex 4.5 0 5
      vertex 7.5 0 5
    endloop
  endfacet
  facet normal 0 0 1
    outer loop
      vertex -3.64058 2.64503 5
      vertex -3.01109 3.34415 5
      vertex -8.75 2.16506 5
    endloop
  endfacet
  facet normal 0 0 1
    outer loop
      vertex -10.7725 2.37764 5
      vertex -10.2613 2.4863 5
      vertex 0.783963 7.45891 5
    endloop
  endfacet
  facet normal 0 0 1
    outer loop
      vertex -0.783963 7.45891 5
      vertex -15.3798 1.14351 5
      vertex 0.783963 7.45891 5
    endloop
  endfacet
  facet normal 0 0 1
    outer loop
      vertex -10.5749 5.46987 5
      vertex -15.3798 1.14351 5
      vertex -0.783963 7.45891 5
    endloop
  endfacet
  facet normal 0 0 1
    outer loop
      vertex -11.6996 5.23081 5
      vertex -15.3798 1.14351 5
      vertex -10.5749 5.46987 5
    endloop
  endfacet
  facet normal 0 0 1
    outer loop
      vertex -12.75 4.76314 5
      vertex -15.3798 1.14351 5
      vertex -11.6996 5.23081 5
    endloop
  endfacet
  facet normal 0 0 1
    outer loop
      vertex -13.6802 4.0873 5
      vertex -15.3798 1.14351 5
      vertex -12.75 4.76314 5
    endloop
  endfacet
  facet normal 0 0 1
    outer loop
      vertex -14.4496 3.23282 5
      vertex -15.3798 1.14351 5
      vertex -13.6802 4.0873 5
    endloop
  endfacet
  facet normal 0 0 1
    outer loop
      vertex -15.0245 2.23705 5
      vertex -15.3798 1.14351 5
      vertex -14.4496 3.23282 5
    endloop
  endfacet
  facet normal 0 0 1
    outer loop
      vertex -11.6728 -1.85786 5
      vertex -12.0225 -1.46946 5
      vertex -15.3798 1.14351 5
    endloop
  endfacet
  facet normal 0 0 1
    outer loop
      vertex -2.25 -3.89711 5
      vertex -3.01109 -3.34415 5
      vertex -7.97746 -1.46946 5
    endloop
  endfacet
  facet normal 0 0 1
    outer loop
      vertex -8.75 -2.16506 5
      vertex -9.22746 -2.37764 5
      vertex 0.783963 -7.45891 5
    endloop
  endfacet
  facet normal 0 0 1
    outer loop
      vertex -4.11095 -1.83031 5
      vertex -4.40166 -0.935603 5
      vertex -7.55463 -0.519779 5
    endloop
  endfacet
  facet normal 0 0 1
    outer loop
      vertex -4.40166 -0.935603 5
      vertex -4.5 0 5
      vertex -7.5 0 5
    endloop
  endfacet
  facet normal 0 0 1
    outer loop
      vertex -7.55463 0.519779 5
      vertex -7.5 0 5
      vertex -4.5 0 5
    endloop
  endfacet
  facet normal 0 0 1
    outer loop
      vertex 4.11095 1.83031 5
      vertex 7.71614 1.01684 5
      vertex 7.97746 1.46946 5
    endloop
  endfacet
  facet normal 0 0 1
    outer loop
      vertex -11.25 2.16506 5
      vertex -15.3798 1.14351 5
      vertex -11.6728 1.85786 5
    endloop
  endfacet
  facet normal 0 0 1
    outer loop
      vertex -10.7725 2.37764 5
      vertex -15.3798 1.14351 5
      vertex -11.25 2.16506 5
    endloop
  endfacet
  facet normal 0 0 1
    outer loop
      vertex -9.22746 2.37764 5
      vertex -8.75 2.16506 5
      vertex -3.01109 3.34415 5
    endloop
  endfacet
  facet normal 0 0 1
    outer loop
      vertex 0.783963 7.45891 5
      vertex -15.3798 1.14351 5
      vertex -10.7725 2.37764 5
    endloop
  endfacet
  facet normal 0 0 1
    outer loop
      vertex 0.470378 4.47535 5
      vertex 1.39058 4.27975 5
      vertex 10.5749 5.46987 5
    endloop
  endfacet
  facet normal 0 0 1
    outer loop
      vertex 3.64058 2.64503 5
      vertex 8.75 2.16506 5
      vertex 9.22746 2.37764 5
    endloop
  endfacet
  facet normal 0 0 1
    outer loop
      vertex -3.01109 3.34415 5
      vertex -9.73868 2.4863 5
      vertex -9.22746 2.37764 5
    endloop
  endfacet
  facet normal 0 0 1
    outer loop
      vertex -3.01109 3.34415 5
      vertex -2.25 3.89711 5
      vertex -10.2613 2.4863 5
    endloop
  endfacet
  facet normal 0 0 1
    outer loop
      vertex -12.0225 1.46946 5
      vertex -11.6728 1.85786 5
      vertex -15.3798 1.14351 5
    endloop
  endfacet
  facet normal 0 0 1
    outer loop
      vertex -4.40166 0.935603 5
      vertex -7.97746 1.46946 5
      vertex -7.71614 1.01684 5
    endloop
  endfacet
  facet normal 0 0 1
    outer loop
      vertex -4.5 0 5
      vertex -7.71614 1.01684 5
      vertex -7.55463 0.519779 5
    endloop
  endfacet
  facet normal 0 0 1
    outer loop
      vertex -8.32717 -1.85786 5
      vertex -8.75 -2.16506 5
      vertex 0.783963 -7.45891 5
    endloop
  endfacet
  facet normal 0 0 1
    outer loop
      vertex -1.39058 -4.27975 5
      vertex -7.97746 -1.46946 5
      vertex 0.783963 -7.45891 5
    endloop
  endfacet
  facet normal 0 0 1
    outer loop
      vertex -7.97746 -1.46946 5
      vertex -8.32717 -1.85786 5
      vertex 0.783963 -7.45891 5
    endloop
  endfacet
  facet normal 0 0 1
    outer loop
      vertex 0.783963 -7.45891 5
      vertex -9.22746 -2.37764 5
      vertex -0.783963 -7.45891 5
    endloop
  endfacet
  facet normal 0 0 1
    outer loop
      vertex -0.783963 -7.45891 5
      vertex -9.73868 -2.4863 5
      vertex -10.5749 -5.46987 5
    endloop
  endfacet
  facet normal 0 0 1
    outer loop
      vertex -9.73868 -2.4863 5
      vertex -10.2613 -2.4863 5
      vertex -10.5749 -5.46987 5
    endloop
  endfacet
  facet normal 0 0 1
    outer loop
      vertex 12.0225 -1.46946 5
      vertex 11.6728 -1.85786 5
      vertex 15.0245 -2.23705 5
    endloop
  endfacet
  facet normal 0 0 1
    outer loop
      vertex -10.2613 -2.4863 5
      vertex -10.7725 -2.37764 5
      vertex -10.5749 -5.46987 5
    endloop
  endfacet
  facet normal 0 0 1
    outer loop
      vertex -10.7725 -2.37764 5
      vertex -11.25 -2.16506 5
      vertex -10.5749 -5.46987 5
    endloop
  endfacet
  facet normal 0 0 1
    outer loop
      vertex -11.25 -2.16506 5
      vertex -11.6728 -1.85786 5
      vertex -10.5749 -5.46987 5
    endloop
  endfacet
  facet normal 0 0 1
    outer loop
      vertex -12.4454 -0.519779 5
      vertex -12.5 0 5
      vertex -15.3798 1.14351 5
    endloop
  endfacet
  facet normal 0 0 1
    outer loop
      vertex 3.64058 -2.64503 5
      vertex 3.01109 -3.34415 5
      vertex 11.6996 -5.23081 5
    endloop
  endfacet
  facet normal 0 0 1
    outer loop
      vertex -4.40166 0.935603 5
      vertex -4.11095 1.83031 5
      vertex -7.97746 1.46946 5
    endloop
  endfacet
  facet normal 0 0 1
    outer loop
      vertex 3.64058 2.64503 5
      vertex 4.11095 1.83031 5
      vertex 8.75 2.16506 5
    endloop
  endfacet
  facet normal 0 0 1
    outer loop
      vertex 4.40166 -0.935603 5
      vertex 4.11095 -1.83031 5
      vertex 9.22746 -2.37764 5
    endloop
  endfacet
  facet normal 0 0 1
    outer loop
      vertex -3.01109 3.34415 5
      vertex -10.2613 2.4863 5
      vertex -9.73868 2.4863 5
    endloop
  endfacet
  facet normal 0 0 1
    outer loop
      vertex 3.64058 2.64503 5
      vertex 9.73868 2.4863 5
      vertex 14.4496 3.23282 5
    endloop
  endfacet
  facet normal 0 0 1
    outer loop
      vertex -8.32717 1.85786 5
      vertex -7.97746 1.46946 5
      vertex -4.11095 1.83031 5
    endloop
  endfacet
  facet normal 0 0 1
    outer loop
      vertex 9.73868 2.4863 5
      vertex 10.2613 2.4863 5
      vertex 14.4496 3.23282 5
    endloop
  endfacet
  facet normal 0 0 1
    outer loop
      vertex 2.25 3.89711 5
      vertex 12.75 4.76314 5
      vertex 11.6996 5.23081 5
    endloop
  endfacet
  facet normal 0 0 1
    outer loop
      vertex 1.39058 4.27975 5
      vertex 2.25 3.89711 5
      vertex 10.5749 5.46987 5
    endloop
  endfacet
  facet normal 0 0 1
    outer loop
      vertex 0.783963 7.45891 5
      vertex -10.2613 2.4863 5
      vertex -2.25 3.89711 5
    endloop
  endfacet
  facet normal 0 0 1
    outer loop
      vertex 2.25 3.89711 5
      vertex 3.01109 3.34415 5
      vertex 12.75 4.76314 5
    endloop
  endfacet
  facet normal 0 0 1
    outer loop
      vertex 0.783963 7.45891 5
      vertex -2.25 3.89711 5
      vertex -1.39058 4.27975 5
    endloop
  endfacet
  facet normal 0 0 1
    outer loop
      vertex 0.783963 7.45891 5
      vertex -0.470378 4.47535 5
      vertex 10.5749 5.46987 5
    endloop
  endfacet
  facet normal 0 0 1
    outer loop
      vertex 0.783963 7.45891 5
      vertex -1.39058 4.27975 5
      vertex -0.470378 4.47535 5
    endloop
  endfacet
  facet normal 0 0 1
    outer loop
      vertex -0.470378 4.47535 5
      vertex 0.470378 4.47535 5
      vertex 10.5749 5.46987 5
    endloop
  endfacet
  facet normal 0 0 1
    outer loop
      vertex 10.5749 5.46987 5
      vertex 2.25 3.89711 5
      vertex 11.6996 5.23081 5
    endloop
  endfacet
  facet normal 0 0 1
    outer loop
      vertex 12.75 4.76314 5
      vertex 3.01109 3.34415 5
      vertex 13.6802 4.0873 5
    endloop
  endfacet
  facet normal 0 0 1
    outer loop
      vertex 13.6802 4.0873 5
      vertex 3.64058 2.64503 5
      vertex 14.4496 3.23282 5
    endloop
  endfacet
  facet normal 0 0 1
    outer loop
      vertex 3.64058 2.64503 5
      vertex 9.22746 2.37764 5
      vertex 9.73868 2.4863 5
    endloop
  endfacet
  facet normal 0 0 1
    outer loop
      vertex 7.97746 -1.46946 5
      vertex 7.71614 -1.01684 5
      vertex 4.40166 -0.935603 5
    endloop
  endfacet
  facet normal 0 0 1
    outer loop
      vertex -7.5 0 5
      vertex -7.55463 -0.519779 5
      vertex -4.40166 -0.935603 5
    endloop
  endfacet
  facet normal 0 0 1
    outer loop
      vertex 11.6728 -1.85786 5
      vertex 11.25 -2.16506 5
      vertex 15.0245 -2.23705 5
    endloop
  endfacet
  facet normal 0 0 1
    outer loop
      vertex 14.4496 -3.23282 5
      vertex 4.11095 -1.83031 5
      vertex 13.6802 -4.0873 5
    endloop
  endfacet
  facet normal 0 0 1
    outer loop
      vertex 13.6802 -4.0873 5
      vertex 3.64058 -2.64503 5
      vertex 12.75 -4.76314 5
    endloop
  endfacet
  facet normal 0 0 1
    outer loop
      vertex 11.6996 -5.23081 5
      vertex 3.01109 -3.34415 5
      vertex 10.5749 -5.46987 5
    endloop
  endfacet
  facet normal 0 0 1
    outer loop
      vertex 10.5749 -5.46987 5
      vertex 2.25 -3.89711 5
      vertex 0.783963 -7.45891 5
    endloop
  endfacet
  facet normal 0 0 1
    outer loop
      vertex 2.25 -3.89711 5
      vertex 1.39058 -4.27975 5
      vertex 0.783963 -7.45891 5
    endloop
  endfacet
  facet normal 0 0 1
    outer loop
      vertex 1.39058 -4.27975 5
      vertex 0.470378 -4.47535 5
      vertex 0.783963 -7.45891 5
    endloop
  endfacet
  facet normal 0 0 1
    outer loop
      vertex -3.64058 -2.64503 5
      vertex -7.71614 -1.01684 5
      vertex -7.97746 -1.46946 5
    endloop
  endfacet
  facet normal 0 0 1
    outer loop
      vertex 0.470378 -4.47535 5
      vertex -0.470378 -4.47535 5
      vertex 0.783963 -7.45891 5
    endloop
  endfacet
  facet normal 0 0 1
    outer loop
      vertex -0.470378 -4.47535 5
      vertex -1.39058 -4.27975 5
      vertex 0.783963 -7.45891 5
    endloop
  endfacet
  facet normal 0 0 1
    outer loop
      vertex -2.25 -3.89711 5
      vertex -7.97746 -1.46946 5
      vertex -1.39058 -4.27975 5
    endloop
  endfacet
  facet normal 0 0 1
    outer loop
      vertex -3.64058 -2.64503 5
      vertex -4.11095 -1.83031 5
      vertex -7.71614 -1.01684 5
    endloop
  endfacet
  facet normal 0 0 1
    outer loop
      vertex 7.71614 -1.01684 5
      vertex 7.55463 -0.519779 5
      vertex 4.40166 -0.935603 5
    endloop
  endfacet
  facet normal 0 0 1
    outer loop
      vertex -3.01109 -3.34415 5
      vertex -3.64058 -2.64503 5
      vertex -7.97746 -1.46946 5
    endloop
  endfacet
  facet normal 0 0 1
    outer loop
      vertex -7.55463 -0.519779 5
      vertex -7.71614 -1.01684 5
      vertex -4.11095 -1.83031 5
    endloop
  endfacet
  facet normal 0 0 1
    outer loop
      vertex 12.4454 0.519779 5
      vertex 12.5 0 5
      vertex 15.5 0 5
    endloop
  endfacet
  facet normal 0 0 1
    outer loop
      vertex 8.32717 1.85786 5
      vertex 8.75 2.16506 5
      vertex 4.11095 1.83031 5
    endloop
  endfacet
  facet normal 0 0 1
    outer loop
      vertex 12.0225 1.46946 5
      vertex 12.2839 1.01684 5
      vertex 15.3798 1.14351 5
    endloop
  endfacet
  facet normal 0 0 1
    outer loop
      vertex 11.25 2.16506 5
      vertex 11.6728 1.85786 5
      vertex 15.0245 2.23705 5
    endloop
  endfacet
  facet normal 0 0 1
    outer loop
      vertex -4.11095 1.83031 5
      vertex -8.75 2.16506 5
      vertex -8.32717 1.85786 5
    endloop
  endfacet
  facet normal 0 0 1
    outer loop
      vertex 10.2613 2.4863 5
      vertex 10.7725 2.37764 5
      vertex 14.4496 3.23282 5
    endloop
  endfacet
  facet normal 0 0 1
    outer loop
      vertex 4.40166 -0.935603 5
      vertex 8.75 -2.16506 5
      vertex 8.32717 -1.85786 5
    endloop
  endfacet
  facet normal 0 0 1
    outer loop
      vertex 10.7725 2.37764 5
      vertex 11.25 2.16506 5
      vertex 15.0245 2.23705 5
    endloop
  endfacet
  facet normal 0 0 1
    outer loop
      vertex 14.4496 3.23282 5
      vertex 10.7725 2.37764 5
      vertex 15.0245 2.23705 5
    endloop
  endfacet
  facet normal 0 0 1
    outer loop
      vertex -4.11095 1.83031 5
      vertex -3.64058 2.64503 5
      vertex -8.75 2.16506 5
    endloop
  endfacet
  facet normal 0 0 1
    outer loop
      vertex 15.0245 2.23705 5
      vertex 11.6728 1.85786 5
      vertex 15.3798 1.14351 5
    endloop
  endfacet
  facet normal 0 0 1
    outer loop
      vertex 11.6728 1.85786 5
      vertex 12.0225 1.46946 5
      vertex 15.3798 1.14351 5
    endloop
  endfacet
  facet normal 0 0 1
    outer loop
      vertex 15.3798 1.14351 5
      vertex 12.2839 1.01684 5
      vertex 15.5 0 5
    endloop
  endfacet
  facet normal 0 0 1
    outer loop
      vertex 12.2839 1.01684 5
      vertex 12.4454 0.519779 5
      vertex 15.5 0 5
    endloop
  endfacet
  facet normal 0 0 1
    outer loop
      vertex 7.97746 1.46946 5
      vertex 8.32717 1.85786 5
      vertex 4.11095 1.83031 5
    endloop
  endfacet
  facet normal 0 0 1
    outer loop
      vertex 15.5 0 5
      vertex 12.5 0 5
      vertex 15.3798 -1.14351 5
    endloop
  endfacet
  facet normal 0 0 1
    outer loop
      vertex 3.01109 -3.34415 5
      vertex 2.25 -3.89711 5
      vertex 10.5749 -5.46987 5
    endloop
  endfacet
  facet normal 0 0 1
    outer loop
      vertex 12.5 0 5
      vertex 12.4454 -0.519779 5
      vertex 15.3798 -1.14351 5
    endloop
  endfacet
  facet normal 0 0 1
    outer loop
      vertex 7.55463 -0.519779 5
      vertex 7.5 0 5
      vertex 4.5 0 5
    endloop
  endfacet
  facet normal 0 0 1
    outer loop
      vertex 4.40166 0.935603 5
      vertex 7.5 0 5
      vertex 7.55463 0.519779 5
    endloop
  endfacet
  facet normal 0 0 1
    outer loop
      vertex 15.3798 -1.14351 5
      vertex 12.0225 -1.46946 5
      vertex 15.0245 -2.23705 5
    endloop
  endfacet
  facet normal 0 0 1
    outer loop
      vertex 15.0245 -2.23705 5
      vertex 11.25 -2.16506 5
      vertex 14.4496 -3.23282 5
    endloop
  endfacet
  facet normal 0 0 1
    outer loop
      vertex 11.25 -2.16506 5
      vertex 10.7725 -2.37764 5
      vertex 14.4496 -3.23282 5
    endloop
  endfacet
  facet normal 0 0 1
    outer loop
      vertex 10.7725 -2.37764 5
      vertex 10.2613 -2.4863 5
      vertex 14.4496 -3.23282 5
    endloop
  endfacet
  facet normal 0 0 1
    outer loop
      vertex 10.2613 -2.4863 5
      vertex 9.73868 -2.4863 5
      vertex 14.4496 -3.23282 5
    endloop
  endfacet
  facet normal 0 0 1
    outer loop
      vertex 12.2839 -1.01684 5
      vertex 12.0225 -1.46946 5
      vertex 15.3798 -1.14351 5
    endloop
  endfacet
  facet normal 0 0 1
    outer loop
      vertex 4.5 0 5
      vertex 4.40166 -0.935603 5
      vertex 7.55463 -0.519779 5
    endloop
  endfacet
  facet normal 0 0 1
    outer loop
      vertex 4.11095 1.83031 5
      vertex 4.40166 0.935603 5
      vertex 7.71614 1.01684 5
    endloop
  endfacet
  facet normal 0 0 1
    outer loop
      vertex 12.4454 -0.519779 5
      vertex 12.2839 -1.01684 5
      vertex 15.3798 -1.14351 5
    endloop
  endfacet
  facet normal 0 0 1
    outer loop
      vertex -12.2839 -1.01684 5
      vertex -12.4454 -0.519779 5
      vertex -15.3798 1.14351 5
    endloop
  endfacet
  facet normal 0 0 1
    outer loop
      vertex -12.5 0 5
      vertex -12.4454 0.519779 5
      vertex -15.3798 1.14351 5
    endloop
  endfacet
  facet normal 0 0 1
    outer loop
      vertex -4.5 0 5
      vertex -4.40166 0.935603 5
      vertex -7.71614 1.01684 5
    endloop
  endfacet
  facet normal 0 0 1
    outer loop
      vertex 7.55463 0.519779 5
      vertex 7.71614 1.01684 5
      vertex 4.40166 0.935603 5
    endloop
  endfacet
  facet normal 0 0 1
    outer loop
      vertex -12.4454 0.519779 5
      vertex -12.2839 1.01684 5
      vertex -15.3798 1.14351 5
    endloop
  endfacet
  facet normal -0.951057 -0.309017 0
    outer loop
      vertex -15.3798 -1.14351 -5
      vertex -15.0245 -2.23705 -5
      vertex -15.3798 -1.14351 5
    endloop
  endfacet
  facet normal -0.951057 -0.309017 0
    outer loop
      vertex -15.3798 -1.14351 5
      vertex -15.0245 -2.23705 -5
      vertex -15.0245 -2.23705 5
    endloop
  endfacet
  facet normal -0.866025 -0.5 0
    outer loop
      vertex -15.0245 -2.23705 -5
      vertex -14.4496 -3.23282 -5
      vertex -15.0245 -2.23705 5
    endloop
  endfacet
  facet normal -0.866025 -0.5 0
    outer loop
      vertex -15.0245 -2.23705 5
      vertex -14.4496 -3.23282 -5
      vertex -14.4496 -3.23282 5
    endloop
  endfacet
  facet normal -0.743145 -0.66913 0
    outer loop
      vertex -14.4496 -3.23282 -5
      vertex -13.6802 -4.0873 -5
      vertex -14.4496 -3.23282 5
    endloop
  endfacet
  facet normal -0.743145 -0.66913 0
    outer loop
      vertex -14.4496 -3.23282 5
      vertex -13.6802 -4.0873 -5
      vertex -13.6802 -4.0873 5
    endloop
  endfacet
  facet normal -0.587785 -0.809017 0
    outer loop
      vertex -13.6802 -4.0873 5
      vertex -13.6802 -4.0873 -5
      vertex -12.75 -4.76314 -5
    endloop
  endfacet
  facet normal -0.587785 -0.809017 0
    outer loop
      vertex -12.75 -4.76314 5
      vertex -13.6802 -4.0873 5
      vertex -12.75 -4.76314 -5
    endloop
  endfacet
  facet normal -0.406736 -0.913546 0
    outer loop
      vertex -12.75 -4.76314 5
      vertex -12.75 -4.76314 -5
      vertex -11.6996 -5.23081 -5
    endloop
  endfacet
  facet normal -0.406736 -0.913546 0
    outer loop
      vertex -11.6996 -5.23081 5
      vertex -12.75 -4.76314 5
      vertex -11.6996 -5.23081 -5
    endloop
  endfacet
  facet normal -0.207911 -0.978148 0
    outer loop
      vertex -11.6996 -5.23081 5
      vertex -11.6996 -5.23081 -5
      vertex -10.5749 -5.46987 -5
    endloop
  endfacet
  facet normal -0.207911 -0.978148 0
    outer loop
      vertex -10.5749 -5.46987 5
      vertex -11.6996 -5.23081 5
      vertex -10.5749 -5.46987 -5
    endloop
  endfacet
  facet normal -0.199085 -0.979982 0
    outer loop
      vertex -10.5749 -5.46987 5
      vertex -10.5749 -5.46987 -5
      vertex -0.783963 -7.45891 -5
    endloop
  endfacet
  facet normal -0.199085 -0.979982 0
    outer loop
      vertex -0.783963 -7.45891 5
      vertex -10.5749 -5.46987 5
      vertex -0.783963 -7.45891 -5
    endloop
  endfacet
  facet normal 0 -1 0
    outer loop
      vertex -0.783963 -7.45891 5
      vertex -0.783963 -7.45891 -5
      vertex 0.783963 -7.45891 -5
    endloop
  endfacet
  facet normal 0 -1 0
    outer loop
      vertex 0.783963 -7.45891 5
      vertex -0.783963 -7.45891 5
      vertex 0.783963 -7.45891 -5
    endloop
  endfacet
  facet normal 0.199085 -0.979982 0
    outer loop
      vertex 0.783963 -7.45891 5
      vertex 0.783963 -7.45891 -5
      vertex 10.5749 -5.46987 -5
    endloop
  endfacet
  facet normal 0.199085 -0.979982 0
    outer loop
      vertex 10.5749 -5.46987 5
      vertex 0.783963 -7.45891 5
      vertex 10.5749 -5.46987 -5
    endloop
  endfacet
  facet normal 0.207911 -0.978148 0
    outer loop
      vertex 10.5749 -5.46987 5
      vertex 10.5749 -5.46987 -5
      vertex 11.6996 -5.23081 -5
    endloop
  endfacet
  facet normal 0.207911 -0.978148 0
    outer loop
      vertex 11.6996 -5.23081 5
      vertex 10.5749 -5.46987 5
      vertex 11.6996 -5.23081 -5
    endloop
  endfacet
  facet normal 0.406736 -0.913546 0
    outer loop
      vertex 11.6996 -5.23081 5
      vertex 11.6996 -5.23081 -5
      vertex 12.75 -4.76314 -5
    endloop
  endfacet
  facet normal 0.406736 -0.913546 0
    outer loop
      vertex 12.75 -4.76314 5
      vertex 11.6996 -5.23081 5
      vertex 12.75 -4.76314 -5
    endloop
  endfacet
  facet normal 0.587785 -0.809017 0
    outer loop
      vertex 12.75 -4.76314 5
      vertex 12.75 -4.76314 -5
      vertex 13.6802 -4.0873 -5
    endloop
  endfacet
  facet normal 0.587785 -0.809017 0
    outer loop
      vertex 13.6802 -4.0873 5
      vertex 12.75 -4.76314 5
      vertex 13.6802 -4.0873 -5
    endloop
  endfacet
  facet normal 0.743145 -0.66913 0
    outer loop
      vertex 13.6802 -4.0873 5
      vertex 13.6802 -4.0873 -5
      vertex 14.4496 -3.23282 -5
    endloop
  endfacet
  facet normal 0.743145 -0.66913 0
    outer loop
      vertex 14.4496 -3.23282 5
      vertex 13.6802 -4.0873 5
      vertex 14.4496 -3.23282 -5
    endloop
  endfacet
  facet normal 0.866025 -0.5 0
    outer loop
      vertex 14.4496 -3.23282 5
      vertex 14.4496 -3.23282 -5
      vertex 15.0245 -2.23705 -5
    endloop
  endfacet
  facet normal 0.866025 -0.5 0
    outer loop
      vertex 15.0245 -2.23705 5
      vertex 14.4496 -3.23282 5
      vertex 15.0245 -2.23705 -5
    endloop
  endfacet
  facet normal 0.951057 -0.309017 0
    outer loop
      vertex 15.0245 -2.23705 5
      vertex 15.0245 -2.23705 -5
      vertex 15.3798 -1.14351 -5
    endloop
  endfacet
  facet normal 0.951057 -0.309017 0
    outer loop
      vertex 15.3798 -1.14351 5
      vertex 15.0245 -2.23705 5
      vertex 15.3798 -1.14351 -5
    endloop
  endfacet
  facet normal 0.994522 -0.104528 0
    outer loop
      vertex 15.3798 -1.14351 5
      vertex 15.3798 -1.14351 -5
      vertex 15.5 0 -5
    endloop
  endfacet
  facet normal 0.994522 -0.104528 0
    outer loop
      vertex 15.5 0 5
      vertex 15.3798 -1.14351 5
      vertex 15.5 0 -5
    endloop
  endfacet
  facet normal 0.994522 0.104528 0
    outer loop
      vertex 15.5 0 -5
      vertex 15.3798 1.14351 -5
      vertex 15.3798 1.14351 5
    endloop
  endfacet
  facet normal 0.994522 0.104528 0
    outer loop
      vertex 15.5 0 5
      vertex 15.5 0 -5
      vertex 15.3798 1.14351 5
    endloop
  endfacet
  facet normal 0.951057 0.309017 0
    outer loop
      vertex 15.3798 1.14351 -5
      vertex 15.0245 2.23705 -5
      vertex 15.0245 2.23705 5
    endloop
  endfacet
  facet normal 0.951057 0.309017 0
    outer loop
      vertex 15.3798 1.14351 5
      vertex 15.3798 1.14351 -5
      vertex 15.0245 2.23705 5
    endloop
  endfacet
  facet normal 0.866025 0.5 0
    outer loop
      vertex 15.0245 2.23705 -5
      vertex 14.4496 3.23282 -5
      vertex 14.4496 3.23282 5
    endloop
  endfacet
  facet normal 0.866025 0.5 0
    outer loop
      vertex 15.0245 2.23705 5
      vertex 15.0245 2.23705 -5
      vertex 14.4496 3.23282 5
    endloop
  endfacet
  facet normal 0.743145 0.66913 0
    outer loop
      vertex 14.4496 3.23282 -5
      vertex 13.6802 4.0873 -5
      vertex 13.6802 4.0873 5
    endloop
  endfacet
  facet normal 0.743145 0.66913 0
    outer loop
      vertex 14.4496 3.23282 5
      vertex 14.4496 3.23282 -5
      vertex 13.6802 4.0873 5
    endloop
  endfacet
  facet normal 0.587785 0.809017 0
    outer loop
      vertex 12.75 4.76314 -5
      vertex 12.75 4.76314 5
      vertex 13.6802 4.0873 -5
    endloop
  endfacet
  facet normal 0.587785 0.809017 0
    outer loop
      vertex 13.6802 4.0873 -5
      vertex 12.75 4.76314 5
      vertex 13.6802 4.0873 5
    endloop
  endfacet
  facet normal 0.406736 0.913546 0
    outer loop
      vertex 11.6996 5.23081 -5
      vertex 11.6996 5.23081 5
      vertex 12.75 4.76314 -5
    endloop
  endfacet
  facet normal 0.406736 0.913546 0
    outer loop
      vertex 12.75 4.76314 -5
      vertex 11.6996 5.23081 5
      vertex 12.75 4.76314 5
    endloop
  endfacet
  facet normal 0.207911 0.978148 0
    outer loop
      vertex 10.5749 5.46987 -5
      vertex 10.5749 5.46987 5
      vertex 11.6996 5.23081 -5
    endloop
  endfacet
  facet normal 0.207911 0.978148 0
    outer loop
      vertex 11.6996 5.23081 -5
      vertex 10.5749 5.46987 5
      vertex 11.6996 5.23081 5
    endloop
  endfacet
  facet normal 0.199085 0.979982 0
    outer loop
      vertex 0.783963 7.45891 -5
      vertex 0.783963 7.45891 5
      vertex 10.5749 5.46987 -5
    endloop
  endfacet
  facet normal 0.199085 0.979982 0
    outer loop
      vertex 10.5749 5.46987 -5
      vertex 0.783963 7.45891 5
      vertex 10.5749 5.46987 5
    endloop
  endfacet
  facet normal 0 1 0
    outer loop
      vertex -0.783963 7.45891 -5
      vertex -0.783963 7.45891 5
      vertex 0.783963 7.45891 -5
    endloop
  endfacet
  facet normal 0 1 0
    outer loop
      vertex 0.783963 7.45891 -5
      vertex -0.783963 7.45891 5
      vertex 0.783963 7.45891 5
    endloop
  endfacet
  facet normal -0.199085 0.979982 0
    outer loop
      vertex -10.5749 5.46987 -5
      vertex -10.5749 5.46987 5
      vertex -0.783963 7.45891 -5
    endloop
  endfacet
  facet normal -0.199085 0.979982 0
    outer loop
      vertex -0.783963 7.45891 -5
      vertex -10.5749 5.46987 5
      vertex -0.783963 7.45891 5
    endloop
  endfacet
  facet normal -0.207911 0.978148 0
    outer loop
      vertex -11.6996 5.23081 -5
      vertex -11.6996 5.23081 5
      vertex -10.5749 5.46987 -5
    endloop
  endfacet
  facet normal -0.207911 0.978148 0
    outer loop
      vertex -10.5749 5.46987 -5
      vertex -11.6996 5.23081 5
      vertex -10.5749 5.46987 5
    endloop
  endfacet
  facet normal -0.406736 0.913546 0
    outer loop
      vertex -12.75 4.76314 -5
      vertex -12.75 4.76314 5
      vertex -11.6996 5.23081 -5
    endloop
  endfacet
  facet normal -0.406736 0.913546 0
    outer loop
      vertex -11.6996 5.23081 -5
      vertex -12.75 4.76314 5
      vertex -11.6996 5.23081 5
    endloop
  endfacet
  facet normal -0.587785 0.809017 0
    outer loop
      vertex -13.6802 4.0873 -5
      vertex -13.6802 4.0873 5
      vertex -12.75 4.76314 -5
    endloop
  endfacet
  facet normal -0.587785 0.809017 0
    outer loop
      vertex -12.75 4.76314 -5
      vertex -13.6802 4.0873 5
      vertex -12.75 4.76314 5
    endloop
  endfacet
  facet normal -0.743145 0.66913 0
    outer loop
      vertex -14.4496 3.23282 -5
      vertex -14.4496 3.23282 5
      vertex -13.6802 4.0873 -5
    endloop
  endfacet
  facet normal -0.743145 0.66913 0
    outer loop
      vertex -13.6802 4.0873 -5
      vertex -14.4496 3.23282 5
      vertex -13.6802 4.0873 5
    endloop
  endfacet
  facet normal -0.866025 0.5 0
    outer loop
      vertex -15.0245 2.23705 -5
      vertex -15.0245 2.23705 5
      vertex -14.4496 3.23282 -5
    endloop
  endfacet
  facet normal -0.866025 0.5 0
    outer loop
      vertex -14.4496 3.23282 -5
      vertex -15.0245 2.23705 5
      vertex -14.4496 3.23282 5
    endloop
  endfacet
  facet normal 0.994522 0.104529 0
    outer loop
      vertex -12.5 0 5
      vertex -12.4454 -0.519779 5
      vertex -12.4454 -0.519779 -5
    endloop
  endfacet
  facet normal 0.994522 0.104529 0
    outer loop
      vertex -12.5 0 -5
      vertex -12.5 0 5
      vertex -12.4454 -0.519779 -5
    endloop
  endfacet
  facet normal 0.994522 -0.104529 0
    outer loop
      vertex -12.4454 0.519779 -5
      vertex -12.4454 0.519779 5
      vertex -12.5 0 5
    endloop
  endfacet
  facet normal 0.994522 -0.104529 0
    outer loop
      vertex -12.5 0 -5
      vertex -12.4454 0.519779 -5
      vertex -12.5 0 5
    endloop
  endfacet
  facet normal 0.951057 -0.309016 0
    outer loop
      vertex -12.2839 1.01684 -5
      vertex -12.2839 1.01684 5
      vertex -12.4454 0.519779 5
    endloop
  endfacet
  facet normal 0.951057 -0.309016 0
    outer loop
      vertex -12.4454 0.519779 -5
      vertex -12.2839 1.01684 -5
      vertex -12.4454 0.519779 5
    endloop
  endfacet
  facet normal 0.866024 -0.500002 0
    outer loop
      vertex -12.0225 1.46946 -5
      vertex -12.0225 1.46946 5
      vertex -12.2839 1.01684 5
    endloop
  endfacet
  facet normal 0.866024 -0.500002 0
    outer loop
      vertex -12.2839 1.01684 -5
      vertex -12.0225 1.46946 -5
      vertex -12.2839 1.01684 5
    endloop
  endfacet
  facet normal 0.743146 -0.66913 0
    outer loop
      vertex -11.6728 1.85786 -5
      vertex -11.6728 1.85786 5
      vertex -12.0225 1.46946 5
    endloop
  endfacet
  facet normal 0.743146 -0.66913 0
    outer loop
      vertex -12.0225 1.46946 -5
      vertex -11.6728 1.85786 -5
      vertex -12.0225 1.46946 5
    endloop
  endfacet
  facet normal 0.587786 -0.809017 0
    outer loop
      vertex -11.25 2.16506 -5
      vertex -11.25 2.16506 5
      vertex -11.6728 1.85786 5
    endloop
  endfacet
  facet normal 0.587786 -0.809017 0
    outer loop
      vertex -11.6728 1.85786 -5
      vertex -11.25 2.16506 -5
      vertex -11.6728 1.85786 5
    endloop
  endfacet
  facet normal 0.406735 -0.913546 0
    outer loop
      vertex -10.7725 2.37764 -5
      vertex -10.7725 2.37764 5
      vertex -11.25 2.16506 5
    endloop
  endfacet
  facet normal 0.406735 -0.913546 0
    outer loop
      vertex -11.25 2.16506 -5
      vertex -10.7725 2.37764 -5
      vertex -11.25 2.16506 5
    endloop
  endfacet
  facet normal 0.207913 -0.978147 0
    outer loop
      vertex -10.2613 2.4863 -5
      vertex -10.2613 2.4863 5
      vertex -10.7725 2.37764 5
    endloop
  endfacet
  facet normal 0.207913 -0.978147 0
    outer loop
      vertex -10.7725 2.37764 -5
      vertex -10.2613 2.4863 -5
      vertex -10.7725 2.37764 5
    endloop
  endfacet
  facet normal 0 -1 0
    outer loop
      vertex -9.73868 2.4863 -5
      vertex -9.73868 2.4863 5
      vertex -10.2613 2.4863 5
    endloop
  endfacet
  facet normal 0 -1 0
    outer loop
      vertex -10.2613 2.4863 -5
      vertex -9.73868 2.4863 -5
      vertex -10.2613 2.4863 5
    endloop
  endfacet
  facet normal -0.207913 -0.978147 0
    outer loop
      vertex -9.22746 2.37764 -5
      vertex -9.22746 2.37764 5
      vertex -9.73868 2.4863 5
    endloop
  endfacet
  facet normal -0.207913 -0.978147 0
    outer loop
      vertex -9.73868 2.4863 -5
      vertex -9.22746 2.37764 -5
      vertex -9.73868 2.4863 5
    endloop
  endfacet
  facet normal -0.406735 -0.913546 0
    outer loop
      vertex -8.75 2.16506 -5
      vertex -8.75 2.16506 5
      vertex -9.22746 2.37764 5
    endloop
  endfacet
  facet normal -0.406735 -0.913546 0
    outer loop
      vertex -9.22746 2.37764 -5
      vertex -8.75 2.16506 -5
      vertex -9.22746 2.37764 5
    endloop
  endfacet
  facet normal -0.587786 -0.809017 0
    outer loop
      vertex -8.32717 1.85786 -5
      vertex -8.32717 1.85786 5
      vertex -8.75 2.16506 5
    endloop
  endfacet
  facet normal -0.587786 -0.809017 0
    outer loop
      vertex -8.75 2.16506 -5
      vertex -8.32717 1.85786 -5
      vertex -8.75 2.16506 5
    endloop
  endfacet
  facet normal -0.743146 -0.66913 0
    outer loop
      vertex -7.97746 1.46946 5
      vertex -8.32717 1.85786 5
      vertex -7.97746 1.46946 -5
    endloop
  endfacet
  facet normal -0.743146 -0.66913 0
    outer loop
      vertex -7.97746 1.46946 -5
      vertex -8.32717 1.85786 5
      vertex -8.32717 1.85786 -5
    endloop
  endfacet
  facet normal -0.866024 -0.500002 0
    outer loop
      vertex -7.71614 1.01684 5
      vertex -7.97746 1.46946 5
      vertex -7.71614 1.01684 -5
    endloop
  endfacet
  facet normal -0.866024 -0.500002 0
    outer loop
      vertex -7.71614 1.01684 -5
      vertex -7.97746 1.46946 5
      vertex -7.97746 1.46946 -5
    endloop
  endfacet
  facet normal -0.951057 -0.309016 0
    outer loop
      vertex -7.55463 0.519779 5
      vertex -7.71614 1.01684 5
      vertex -7.55463 0.519779 -5
    endloop
  endfacet
  facet normal -0.951057 -0.309016 0
    outer loop
      vertex -7.55463 0.519779 -5
      vertex -7.71614 1.01684 5
      vertex -7.71614 1.01684 -5
    endloop
  endfacet
  facet normal -0.994522 -0.104529 0
    outer loop
      vertex -7.5 0 5
      vertex -7.55463 0.519779 5
      vertex -7.5 0 -5
    endloop
  endfacet
  facet normal -0.994522 -0.104529 0
    outer loop
      vertex -7.5 0 -5
      vertex -7.55463 0.519779 5
      vertex -7.55463 0.519779 -5
    endloop
  endfacet
  facet normal -0.994522 0.104529 0
    outer loop
      vertex -7.5 0 5
      vertex -7.5 0 -5
      vertex -7.55463 -0.519779 5
    endloop
  endfacet
  facet normal -0.994522 0.104529 0
    outer loop
      vertex -7.55463 -0.519779 5
      vertex -7.5 0 -5
      vertex -7.55463 -0.519779 -5
    endloop
  endfacet
  facet normal -0.951057 0.309016 0
    outer loop
      vertex -7.55463 -0.519779 5
      vertex -7.55463 -0.519779 -5
      vertex -7.71614 -1.01684 5
    endloop
  endfacet
  facet normal -0.951057 0.309016 0
    outer loop
      vertex -7.71614 -1.01684 5
      vertex -7.55463 -0.519779 -5
      vertex -7.71614 -1.01684 -5
    endloop
  endfacet
  facet normal -0.866024 0.500002 0
    outer loop
      vertex -7.71614 -1.01684 5
      vertex -7.71614 -1.01684 -5
      vertex -7.97746 -1.46946 5
    endloop
  endfacet
  facet normal -0.866024 0.500002 0
    outer loop
      vertex -7.97746 -1.46946 5
      vertex -7.71614 -1.01684 -5
      vertex -7.97746 -1.46946 -5
    endloop
  endfacet
  facet normal -0.743146 0.66913 0
    outer loop
      vertex -7.97746 -1.46946 5
      vertex -7.97746 -1.46946 -5
      vertex -8.32717 -1.85786 5
    endloop
  endfacet
  facet normal -0.743146 0.66913 0
    outer loop
      vertex -8.32717 -1.85786 5
      vertex -7.97746 -1.46946 -5
      vertex -8.32717 -1.85786 -5
    endloop
  endfacet
  facet normal -0.587786 0.809017 0
    outer loop
      vertex -8.32717 -1.85786 5
      vertex -8.32717 -1.85786 -5
      vertex -8.75 -2.16506 5
    endloop
  endfacet
  facet normal -0.587786 0.809017 0
    outer loop
      vertex -8.75 -2.16506 5
      vertex -8.32717 -1.85786 -5
      vertex -8.75 -2.16506 -5
    endloop
  endfacet
  facet normal -0.406735 0.913546 0
    outer loop
      vertex -8.75 -2.16506 5
      vertex -8.75 -2.16506 -5
      vertex -9.22746 -2.37764 5
    endloop
  endfacet
  facet normal -0.406735 0.913546 0
    outer loop
      vertex -9.22746 -2.37764 5
      vertex -8.75 -2.16506 -5
      vertex -9.22746 -2.37764 -5
    endloop
  endfacet
  facet normal -0.207913 0.978147 0
    outer loop
      vertex -9.22746 -2.37764 5
      vertex -9.22746 -2.37764 -5
      vertex -9.73868 -2.4863 5
    endloop
  endfacet
  facet normal -0.207913 0.978147 0
    outer loop
      vertex -9.73868 -2.4863 5
      vertex -9.22746 -2.37764 -5
      vertex -9.73868 -2.4863 -5
    endloop
  endfacet
  facet normal 0 1 0
    outer loop
      vertex -9.73868 -2.4863 5
      vertex -9.73868 -2.4863 -5
      vertex -10.2613 -2.4863 5
    endloop
  endfacet
  facet normal 0 1 0
    outer loop
      vertex -10.2613 -2.4863 5
      vertex -9.73868 -2.4863 -5
      vertex -10.2613 -2.4863 -5
    endloop
  endfacet
  facet normal 0.207913 0.978147 0
    outer loop
      vertex -10.2613 -2.4863 5
      vertex -10.2613 -2.4863 -5
      vertex -10.7725 -2.37764 5
    endloop
  endfacet
  facet normal 0.207913 0.978147 0
    outer loop
      vertex -10.7725 -2.37764 5
      vertex -10.2613 -2.4863 -5
      vertex -10.7725 -2.37764 -5
    endloop
  endfacet
  facet normal 0.406735 0.913546 0
    outer loop
      vertex -10.7725 -2.37764 5
      vertex -10.7725 -2.37764 -5
      vertex -11.25 -2.16506 5
    endloop
  endfacet
  facet normal 0.406735 0.913546 0
    outer loop
      vertex -11.25 -2.16506 5
      vertex -10.7725 -2.37764 -5
      vertex -11.25 -2.16506 -5
    endloop
  endfacet
  facet normal 0.587786 0.809017 0
    outer loop
      vertex -11.25 -2.16506 5
      vertex -11.25 -2.16506 -5
      vertex -11.6728 -1.85786 5
    endloop
  endfacet
  facet normal 0.587786 0.809017 0
    outer loop
      vertex -11.6728 -1.85786 5
      vertex -11.25 -2.16506 -5
      vertex -11.6728 -1.85786 -5
    endloop
  endfacet
  facet normal 0.743146 0.66913 0
    outer loop
      vertex -12.0225 -1.46946 5
      vertex -11.6728 -1.85786 5
      vertex -11.6728 -1.85786 -5
    endloop
  endfacet
  facet normal 0.743146 0.66913 0
    outer loop
      vertex -12.0225 -1.46946 -5
      vertex -12.0225 -1.46946 5
      vertex -11.6728 -1.85786 -5
    endloop
  endfacet
  facet normal 0.866024 0.500002 0
    outer loop
      vertex -12.2839 -1.01684 5
      vertex -12.0225 -1.46946 5
      vertex -12.0225 -1.46946 -5
    endloop
  endfacet
  facet normal 0.866024 0.500002 0
    outer loop
      vertex -12.2839 -1.01684 -5
      vertex -12.2839 -1.01684 5
      vertex -12.0225 -1.46946 -5
    endloop
  endfacet
  facet normal 0.951057 0.309016 0
    outer loop
      vertex -12.4454 -0.519779 5
      vertex -12.2839 -1.01684 5
      vertex -12.2839 -1.01684 -5
    endloop
  endfacet
  facet normal 0.951057 0.309016 0
    outer loop
      vertex -12.4454 -0.519779 -5
      vertex -12.4454 -0.519779 5
      vertex -12.2839 -1.01684 -5
    endloop
  endfacet
  facet normal 0.994522 0.104529 0
    outer loop
      vertex -4.5 0 5
      vertex -4.40166 -0.935603 5
      vertex -4.40166 -0.935603 -5
    endloop
  endfacet
  facet normal 0.994522 0.104529 0
    outer loop
      vertex -4.5 0 -5
      vertex -4.5 0 5
      vertex -4.40166 -0.935603 -5
    endloop
  endfacet
  facet normal 0.994522 -0.104529 0
    outer loop
      vertex -4.40166 0.935603 -5
      vertex -4.40166 0.935603 5
      vertex -4.5 0 5
    endloop
  endfacet
  facet normal 0.994522 -0.104529 0
    outer loop
      vertex -4.5 0 -5
      vertex -4.40166 0.935603 -5
      vertex -4.5 0 5
    endloop
  endfacet
  facet normal 0.951057 -0.309016 0
    outer loop
      vertex -4.11095 1.83031 -5
      vertex -4.11095 1.83031 5
      vertex -4.40166 0.935603 5
    endloop
  endfacet
  facet normal 0.951057 -0.309016 0
    outer loop
      vertex -4.40166 0.935603 -5
      vertex -4.11095 1.83031 -5
      vertex -4.40166 0.935603 5
    endloop
  endfacet
  facet normal 0.866025 -0.500001 0
    outer loop
      vertex -3.64058 2.64503 -5
      vertex -3.64058 2.64503 5
      vertex -4.11095 1.83031 5
    endloop
  endfacet
  facet normal 0.866025 -0.500001 0
    outer loop
      vertex -4.11095 1.83031 -5
      vertex -3.64058 2.64503 -5
      vertex -4.11095 1.83031 5
    endloop
  endfacet
  facet normal 0.743145 -0.66913 0
    outer loop
      vertex -3.01109 3.34415 -5
      vertex -3.01109 3.34415 5
      vertex -3.64058 2.64503 5
    endloop
  endfacet
  facet normal 0.743145 -0.66913 0
    outer loop
      vertex -3.64058 2.64503 -5
      vertex -3.01109 3.34415 -5
      vertex -3.64058 2.64503 5
    endloop
  endfacet
  facet normal 0.587785 -0.809017 0
    outer loop
      vertex -2.25 3.89711 -5
      vertex -2.25 3.89711 5
      vertex -3.01109 3.34415 5
    endloop
  endfacet
  facet normal 0.587785 -0.809017 0
    outer loop
      vertex -3.01109 3.34415 -5
      vertex -2.25 3.89711 -5
      vertex -3.01109 3.34415 5
    endloop
  endfacet
  facet normal 0.406736 -0.913546 0
    outer loop
      vertex -1.39058 4.27975 -5
      vertex -1.39058 4.27975 5
      vertex -2.25 3.89711 5
    endloop
  endfacet
  facet normal 0.406736 -0.913546 0
    outer loop
      vertex -2.25 3.89711 -5
      vertex -1.39058 4.27975 -5
      vertex -2.25 3.89711 5
    endloop
  endfacet
  facet normal 0.207913 -0.978147 0
    outer loop
      vertex -0.470378 4.47535 -5
      vertex -0.470378 4.47535 5
      vertex -1.39058 4.27975 5
    endloop
  endfacet
  facet normal 0.207913 -0.978147 0
    outer loop
      vertex -1.39058 4.27975 -5
      vertex -0.470378 4.47535 -5
      vertex -1.39058 4.27975 5
    endloop
  endfacet
  facet normal 0 -1 0
    outer loop
      vertex 0.470378 4.47535 -5
      vertex 0.470378 4.47535 5
      vertex -0.470378 4.47535 5
    endloop
  endfacet
  facet normal 0 -1 0
    outer loop
      vertex -0.470378 4.47535 -5
      vertex 0.470378 4.47535 -5
      vertex -0.470378 4.47535 5
    endloop
  endfacet
  facet normal -0.207913 -0.978147 0
    outer loop
      vertex 1.39058 4.27975 -5
      vertex 1.39058 4.27975 5
      vertex 0.470378 4.47535 5
    endloop
  endfacet
  facet normal -0.207913 -0.978147 0
    outer loop
      vertex 0.470378 4.47535 -5
      vertex 1.39058 4.27975 -5
      vertex 0.470378 4.47535 5
    endloop
  endfacet
  facet normal -0.406736 -0.913546 0
    outer loop
      vertex 2.25 3.89711 -5
      vertex 2.25 3.89711 5
      vertex 1.39058 4.27975 5
    endloop
  endfacet
  facet normal -0.406736 -0.913546 0
    outer loop
      vertex 1.39058 4.27975 -5
      vertex 2.25 3.89711 -5
      vertex 1.39058 4.27975 5
    endloop
  endfacet
  facet normal -0.587785 -0.809017 0
    outer loop
      vertex 3.01109 3.34415 -5
      vertex 3.01109 3.34415 5
      vertex 2.25 3.89711 5
    endloop
  endfacet
  facet normal -0.587785 -0.809017 0
    outer loop
      vertex 2.25 3.89711 -5
      vertex 3.01109 3.34415 -5
      vertex 2.25 3.89711 5
    endloop
  endfacet
  facet normal -0.743145 -0.66913 0
    outer loop
      vertex 3.64058 2.64503 5
      vertex 3.01109 3.34415 5
      vertex 3.64058 2.64503 -5
    endloop
  endfacet
  facet normal -0.743145 -0.66913 0
    outer loop
      vertex 3.64058 2.64503 -5
      vertex 3.01109 3.34415 5
      vertex 3.01109 3.34415 -5
    endloop
  endfacet
  facet normal -0.866025 -0.500001 0
    outer loop
      vertex 4.11095 1.83031 5
      vertex 3.64058 2.64503 5
      vertex 4.11095 1.83031 -5
    endloop
  endfacet
  facet normal -0.866025 -0.500001 0
    outer loop
      vertex 4.11095 1.83031 -5
      vertex 3.64058 2.64503 5
      vertex 3.64058 2.64503 -5
    endloop
  endfacet
  facet normal -0.951057 -0.309016 0
    outer loop
      vertex 4.40166 0.935603 5
      vertex 4.11095 1.83031 5
      vertex 4.40166 0.935603 -5
    endloop
  endfacet
  facet normal -0.951057 -0.309016 0
    outer loop
      vertex 4.40166 0.935603 -5
      vertex 4.11095 1.83031 5
      vertex 4.11095 1.83031 -5
    endloop
  endfacet
  facet normal -0.994522 -0.104529 0
    outer loop
      vertex 4.5 0 5
      vertex 4.40166 0.935603 5
      vertex 4.5 0 -5
    endloop
  endfacet
  facet normal -0.994522 -0.104529 0
    outer loop
      vertex 4.5 0 -5
      vertex 4.40166 0.935603 5
      vertex 4.40166 0.935603 -5
    endloop
  endfacet
  facet normal -0.994522 0.104529 0
    outer loop
      vertex 4.5 0 5
      vertex 4.5 0 -5
      vertex 4.40166 -0.935603 5
    endloop
  endfacet
  facet normal -0.994522 0.104529 0
    outer loop
      vertex 4.40166 -0.935603 5
      vertex 4.5 0 -5
      vertex 4.40166 -0.935603 -5
    endloop
  endfacet
  facet normal -0.951057 0.309016 0
    outer loop
      vertex 4.40166 -0.935603 5
      vertex 4.40166 -0.935603 -5
      vertex 4.11095 -1.83031 5
    endloop
  endfacet
  facet normal -0.951057 0.309016 0
    outer loop
      vertex 4.11095 -1.83031 5
      vertex 4.40166 -0.935603 -5
      vertex 4.11095 -1.83031 -5
    endloop
  endfacet
  facet normal -0.866025 0.500001 0
    outer loop
      vertex 4.11095 -1.83031 5
      vertex 4.11095 -1.83031 -5
      vertex 3.64058 -2.64503 5
    endloop
  endfacet
  facet normal -0.866025 0.500001 0
    outer loop
      vertex 3.64058 -2.64503 5
      vertex 4.11095 -1.83031 -5
      vertex 3.64058 -2.64503 -5
    endloop
  endfacet
  facet normal -0.743145 0.66913 0
    outer loop
      vertex 3.64058 -2.64503 5
      vertex 3.64058 -2.64503 -5
      vertex 3.01109 -3.34415 5
    endloop
  endfacet
  facet normal -0.743145 0.66913 0
    outer loop
      vertex 3.01109 -3.34415 5
      vertex 3.64058 -2.64503 -5
      vertex 3.01109 -3.34415 -5
    endloop
  endfacet
  facet normal -0.587785 0.809017 0
    outer loop
      vertex 3.01109 -3.34415 5
      vertex 3.01109 -3.34415 -5
      vertex 2.25 -3.89711 5
    endloop
  endfacet
  facet normal -0.587785 0.809017 0
    outer loop
      vertex 2.25 -3.89711 5
      vertex 3.01109 -3.34415 -5
      vertex 2.25 -3.89711 -5
    endloop
  endfacet
  facet normal -0.406736 0.913546 0
    outer loop
      vertex 2.25 -3.89711 5
      vertex 2.25 -3.89711 -5
      vertex 1.39058 -4.27975 5
    endloop
  endfacet
  facet normal -0.406736 0.913546 0
    outer loop
      vertex 1.39058 -4.27975 5
      vertex 2.25 -3.89711 -5
      vertex 1.39058 -4.27975 -5
    endloop
  endfacet
  facet normal -0.207913 0.978147 0
    outer loop
      vertex 1.39058 -4.27975 5
      vertex 1.39058 -4.27975 -5
      vertex 0.470378 -4.47535 5
    endloop
  endfacet
  facet normal -0.207913 0.978147 0
    outer loop
      vertex 0.470378 -4.47535 5
      vertex 1.39058 -4.27975 -5
      vertex 0.470378 -4.47535 -5
    endloop
  endfacet
  facet normal 0 1 0
    outer loop
      vertex 0.470378 -4.47535 5
      vertex 0.470378 -4.47535 -5
      vertex -0.470378 -4.47535 5
    endloop
  endfacet
  facet normal 0 1 0
    outer loop
      vertex -0.470378 -4.47535 5
      vertex 0.470378 -4.47535 -5
      vertex -0.470378 -4.47535 -5
    endloop
  endfacet
  facet normal 0.207913 0.978147 0
    outer loop
      vertex -0.470378 -4.47535 5
      vertex -0.470378 -4.47535 -5
      vertex -1.39058 -4.27975 5
    endloop
  endfacet
  facet normal 0.207913 0.978147 0
    outer loop
      vertex -1.39058 -4.27975 5
      vertex -0.470378 -4.47535 -5
      vertex -1.39058 -4.27975 -5
    endloop
  endfacet
  facet normal 0.406736 0.913546 0
    outer loop
      vertex -1.39058 -4.27975 5
      vertex -1.39058 -4.27975 -5
      vertex -2.25 -3.89711 5
    endloop
  endfacet
  facet normal 0.406736 0.913546 0
    outer loop
      vertex -2.25 -3.89711 5
      vertex -1.39058 -4.27975 -5
      vertex -2.25 -3.89711 -5
    endloop
  endfacet
  facet normal 0.587785 0.809017 0
    outer loop
      vertex -2.25 -3.89711 5
      vertex -2.25 -3.89711 -5
      vertex -3.01109 -3.34415 5
    endloop
  endfacet
  facet normal 0.587785 0.809017 0
    outer loop
      vertex -3.01109 -3.34415 5
      vertex -2.25 -3.89711 -5
      vertex -3.01109 -3.34415 -5
    endloop
  endfacet
  facet normal 0.743145 0.66913 0
    outer loop
      vertex -3.64058 -2.64503 5
      vertex -3.01109 -3.34415 5
      vertex -3.01109 -3.34415 -5
    endloop
  endfacet
  facet normal 0.743145 0.66913 0
    outer loop
      vertex -3.64058 -2.64503 -5
      vertex -3.64058 -2.64503 5
      vertex -3.01109 -3.34415 -5
    endloop
  endfacet
  facet normal 0.866025 0.500001 0
    outer loop
      vertex -4.11095 -1.83031 5
      vertex -3.64058 -2.64503 5
      vertex -3.64058 -2.64503 -5
    endloop
  endfacet
  facet normal 0.866025 0.500001 0
    outer loop
      vertex -4.11095 -1.83031 -5
      vertex -4.11095 -1.83031 5
      vertex -3.64058 -2.64503 -5
    endloop
  endfacet
  facet normal 0.951057 0.309016 0
    outer loop
      vertex -4.40166 -0.935603 5
      vertex -4.11095 -1.83031 5
      vertex -4.11095 -1.83031 -5
    endloop
  endfacet
  facet normal 0.951057 0.309016 0
    outer loop
      vertex -4.40166 -0.935603 -5
      vertex -4.40166 -0.935603 5
      vertex -4.11095 -1.83031 -5
    endloop
  endfacet
  facet normal 0.994522 0.104529 0
    outer loop
      vertex 7.5 0 5
      vertex 7.55463 -0.519779 5
      vertex 7.55463 -0.519779 -5
    endloop
  endfacet
  facet normal 0.994522 0.104529 0
    outer loop
      vertex 7.5 0 -5
      vertex 7.5 0 5
      vertex 7.55463 -0.519779 -5
    endloop
  endfacet
  facet normal 0.994522 -0.104529 0
    outer loop
      vertex 7.55463 0.519779 -5
      vertex 7.55463 0.519779 5
      vertex 7.5 0 5
    endloop
  endfacet
  facet normal 0.994522 -0.104529 0
    outer loop
      vertex 7.5 0 -5
      vertex 7.55463 0.519779 -5
      vertex 7.5 0 5
    endloop
  endfacet
  facet normal 0.951057 -0.309016 0
    outer loop
      vertex 7.71614 1.01684 -5
      vertex 7.71614 1.01684 5
      vertex 7.55463 0.519779 5
    endloop
  endfacet
  facet normal 0.951057 -0.309016 0
    outer loop
      vertex 7.55463 0.519779 -5
      vertex 7.71614 1.01684 -5
      vertex 7.55463 0.519779 5
    endloop
  endfacet
  facet normal 0.866024 -0.500002 0
    outer loop
      vertex 7.97746 1.46946 -5
      vertex 7.97746 1.46946 5
      vertex 7.71614 1.01684 5
    endloop
  endfacet
  facet normal 0.866024 -0.500002 0
    outer loop
      vertex 7.71614 1.01684 -5
      vertex 7.97746 1.46946 -5
      vertex 7.71614 1.01684 5
    endloop
  endfacet
  facet normal 0.743146 -0.66913 0
    outer loop
      vertex 8.32717 1.85786 -5
      vertex 8.32717 1.85786 5
      vertex 7.97746 1.46946 5
    endloop
  endfacet
  facet normal 0.743146 -0.66913 0
    outer loop
      vertex 7.97746 1.46946 -5
      vertex 8.32717 1.85786 -5
      vertex 7.97746 1.46946 5
    endloop
  endfacet
  facet normal 0.587786 -0.809017 0
    outer loop
      vertex 8.75 2.16506 -5
      vertex 8.75 2.16506 5
      vertex 8.32717 1.85786 5
    endloop
  endfacet
  facet normal 0.587786 -0.809017 0
    outer loop
      vertex 8.32717 1.85786 -5
      vertex 8.75 2.16506 -5
      vertex 8.32717 1.85786 5
    endloop
  endfacet
  facet normal 0.406735 -0.913546 0
    outer loop
      vertex 9.22746 2.37764 -5
      vertex 9.22746 2.37764 5
      vertex 8.75 2.16506 5
    endloop
  endfacet
  facet normal 0.406735 -0.913546 0
    outer loop
      vertex 8.75 2.16506 -5
      vertex 9.22746 2.37764 -5
      vertex 8.75 2.16506 5
    endloop
  endfacet
  facet normal 0.207913 -0.978147 0
    outer loop
      vertex 9.73868 2.4863 -5
      vertex 9.73868 2.4863 5
      vertex 9.22746 2.37764 5
    endloop
  endfacet
  facet normal 0.207913 -0.978147 0
    outer loop
      vertex 9.22746 2.37764 -5
      vertex 9.73868 2.4863 -5
      vertex 9.22746 2.37764 5
    endloop
  endfacet
  facet normal 0 -1 0
    outer loop
      vertex 10.2613 2.4863 -5
      vertex 10.2613 2.4863 5
      vertex 9.73868 2.4863 5
    endloop
  endfacet
  facet normal 0 -1 0
    outer loop
      vertex 9.73868 2.4863 -5
      vertex 10.2613 2.4863 -5
      vertex 9.73868 2.4863 5
    endloop
  endfacet
  facet normal -0.207913 -0.978147 0
    outer loop
      vertex 10.7725 2.37764 -5
      vertex 10.7725 2.37764 5
      vertex 10.2613 2.4863 5
    endloop
  endfacet
  facet normal -0.207913 -0.978147 0
    outer loop
      vertex 10.2613 2.4863 -5
      vertex 10.7725 2.37764 -5
      vertex 10.2613 2.4863 5
    endloop
  endfacet
  facet normal -0.406735 -0.913546 0
    outer loop
      vertex 11.25 2.16506 -5
      vertex 11.25 2.16506 5
      vertex 10.7725 2.37764 5
    endloop
  endfacet
  facet normal -0.406735 -0.913546 0
    outer loop
      vertex 10.7725 2.37764 -5
      vertex 11.25 2.16506 -5
      vertex 10.7725 2.37764 5
    endloop
  endfacet
  facet normal -0.587786 -0.809017 0
    outer loop
      vertex 11.6728 1.85786 -5
      vertex 11.6728 1.85786 5
      vertex 11.25 2.16506 5
    endloop
  endfacet
  facet normal -0.587786 -0.809017 0
    outer loop
      vertex 11.25 2.16506 -5
      vertex 11.6728 1.85786 -5
      vertex 11.25 2.16506 5
    endloop
  endfacet
  facet normal -0.743146 -0.66913 0
    outer loop
      vertex 12.0225 1.46946 5
      vertex 11.6728 1.85786 5
      vertex 12.0225 1.46946 -5
    endloop
  endfacet
  facet normal -0.743146 -0.66913 0
    outer loop
      vertex 12.0225 1.46946 -5
      vertex 11.6728 1.85786 5
      vertex 11.6728 1.85786 -5
    endloop
  endfacet
  facet normal -0.866024 -0.500002 0
    outer loop
      vertex 12.2839 1.01684 5
      vertex 12.0225 1.46946 5
      vertex 12.2839 1.01684 -5
    endloop
  endfacet
  facet normal -0.866024 -0.500002 0
    outer loop
      vertex 12.2839 1.01684 -5
      vertex 12.0225 1.46946 5
      vertex 12.0225 1.46946 -5
    endloop
  endfacet
  facet normal -0.951057 -0.309016 0
    outer loop
      vertex 12.4454 0.519779 5
      vertex 12.2839 1.01684 5
      vertex 12.4454 0.519779 -5
    endloop
  endfacet
  facet normal -0.951057 -0.309016 0
    outer loop
      vertex 12.4454 0.519779 -5
      vertex 12.2839 1.01684 5
      vertex 12.2839 1.01684 -5
    endloop
  endfacet
  facet normal -0.994522 -0.104529 0
    outer loop
      vertex 12.5 0 5
      vertex 12.4454 0.519779 5
      vertex 12.5 0 -5
    endloop
  endfacet
  facet normal -0.994522 -0.104529 0
    outer loop
      vertex 12.5 0 -5
      vertex 12.4454 0.519779 5
      vertex 12.4454 0.519779 -5
    endloop
  endfacet
  facet normal -0.994522 0.104529 0
    outer loop
      vertex 12.5 0 5
      vertex 12.5 0 -5
      vertex 12.4454 -0.519779 5
    endloop
  endfacet
  facet normal -0.994522 0.104529 0
    outer loop
      vertex 12.4454 -0.519779 5
      vertex 12.5 0 -5
      vertex 12.4454 -0.519779 -5
    endloop
  endfacet
  facet normal -0.951057 0.309016 0
    outer loop
      vertex 12.4454 -0.519779 5
      vertex 12.4454 -0.519779 -5
      vertex 12.2839 -1.01684 5
    endloop
  endfacet
  facet normal -0.951057 0.309016 0
    outer loop
      vertex 12.2839 -1.01684 5
      vertex 12.4454 -0.519779 -5
      vertex 12.2839 -1.01684 -5
    endloop
  endfacet
  facet normal -0.866024 0.500002 0
    outer loop
      vertex 12.2839 -1.01684 5
      vertex 12.2839 -1.01684 -5
      vertex 12.0225 -1.46946 5
    endloop
  endfacet
  facet normal -0.866024 0.500002 0
    outer loop
      vertex 12.0225 -1.46946 5
      vertex 12.2839 -1.01684 -5
      vertex 12.0225 -1.46946 -5
    endloop
  endfacet
  facet normal -0.743146 0.66913 0
    outer loop
      vertex 12.0225 -1.46946 5
      vertex 12.0225 -1.46946 -5
      vertex 11.6728 -1.85786 5
    endloop
  endfacet
  facet normal -0.743146 0.66913 0
    outer loop
      vertex 11.6728 -1.85786 5
      vertex 12.0225 -1.46946 -5
      vertex 11.6728 -1.85786 -5
    endloop
  endfacet
  facet normal -0.587786 0.809017 0
    outer loop
      vertex 11.6728 -1.85786 5
      vertex 11.6728 -1.85786 -5
      vertex 11.25 -2.16506 5
    endloop
  endfacet
  facet normal -0.587786 0.809017 0
    outer loop
      vertex 11.25 -2.16506 5
      vertex 11.6728 -1.85786 -5
      vertex 11.25 -2.16506 -5
    endloop
  endfacet
  facet normal -0.406735 0.913546 0
    outer loop
      vertex 11.25 -2.16506 5
      vertex 11.25 -2.16506 -5
      vertex 10.7725 -2.37764 5
    endloop
  endfacet
  facet normal -0.406735 0.913546 0
    outer loop
      vertex 10.7725 -2.37764 5
      vertex 11.25 -2.16506 -5
      vertex 10.7725 -2.37764 -5
    endloop
  endfacet
  facet normal -0.207913 0.978147 0
    outer loop
      vertex 10.7725 -2.37764 5
      vertex 10.7725 -2.37764 -5
      vertex 10.2613 -2.4863 5
    endloop
  endfacet
  facet normal -0.207913 0.978147 0
    outer loop
      vertex 10.2613 -2.4863 5
      vertex 10.7725 -2.37764 -5
      vertex 10.2613 -2.4863 -5
    endloop
  endfacet
  facet normal 0 1 0
    outer loop
      vertex 10.2613 -2.4863 5
      vertex 10.2613 -2.4863 -5
      vertex 9.73868 -2.4863 5
    endloop
  endfacet
  facet normal 0 1 0
    outer loop
      vertex 9.73868 -2.4863 5
      vertex 10.2613 -2.4863 -5
      vertex 9.73868 -2.4863 -5
    endloop
  endfacet
  facet normal 0.207913 0.978147 0
    outer loop
      vertex 9.73868 -2.4863 5
      vertex 9.73868 -2.4863 -5
      vertex 9.22746 -2.37764 5
    endloop
  endfacet
  facet normal 0.207913 0.978147 0
    outer loop
      vertex 9.22746 -2.37764 5
      vertex 9.73868 -2.4863 -5
      vertex 9.22746 -2.37764 -5
    endloop
  endfacet
  facet normal 0.406735 0.913546 0
    outer loop
      vertex 9.22746 -2.37764 5
      vertex 9.22746 -2.37764 -5
      vertex 8.75 -2.16506 5
    endloop
  endfacet
  facet normal 0.406735 0.913546 0
    outer loop
      vertex 8.75 -2.16506 5
      vertex 9.22746 -2.37764 -5
      vertex 8.75 -2.16506 -5
    endloop
  endfacet
  facet normal 0.587786 0.809017 0
    outer loop
      vertex 8.75 -2.16506 5
      vertex 8.75 -2.16506 -5
      vertex 8.32717 -1.85786 5
    endloop
  endfacet
  facet normal 0.587786 0.809017 0
    outer loop
      vertex 8.32717 -1.85786 5
      vertex 8.75 -2.16506 -5
      vertex 8.32717 -1.85786 -5
    endloop
  endfacet
  facet normal 0.743146 0.66913 0
    outer loop
      vertex 7.97746 -1.46946 5
      vertex 8.32717 -1.85786 5
      vertex 8.32717 -1.85786 -5
    endloop
  endfacet
  facet normal 0.743146 0.66913 0
    outer loop
      vertex 7.97746 -1.46946 -5
      vertex 7.97746 -1.46946 5
      vertex 8.32717 -1.85786 -5
    endloop
  endfacet
  facet normal 0.866024 0.500002 0
    outer loop
      vertex 7.71614 -1.01684 5
      vertex 7.97746 -1.46946 5
      vertex 7.97746 -1.46946 -5
    endloop
  endfacet
  facet normal 0.866024 0.500002 0
    outer loop
      vertex 7.71614 -1.01684 -5
      vertex 7.71614 -1.01684 5
      vertex 7.97746 -1.46946 -5
    endloop
  endfacet
  facet normal 0.951057 0.309016 0
    outer loop
      vertex 7.55463 -0.519779 5
      vertex 7.71614 -1.01684 5
      vertex 7.71614 -1.01684 -5
    endloop
  endfacet
  facet normal 0.951057 0.309016 0
    outer loop
      vertex 7.55463 -0.519779 -5
      vertex 7.55463 -0.519779 5
      vertex 7.71614 -1.01684 -5
    endloop
  endfacet
endsolid OpenSCAD_Model
