solid OpenSCAD_Model
  facet normal 0 0 -1
    outer loop
      vertex -14.5 0 0
      vertex -14.3215 2.2683 0
      vertex -14.3215 -2.2683 0
    endloop
  endfacet
  facet normal 0 0 -1
    outer loop
      vertex -14.3215 -2.2683 0
      vertex -14.3215 2.2683 0
      vertex -13.7903 4.48075 0
    endloop
  endfacet
  facet normal 0 0 -1
    outer loop
      vertex -14.3215 -2.2683 0
      vertex -13.7903 4.48075 0
      vertex -12.9196 6.58286 0
    endloop
  endfacet
  facet normal 0 0 -1
    outer loop
      vertex -14.3215 -2.2683 0
      vertex -12.9196 6.58286 0
      vertex -11.7307 8.52289 0
    endloop
  endfacet
  facet normal 0 0 -1
    outer loop
      vertex -14.3215 -2.2683 0
      vertex -11.7307 8.52289 0
      vertex -10.253 10.253 0
    endloop
  endfacet
  facet normal 0 0 -1
    outer loop
      vertex -14.3215 -2.2683 0
      vertex -10.253 10.253 0
      vertex -8.52289 11.7307 0
    endloop
  endfacet
  facet normal 0 0 -1
    outer loop
      vertex -14.3215 -2.2683 0
      vertex -8.52289 11.7307 0
      vertex -6.58286 12.9196 0
    endloop
  endfacet
  facet normal 0 0 -1
    outer loop
      vertex -14.3215 -2.2683 0
      vertex -6.58286 12.9196 0
      vertex -4.48075 13.7903 0
    endloop
  endfacet
  facet normal 0 0 -1
    outer loop
      vertex -14.3215 -2.2683 0
      vertex -4.48075 13.7903 0
      vertex -2.2683 14.3215 0
    endloop
  endfacet
  facet normal 0 0 -1
    outer loop
      vertex -14.3215 -2.2683 0
      vertex -2.2683 14.3215 0
      vertex 0 14.5 0
    endloop
  endfacet
  facet normal 0 0 -1
    outer loop
      vertex -14.3215 -2.2683 0
      vertex 0 14.5 0
      vertex 2.2683 14.3215 0
    endloop
  endfacet
  facet normal 0 0 -1
    outer loop
      vertex -14.3215 -2.2683 0
      vertex 2.2683 14.3215 0
      vertex 4.48075 13.7903 0
    endloop
  endfacet
  facet normal 0 0 -1
    outer loop
      vertex -14.3215 -2.2683 0
      vertex 4.48075 13.7903 0
      vertex 6.58286 12.9196 0
    endloop
  endfacet
  facet normal 0 0 -1
    outer loop
      vertex -14.3215 -2.2683 0
      vertex 6.58286 12.9196 0
      vertex 8.52289 11.7307 0
    endloop
  endfacet
  facet normal 0 0 -1
    outer loop
      vertex -2.04296 4.00953 0
      vertex 8.52289 11.7307 0
      vertex 10.253 10.253 0
    endloop
  endfacet
  facet normal 0 0 -1
    outer loop
      vertex 1.39058 4.27975 0
      vertex 10.253 10.253 0
      vertex 11.7307 8.52289 0
    endloop
  endfacet
  facet normal 0 0 -1
    outer loop
      vertex 2.64503 3.64058 0
      vertex 11.7307 8.52289 0
      vertex 12.9196 6.58286 0
    endloop
  endfacet
  facet normal 0 0 -1
    outer loop
      vertex 3.64058 2.64503 0
      vertex 12.9196 6.58286 0
      vertex 13.7903 4.48075 0
    endloop
  endfacet
  facet normal 0 0 -1
    outer loop
      vertex 4.27975 1.39058 0
      vertex 13.7903 4.48075 0
      vertex 14.3215 2.2683 0
    endloop
  endfacet
  facet normal 0 0 -1
    outer loop
      vertex 4.4446 -0.703955 0
      vertex 14.3215 2.2683 0
      vertex 14.5 0 0
    endloop
  endfacet
  facet normal 0 0 -1
    outer loop
      vertex 4.00953 -2.04296 0
      vertex 14.5 0 0
      vertex 14.3215 -2.2683 0
    endloop
  endfacet
  facet normal 0 0 -1
    outer loop
      vertex 3.18198 -3.18198 0
      vertex 14.3215 -2.2683 0
      vertex 13.7903 -4.48075 0
    endloop
  endfacet
  facet normal 0 0 -1
    outer loop
      vertex 2.04296 -4.00953 0
      vertex 13.7903 -4.48075 0
      vertex 12.9196 -6.58286 0
    endloop
  endfacet
  facet normal 0 0 -1
    outer loop
      vertex -0.703955 -4.4446 0
      vertex 12.9196 -6.58286 0
      vertex 11.7307 -8.52289 0
    endloop
  endfacet
  facet normal 0 0 -1
    outer loop
      vertex -14.3215 -2.2683 0
      vertex 11.7307 -8.52289 0
      vertex 10.253 -10.253 0
    endloop
  endfacet
  facet normal 0 0 -1
    outer loop
      vertex -14.3215 -2.2683 0
      vertex 10.253 -10.253 0
      vertex 8.52289 -11.7307 0
    endloop
  endfacet
  facet normal 0 0 -1
    outer loop
      vertex -14.3215 -2.2683 0
      vertex 8.52289 -11.7307 0
      vertex 6.58286 -12.9196 0
    endloop
  endfacet
  facet normal 0 0 -1
    outer loop
      vertex -14.3215 -2.2683 0
      vertex 6.58286 -12.9196 0
      vertex 4.48075 -13.7903 0
    endloop
  endfacet
  facet normal 0 0 -1
    outer loop
      vertex -14.3215 -2.2683 0
      vertex 4.48075 -13.7903 0
      vertex 2.2683 -14.3215 0
    endloop
  endfacet
  facet normal 0 0 -1
    outer loop
      vertex -14.3215 -2.2683 0
      vertex 2.2683 -14.3215 0
      vertex 0 -14.5 0
    endloop
  endfacet
  facet normal 0 0 -1
    outer loop
      vertex -14.3215 -2.2683 0
      vertex 0 -14.5 0
      vertex -2.2683 -14.3215 0
    endloop
  endfacet
  facet normal 0 0 -1
    outer loop
      vertex -14.3215 -2.2683 0
      vertex -2.2683 -14.3215 0
      vertex -4.48075 -13.7903 0
    endloop
  endfacet
  facet normal 0 0 -1
    outer loop
      vertex -14.3215 -2.2683 0
      vertex -4.48075 -13.7903 0
      vertex -6.58286 -12.9196 0
    endloop
  endfacet
  facet normal 0 0 -1
    outer loop
      vertex -14.3215 -2.2683 0
      vertex -6.58286 -12.9196 0
      vertex -8.52289 -11.7307 0
    endloop
  endfacet
  facet normal 0 0 -1
    outer loop
      vertex -14.3215 -2.2683 0
      vertex -8.52289 -11.7307 0
      vertex -10.253 -10.253 0
    endloop
  endfacet
  facet normal 0 0 -1
    outer loop
      vertex -14.3215 -2.2683 0
      vertex -10.253 -10.253 0
      vertex -11.7307 -8.52289 0
    endloop
  endfacet
  facet normal 0 0 -1
    outer loop
      vertex -14.3215 -2.2683 0
      vertex -11.7307 -8.52289 0
      vertex -12.9196 -6.58286 0
    endloop
  endfacet
  facet normal 0 0 -1
    outer loop
      vertex -14.3215 -2.2683 0
      vertex -12.9196 -6.58286 0
      vertex -13.7903 -4.48075 0
    endloop
  endfacet
  facet normal 0 0 -1
    outer loop
      vertex -4.27975 -1.39058 0
      vertex -14.3215 -2.2683 0
      vertex -4.4446 -0.703955 0
    endloop
  endfacet
  facet normal 0 0 -1
    outer loop
      vertex -14.3215 -2.2683 0
      vertex -4.5 0 0
      vertex -4.4446 -0.703955 0
    endloop
  endfacet
  facet normal 0 0 -1
    outer loop
      vertex 4.27975 1.39058 0
      vertex 14.3215 2.2683 0
      vertex 4.4446 0.703955 0
    endloop
  endfacet
  facet normal 0 0 -1
    outer loop
      vertex -3.64058 -2.64503 0
      vertex -14.3215 -2.2683 0
      vertex -4.00953 -2.04296 0
    endloop
  endfacet
  facet normal 0 0 -1
    outer loop
      vertex -3.18198 -3.18198 0
      vertex -14.3215 -2.2683 0
      vertex -3.64058 -2.64503 0
    endloop
  endfacet
  facet normal 0 0 -1
    outer loop
      vertex -0.703955 -4.4446 0
      vertex -14.3215 -2.2683 0
      vertex -1.39058 -4.27975 0
    endloop
  endfacet
  facet normal 0 0 -1
    outer loop
      vertex -14.3215 -2.2683 0
      vertex -3.18198 -3.18198 0
      vertex -2.64503 -3.64058 0
    endloop
  endfacet
  facet normal 0 0 -1
    outer loop
      vertex -14.3215 -2.2683 0
      vertex -2.64503 -3.64058 0
      vertex -2.04296 -4.00953 0
    endloop
  endfacet
  facet normal 0 0 -1
    outer loop
      vertex -14.3215 -2.2683 0
      vertex -2.04296 -4.00953 0
      vertex -1.39058 -4.27975 0
    endloop
  endfacet
  facet normal 0 0 -1
    outer loop
      vertex 0 -4.5 0
      vertex 12.9196 -6.58286 0
      vertex -0.703955 -4.4446 0
    endloop
  endfacet
  facet normal 0 0 -1
    outer loop
      vertex -14.3215 -2.2683 0
      vertex -0.703955 -4.4446 0
      vertex 11.7307 -8.52289 0
    endloop
  endfacet
  facet normal 0 0 -1
    outer loop
      vertex 0.703955 -4.4446 0
      vertex 12.9196 -6.58286 0
      vertex 0 -4.5 0
    endloop
  endfacet
  facet normal 0 0 -1
    outer loop
      vertex 1.39058 -4.27975 0
      vertex 12.9196 -6.58286 0
      vertex 0.703955 -4.4446 0
    endloop
  endfacet
  facet normal 0 0 -1
    outer loop
      vertex 2.04296 -4.00953 0
      vertex 12.9196 -6.58286 0
      vertex 1.39058 -4.27975 0
    endloop
  endfacet
  facet normal 0 0 -1
    outer loop
      vertex 2.64503 -3.64058 0
      vertex 13.7903 -4.48075 0
      vertex 2.04296 -4.00953 0
    endloop
  endfacet
  facet normal 0 0 -1
    outer loop
      vertex 3.18198 -3.18198 0
      vertex 13.7903 -4.48075 0
      vertex 2.64503 -3.64058 0
    endloop
  endfacet
  facet normal 0 0 -1
    outer loop
      vertex 3.64058 -2.64503 0
      vertex 14.3215 -2.2683 0
      vertex 3.18198 -3.18198 0
    endloop
  endfacet
  facet normal 0 0 -1
    outer loop
      vertex 4.00953 -2.04296 0
      vertex 14.3215 -2.2683 0
      vertex 3.64058 -2.64503 0
    endloop
  endfacet
  facet normal 0 0 -1
    outer loop
      vertex 4.27975 -1.39058 0
      vertex 14.5 0 0
      vertex 4.00953 -2.04296 0
    endloop
  endfacet
  facet normal 0 0 -1
    outer loop
      vertex 4.4446 -0.703955 0
      vertex 14.5 0 0
      vertex 4.27975 -1.39058 0
    endloop
  endfacet
  facet normal 0 0 -1
    outer loop
      vertex 4.5 0 0
      vertex 14.3215 2.2683 0
      vertex 4.4446 -0.703955 0
    endloop
  endfacet
  facet normal 0 0 -1
    outer loop
      vertex 4.4446 0.703955 0
      vertex 14.3215 2.2683 0
      vertex 4.5 0 0
    endloop
  endfacet
  facet normal 0 0 -1
    outer loop
      vertex -4.00953 -2.04296 0
      vertex -14.3215 -2.2683 0
      vertex -4.27975 -1.39058 0
    endloop
  endfacet
  facet normal 0 0 -1
    outer loop
      vertex 4.00953 2.04296 0
      vertex 13.7903 4.48075 0
      vertex 4.27975 1.39058 0
    endloop
  endfacet
  facet normal 0 0 -1
    outer loop
      vertex 3.64058 2.64503 0
      vertex 13.7903 4.48075 0
      vertex 4.00953 2.04296 0
    endloop
  endfacet
  facet normal 0 0 -1
    outer loop
      vertex 3.18198 3.18198 0
      vertex 12.9196 6.58286 0
      vertex 3.64058 2.64503 0
    endloop
  endfacet
  facet normal 0 0 -1
    outer loop
      vertex 2.04296 4.00953 0
      vertex 11.7307 8.52289 0
      vertex 2.64503 3.64058 0
    endloop
  endfacet
  facet normal 0 0 -1
    outer loop
      vertex 1.39058 4.27975 0
      vertex 11.7307 8.52289 0
      vertex 2.04296 4.00953 0
    endloop
  endfacet
  facet normal 0 0 -1
    outer loop
      vertex 0.703955 4.4446 0
      vertex 10.253 10.253 0
      vertex 1.39058 4.27975 0
    endloop
  endfacet
  facet normal 0 0 -1
    outer loop
      vertex -2.04296 4.00953 0
      vertex 10.253 10.253 0
      vertex -1.39058 4.27975 0
    endloop
  endfacet
  facet normal 0 0 -1
    outer loop
      vertex 0 4.5 0
      vertex 10.253 10.253 0
      vertex 0.703955 4.4446 0
    endloop
  endfacet
  facet normal 0 0 -1
    outer loop
      vertex -0.703955 4.4446 0
      vertex 10.253 10.253 0
      vertex 0 4.5 0
    endloop
  endfacet
  facet normal 0 0 -1
    outer loop
      vertex -1.39058 4.27975 0
      vertex 10.253 10.253 0
      vertex -0.703955 4.4446 0
    endloop
  endfacet
  facet normal 0 0 -1
    outer loop
      vertex -14.3215 -2.2683 0
      vertex 8.52289 11.7307 0
      vertex -2.04296 4.00953 0
    endloop
  endfacet
  facet normal 0 0 -1
    outer loop
      vertex -2.64503 3.64058 0
      vertex -14.3215 -2.2683 0
      vertex -2.04296 4.00953 0
    endloop
  endfacet
  facet normal 0 0 -1
    outer loop
      vertex -3.18198 3.18198 0
      vertex -14.3215 -2.2683 0
      vertex -2.64503 3.64058 0
    endloop
  endfacet
  facet normal 0 0 -1
    outer loop
      vertex -3.64058 2.64503 0
      vertex -14.3215 -2.2683 0
      vertex -3.18198 3.18198 0
    endloop
  endfacet
  facet normal 0 0 -1
    outer loop
      vertex -4.00953 2.04296 0
      vertex -14.3215 -2.2683 0
      vertex -3.64058 2.64503 0
    endloop
  endfacet
  facet normal 0 0 -1
    outer loop
      vertex -4.27975 1.39058 0
      vertex -14.3215 -2.2683 0
      vertex -4.00953 2.04296 0
    endloop
  endfacet
  facet normal 0 0 -1
    outer loop
      vertex -4.4446 0.703955 0
      vertex -14.3215 -2.2683 0
      vertex -4.27975 1.39058 0
    endloop
  endfacet
  facet normal 0 0 -1
    outer loop
      vertex -4.5 0 0
      vertex -14.3215 -2.2683 0
      vertex -4.4446 0.703955 0
    endloop
  endfacet
  facet normal 0 0 -1
    outer loop
      vertex 2.64503 3.64058 0
      vertex 12.9196 6.58286 0
      vertex 3.18198 3.18198 0
    endloop
  endfacet
  facet normal -0.996917 0.0784591 0
    outer loop
      vertex -14.5 0 0
      vertex -14.5 0 5
      vertex -14.3215 2.2683 0
    endloop
  endfacet
  facet normal -0.996917 0.0784591 0
    outer loop
      vertex -14.3215 2.2683 0
      vertex -14.5 0 5
      vertex -14.3215 2.2683 5
    endloop
  endfacet
  facet normal -0.996917 -0.0784591 0
    outer loop
      vertex -14.5 0 0
      vertex -14.3215 -2.2683 0
      vertex -14.5 0 5
    endloop
  endfacet
  facet normal -0.996917 -0.0784591 0
    outer loop
      vertex -14.5 0 5
      vertex -14.3215 -2.2683 0
      vertex -14.3215 -2.2683 5
    endloop
  endfacet
  facet normal -0.97237 -0.233446 0
    outer loop
      vertex -14.3215 -2.2683 0
      vertex -13.7903 -4.48075 0
      vertex -14.3215 -2.2683 5
    endloop
  endfacet
  facet normal -0.97237 -0.233446 0
    outer loop
      vertex -14.3215 -2.2683 5
      vertex -13.7903 -4.48075 0
      vertex -13.7903 -4.48075 5
    endloop
  endfacet
  facet normal -0.92388 -0.382683 0
    outer loop
      vertex -13.7903 -4.48075 0
      vertex -12.9196 -6.58286 0
      vertex -13.7903 -4.48075 5
    endloop
  endfacet
  facet normal -0.92388 -0.382683 0
    outer loop
      vertex -13.7903 -4.48075 5
      vertex -12.9196 -6.58286 0
      vertex -12.9196 -6.58286 5
    endloop
  endfacet
  facet normal -0.85264 -0.522499 0
    outer loop
      vertex -12.9196 -6.58286 0
      vertex -11.7307 -8.52289 0
      vertex -12.9196 -6.58286 5
    endloop
  endfacet
  facet normal -0.85264 -0.522499 0
    outer loop
      vertex -12.9196 -6.58286 5
      vertex -11.7307 -8.52289 0
      vertex -11.7307 -8.52289 5
    endloop
  endfacet
  facet normal -0.760406 -0.649448 0
    outer loop
      vertex -11.7307 -8.52289 0
      vertex -10.253 -10.253 0
      vertex -11.7307 -8.52289 5
    endloop
  endfacet
  facet normal -0.760406 -0.649448 0
    outer loop
      vertex -11.7307 -8.52289 5
      vertex -10.253 -10.253 0
      vertex -10.253 -10.253 5
    endloop
  endfacet
  facet normal -0.649448 -0.760406 0
    outer loop
      vertex -10.253 -10.253 5
      vertex -10.253 -10.253 0
      vertex -8.52289 -11.7307 0
    endloop
  endfacet
  facet normal -0.649448 -0.760406 0
    outer loop
      vertex -8.52289 -11.7307 5
      vertex -10.253 -10.253 5
      vertex -8.52289 -11.7307 0
    endloop
  endfacet
  facet normal -0.522499 -0.85264 0
    outer loop
      vertex -8.52289 -11.7307 5
      vertex -8.52289 -11.7307 0
      vertex -6.58286 -12.9196 0
    endloop
  endfacet
  facet normal -0.522499 -0.85264 0
    outer loop
      vertex -6.58286 -12.9196 5
      vertex -8.52289 -11.7307 5
      vertex -6.58286 -12.9196 0
    endloop
  endfacet
  facet normal -0.382683 -0.92388 0
    outer loop
      vertex -6.58286 -12.9196 5
      vertex -6.58286 -12.9196 0
      vertex -4.48075 -13.7903 0
    endloop
  endfacet
  facet normal -0.382683 -0.92388 0
    outer loop
      vertex -4.48075 -13.7903 5
      vertex -6.58286 -12.9196 5
      vertex -4.48075 -13.7903 0
    endloop
  endfacet
  facet normal -0.233446 -0.97237 0
    outer loop
      vertex -4.48075 -13.7903 5
      vertex -4.48075 -13.7903 0
      vertex -2.2683 -14.3215 0
    endloop
  endfacet
  facet normal -0.233446 -0.97237 0
    outer loop
      vertex -2.2683 -14.3215 5
      vertex -4.48075 -13.7903 5
      vertex -2.2683 -14.3215 0
    endloop
  endfacet
  facet normal -0.0784591 -0.996917 0
    outer loop
      vertex -2.2683 -14.3215 5
      vertex -2.2683 -14.3215 0
      vertex 0 -14.5 0
    endloop
  endfacet
  facet normal -0.0784591 -0.996917 0
    outer loop
      vertex 0 -14.5 5
      vertex -2.2683 -14.3215 5
      vertex 0 -14.5 0
    endloop
  endfacet
  facet normal 0.0784591 -0.996917 0
    outer loop
      vertex 0 -14.5 5
      vertex 0 -14.5 0
      vertex 2.2683 -14.3215 0
    endloop
  endfacet
  facet normal 0.0784591 -0.996917 0
    outer loop
      vertex 2.2683 -14.3215 5
      vertex 0 -14.5 5
      vertex 2.2683 -14.3215 0
    endloop
  endfacet
  facet normal 0.233446 -0.97237 0
    outer loop
      vertex 2.2683 -14.3215 5
      vertex 2.2683 -14.3215 0
      vertex 4.48075 -13.7903 0
    endloop
  endfacet
  facet normal 0.233446 -0.97237 0
    outer loop
      vertex 4.48075 -13.7903 5
      vertex 2.2683 -14.3215 5
      vertex 4.48075 -13.7903 0
    endloop
  endfacet
  facet normal 0.382683 -0.92388 0
    outer loop
      vertex 4.48075 -13.7903 5
      vertex 4.48075 -13.7903 0
      vertex 6.58286 -12.9196 0
    endloop
  endfacet
  facet normal 0.382683 -0.92388 0
    outer loop
      vertex 6.58286 -12.9196 5
      vertex 4.48075 -13.7903 5
      vertex 6.58286 -12.9196 0
    endloop
  endfacet
  facet normal 0.522499 -0.85264 0
    outer loop
      vertex 6.58286 -12.9196 5
      vertex 6.58286 -12.9196 0
      vertex 8.52289 -11.7307 0
    endloop
  endfacet
  facet normal 0.522499 -0.85264 0
    outer loop
      vertex 8.52289 -11.7307 5
      vertex 6.58286 -12.9196 5
      vertex 8.52289 -11.7307 0
    endloop
  endfacet
  facet normal 0.649448 -0.760406 0
    outer loop
      vertex 8.52289 -11.7307 5
      vertex 8.52289 -11.7307 0
      vertex 10.253 -10.253 0
    endloop
  endfacet
  facet normal 0.649448 -0.760406 0
    outer loop
      vertex 10.253 -10.253 5
      vertex 8.52289 -11.7307 5
      vertex 10.253 -10.253 0
    endloop
  endfacet
  facet normal 0.760406 -0.649448 0
    outer loop
      vertex 10.253 -10.253 5
      vertex 10.253 -10.253 0
      vertex 11.7307 -8.52289 0
    endloop
  endfacet
  facet normal 0.760406 -0.649448 0
    outer loop
      vertex 11.7307 -8.52289 5
      vertex 10.253 -10.253 5
      vertex 11.7307 -8.52289 0
    endloop
  endfacet
  facet normal 0.85264 -0.522499 0
    outer loop
      vertex 11.7307 -8.52289 5
      vertex 11.7307 -8.52289 0
      vertex 12.9196 -6.58286 0
    endloop
  endfacet
  facet normal 0.85264 -0.522499 0
    outer loop
      vertex 12.9196 -6.58286 5
      vertex 11.7307 -8.52289 5
      vertex 12.9196 -6.58286 0
    endloop
  endfacet
  facet normal 0.92388 -0.382683 0
    outer loop
      vertex 12.9196 -6.58286 5
      vertex 12.9196 -6.58286 0
      vertex 13.7903 -4.48075 0
    endloop
  endfacet
  facet normal 0.92388 -0.382683 0
    outer loop
      vertex 13.7903 -4.48075 5
      vertex 12.9196 -6.58286 5
      vertex 13.7903 -4.48075 0
    endloop
  endfacet
  facet normal 0.97237 -0.233446 0
    outer loop
      vertex 13.7903 -4.48075 5
      vertex 13.7903 -4.48075 0
      vertex 14.3215 -2.2683 0
    endloop
  endfacet
  facet normal 0.97237 -0.233446 0
    outer loop
      vertex 14.3215 -2.2683 5
      vertex 13.7903 -4.48075 5
      vertex 14.3215 -2.2683 0
    endloop
  endfacet
  facet normal 0.996917 -0.0784591 0
    outer loop
      vertex 14.3215 -2.2683 5
      vertex 14.3215 -2.2683 0
      vertex 14.5 0 0
    endloop
  endfacet
  facet normal 0.996917 -0.0784591 0
    outer loop
      vertex 14.5 0 5
      vertex 14.3215 -2.2683 5
      vertex 14.5 0 0
    endloop
  endfacet
  facet normal 0.996917 0.0784591 0
    outer loop
      vertex 14.5 0 0
      vertex 14.3215 2.2683 0
      vertex 14.3215 2.2683 5
    endloop
  endfacet
  facet normal 0.996917 0.0784591 0
    outer loop
      vertex 14.5 0 5
      vertex 14.5 0 0
      vertex 14.3215 2.2683 5
    endloop
  endfacet
  facet normal 0.97237 0.233446 0
    outer loop
      vertex 14.3215 2.2683 0
      vertex 13.7903 4.48075 0
      vertex 13.7903 4.48075 5
    endloop
  endfacet
  facet normal 0.97237 0.233446 0
    outer loop
      vertex 14.3215 2.2683 5
      vertex 14.3215 2.2683 0
      vertex 13.7903 4.48075 5
    endloop
  endfacet
  facet normal 0.92388 0.382683 0
    outer loop
      vertex 13.7903 4.48075 0
      vertex 12.9196 6.58286 0
      vertex 12.9196 6.58286 5
    endloop
  endfacet
  facet normal 0.92388 0.382683 0
    outer loop
      vertex 13.7903 4.48075 5
      vertex 13.7903 4.48075 0
      vertex 12.9196 6.58286 5
    endloop
  endfacet
  facet normal 0.85264 0.522499 0
    outer loop
      vertex 12.9196 6.58286 0
      vertex 11.7307 8.52289 0
      vertex 11.7307 8.52289 5
    endloop
  endfacet
  facet normal 0.85264 0.522499 0
    outer loop
      vertex 12.9196 6.58286 5
      vertex 12.9196 6.58286 0
      vertex 11.7307 8.52289 5
    endloop
  endfacet
  facet normal 0.760406 0.649448 0
    outer loop
      vertex 11.7307 8.52289 0
      vertex 10.253 10.253 0
      vertex 10.253 10.253 5
    endloop
  endfacet
  facet normal 0.760406 0.649448 0
    outer loop
      vertex 11.7307 8.52289 5
      vertex 11.7307 8.52289 0
      vertex 10.253 10.253 5
    endloop
  endfacet
  facet normal 0.649448 0.760406 0
    outer loop
      vertex 8.52289 11.7307 0
      vertex 8.52289 11.7307 5
      vertex 10.253 10.253 0
    endloop
  endfacet
  facet normal 0.649448 0.760406 0
    outer loop
      vertex 10.253 10.253 0
      vertex 8.52289 11.7307 5
      vertex 10.253 10.253 5
    endloop
  endfacet
  facet normal 0.522499 0.85264 0
    outer loop
      vertex 6.58286 12.9196 0
      vertex 6.58286 12.9196 5
      vertex 8.52289 11.7307 0
    endloop
  endfacet
  facet normal 0.522499 0.85264 0
    outer loop
      vertex 8.52289 11.7307 0
      vertex 6.58286 12.9196 5
      vertex 8.52289 11.7307 5
    endloop
  endfacet
  facet normal 0.382683 0.92388 0
    outer loop
      vertex 4.48075 13.7903 0
      vertex 4.48075 13.7903 5
      vertex 6.58286 12.9196 0
    endloop
  endfacet
  facet normal 0.382683 0.92388 0
    outer loop
      vertex 6.58286 12.9196 0
      vertex 4.48075 13.7903 5
      vertex 6.58286 12.9196 5
    endloop
  endfacet
  facet normal 0.233446 0.97237 0
    outer loop
      vertex 2.2683 14.3215 0
      vertex 2.2683 14.3215 5
      vertex 4.48075 13.7903 0
    endloop
  endfacet
  facet normal 0.233446 0.97237 0
    outer loop
      vertex 4.48075 13.7903 0
      vertex 2.2683 14.3215 5
      vertex 4.48075 13.7903 5
    endloop
  endfacet
  facet normal 0.0784591 0.996917 0
    outer loop
      vertex 0 14.5 0
      vertex 0 14.5 5
      vertex 2.2683 14.3215 0
    endloop
  endfacet
  facet normal 0.0784591 0.996917 0
    outer loop
      vertex 2.2683 14.3215 0
      vertex 0 14.5 5
      vertex 2.2683 14.3215 5
    endloop
  endfacet
  facet normal -0.0784591 0.996917 0
    outer loop
      vertex -2.2683 14.3215 0
      vertex -2.2683 14.3215 5
      vertex 0 14.5 0
    endloop
  endfacet
  facet normal -0.0784591 0.996917 0
    outer loop
      vertex 0 14.5 0
      vertex -2.2683 14.3215 5
      vertex 0 14.5 5
    endloop
  endfacet
  facet normal -0.233446 0.97237 0
    outer loop
      vertex -4.48075 13.7903 0
      vertex -4.48075 13.7903 5
      vertex -2.2683 14.3215 0
    endloop
  endfacet
  facet normal -0.233446 0.97237 0
    outer loop
      vertex -2.2683 14.3215 0
      vertex -4.48075 13.7903 5
      vertex -2.2683 14.3215 5
    endloop
  endfacet
  facet normal -0.382683 0.92388 0
    outer loop
      vertex -6.58286 12.9196 0
      vertex -6.58286 12.9196 5
      vertex -4.48075 13.7903 0
    endloop
  endfacet
  facet normal -0.382683 0.92388 0
    outer loop
      vertex -4.48075 13.7903 0
      vertex -6.58286 12.9196 5
      vertex -4.48075 13.7903 5
    endloop
  endfacet
  facet normal -0.522499 0.85264 0
    outer loop
      vertex -8.52289 11.7307 0
      vertex -8.52289 11.7307 5
      vertex -6.58286 12.9196 0
    endloop
  endfacet
  facet normal -0.522499 0.85264 0
    outer loop
      vertex -6.58286 12.9196 0
      vertex -8.52289 11.7307 5
      vertex -6.58286 12.9196 5
    endloop
  endfacet
  facet normal -0.649448 0.760406 0
    outer loop
      vertex -10.253 10.253 0
      vertex -10.253 10.253 5
      vertex -8.52289 11.7307 0
    endloop
  endfacet
  facet normal -0.649448 0.760406 0
    outer loop
      vertex -8.52289 11.7307 0
      vertex -10.253 10.253 5
      vertex -8.52289 11.7307 5
    endloop
  endfacet
  facet normal -0.760406 0.649448 0
    outer loop
      vertex -11.7307 8.52289 0
      vertex -11.7307 8.52289 5
      vertex -10.253 10.253 0
    endloop
  endfacet
  facet normal -0.760406 0.649448 0
    outer loop
      vertex -10.253 10.253 0
      vertex -11.7307 8.52289 5
      vertex -10.253 10.253 5
    endloop
  endfacet
  facet normal -0.85264 0.522499 0
    outer loop
      vertex -12.9196 6.58286 0
      vertex -12.9196 6.58286 5
      vertex -11.7307 8.52289 0
    endloop
  endfacet
  facet normal -0.85264 0.522499 0
    outer loop
      vertex -11.7307 8.52289 0
      vertex -12.9196 6.58286 5
      vertex -11.7307 8.52289 5
    endloop
  endfacet
  facet normal -0.92388 0.382683 0
    outer loop
      vertex -13.7903 4.48075 0
      vertex -13.7903 4.48075 5
      vertex -12.9196 6.58286 0
    endloop
  endfacet
  facet normal -0.92388 0.382683 0
    outer loop
      vertex -12.9196 6.58286 0
      vertex -13.7903 4.48075 5
      vertex -12.9196 6.58286 5
    endloop
  endfacet
  facet normal -0.97237 0.233446 0
    outer loop
      vertex -14.3215 2.2683 0
      vertex -14.3215 2.2683 5
      vertex -13.7903 4.48075 0
    endloop
  endfacet
  facet normal -0.97237 0.233446 0
    outer loop
      vertex -13.7903 4.48075 0
      vertex -14.3215 2.2683 5
      vertex -13.7903 4.48075 5
    endloop
  endfacet
  facet normal 0.996917 0.0784584 0
    outer loop
      vertex -4.5 0 15
      vertex -4.4446 -0.703955 15
      vertex -4.4446 -0.703955 0
    endloop
  endfacet
  facet normal 0.996917 0.0784584 0
    outer loop
      vertex -4.5 0 0
      vertex -4.5 0 15
      vertex -4.4446 -0.703955 0
    endloop
  endfacet
  facet normal 0.996917 -0.0784584 0
    outer loop
      vertex -4.4446 0.703955 0
      vertex -4.4446 0.703955 15
      vertex -4.5 0 15
    endloop
  endfacet
  facet normal 0.996917 -0.0784584 0
    outer loop
      vertex -4.5 0 0
      vertex -4.4446 0.703955 0
      vertex -4.5 0 15
    endloop
  endfacet
  facet normal 0.97237 -0.233447 0
    outer loop
      vertex -4.27975 1.39058 0
      vertex -4.27975 1.39058 15
      vertex -4.4446 0.703955 15
    endloop
  endfacet
  facet normal 0.97237 -0.233447 0
    outer loop
      vertex -4.4446 0.703955 0
      vertex -4.27975 1.39058 0
      vertex -4.4446 0.703955 15
    endloop
  endfacet
  facet normal 0.92388 -0.382683 0
    outer loop
      vertex -4.00953 2.04296 0
      vertex -4.00953 2.04296 15
      vertex -4.27975 1.39058 15
    endloop
  endfacet
  facet normal 0.92388 -0.382683 0
    outer loop
      vertex -4.27975 1.39058 0
      vertex -4.00953 2.04296 0
      vertex -4.27975 1.39058 15
    endloop
  endfacet
  facet normal 0.85264 -0.522498 0
    outer loop
      vertex -3.64058 2.64503 0
      vertex -3.64058 2.64503 15
      vertex -4.00953 2.04296 15
    endloop
  endfacet
  facet normal 0.85264 -0.522498 0
    outer loop
      vertex -4.00953 2.04296 0
      vertex -3.64058 2.64503 0
      vertex -4.00953 2.04296 15
    endloop
  endfacet
  facet normal 0.760407 -0.649447 0
    outer loop
      vertex -3.18198 3.18198 0
      vertex -3.18198 3.18198 15
      vertex -3.64058 2.64503 15
    endloop
  endfacet
  facet normal 0.760407 -0.649447 0
    outer loop
      vertex -3.64058 2.64503 0
      vertex -3.18198 3.18198 0
      vertex -3.64058 2.64503 15
    endloop
  endfacet
  facet normal 0.649447 -0.760407 0
    outer loop
      vertex -2.64503 3.64058 0
      vertex -2.64503 3.64058 15
      vertex -3.18198 3.18198 15
    endloop
  endfacet
  facet normal 0.649447 -0.760407 0
    outer loop
      vertex -3.18198 3.18198 0
      vertex -2.64503 3.64058 0
      vertex -3.18198 3.18198 15
    endloop
  endfacet
  facet normal 0.522498 -0.85264 0
    outer loop
      vertex -2.04296 4.00953 0
      vertex -2.04296 4.00953 15
      vertex -2.64503 3.64058 15
    endloop
  endfacet
  facet normal 0.522498 -0.85264 0
    outer loop
      vertex -2.64503 3.64058 0
      vertex -2.04296 4.00953 0
      vertex -2.64503 3.64058 15
    endloop
  endfacet
  facet normal 0.382683 -0.92388 0
    outer loop
      vertex -1.39058 4.27975 0
      vertex -1.39058 4.27975 15
      vertex -2.04296 4.00953 15
    endloop
  endfacet
  facet normal 0.382683 -0.92388 0
    outer loop
      vertex -2.04296 4.00953 0
      vertex -1.39058 4.27975 0
      vertex -2.04296 4.00953 15
    endloop
  endfacet
  facet normal 0.233447 -0.97237 0
    outer loop
      vertex -0.703955 4.4446 0
      vertex -0.703955 4.4446 15
      vertex -1.39058 4.27975 15
    endloop
  endfacet
  facet normal 0.233447 -0.97237 0
    outer loop
      vertex -1.39058 4.27975 0
      vertex -0.703955 4.4446 0
      vertex -1.39058 4.27975 15
    endloop
  endfacet
  facet normal 0.0784584 -0.996917 0
    outer loop
      vertex 0 4.5 0
      vertex 0 4.5 15
      vertex -0.703955 4.4446 15
    endloop
  endfacet
  facet normal 0.0784584 -0.996917 0
    outer loop
      vertex -0.703955 4.4446 0
      vertex 0 4.5 0
      vertex -0.703955 4.4446 15
    endloop
  endfacet
  facet normal -0.0784584 -0.996917 0
    outer loop
      vertex 0.703955 4.4446 0
      vertex 0.703955 4.4446 15
      vertex 0 4.5 15
    endloop
  endfacet
  facet normal -0.0784584 -0.996917 0
    outer loop
      vertex 0 4.5 0
      vertex 0.703955 4.4446 0
      vertex 0 4.5 15
    endloop
  endfacet
  facet normal -0.233447 -0.97237 0
    outer loop
      vertex 1.39058 4.27975 0
      vertex 1.39058 4.27975 15
      vertex 0.703955 4.4446 15
    endloop
  endfacet
  facet normal -0.233447 -0.97237 0
    outer loop
      vertex 0.703955 4.4446 0
      vertex 1.39058 4.27975 0
      vertex 0.703955 4.4446 15
    endloop
  endfacet
  facet normal -0.382683 -0.92388 0
    outer loop
      vertex 2.04296 4.00953 0
      vertex 2.04296 4.00953 15
      vertex 1.39058 4.27975 15
    endloop
  endfacet
  facet normal -0.382683 -0.92388 0
    outer loop
      vertex 1.39058 4.27975 0
      vertex 2.04296 4.00953 0
      vertex 1.39058 4.27975 15
    endloop
  endfacet
  facet normal -0.522498 -0.85264 0
    outer loop
      vertex 2.64503 3.64058 0
      vertex 2.64503 3.64058 15
      vertex 2.04296 4.00953 15
    endloop
  endfacet
  facet normal -0.522498 -0.85264 0
    outer loop
      vertex 2.04296 4.00953 0
      vertex 2.64503 3.64058 0
      vertex 2.04296 4.00953 15
    endloop
  endfacet
  facet normal -0.649447 -0.760407 0
    outer loop
      vertex 3.18198 3.18198 0
      vertex 3.18198 3.18198 15
      vertex 2.64503 3.64058 15
    endloop
  endfacet
  facet normal -0.649447 -0.760407 0
    outer loop
      vertex 2.64503 3.64058 0
      vertex 3.18198 3.18198 0
      vertex 2.64503 3.64058 15
    endloop
  endfacet
  facet normal -0.760407 -0.649447 0
    outer loop
      vertex 3.64058 2.64503 15
      vertex 3.18198 3.18198 15
      vertex 3.64058 2.64503 0
    endloop
  endfacet
  facet normal -0.760407 -0.649447 0
    outer loop
      vertex 3.64058 2.64503 0
      vertex 3.18198 3.18198 15
      vertex 3.18198 3.18198 0
    endloop
  endfacet
  facet normal -0.85264 -0.522498 0
    outer loop
      vertex 4.00953 2.04296 15
      vertex 3.64058 2.64503 15
      vertex 4.00953 2.04296 0
    endloop
  endfacet
  facet normal -0.85264 -0.522498 0
    outer loop
      vertex 4.00953 2.04296 0
      vertex 3.64058 2.64503 15
      vertex 3.64058 2.64503 0
    endloop
  endfacet
  facet normal -0.92388 -0.382683 0
    outer loop
      vertex 4.27975 1.39058 15
      vertex 4.00953 2.04296 15
      vertex 4.27975 1.39058 0
    endloop
  endfacet
  facet normal -0.92388 -0.382683 0
    outer loop
      vertex 4.27975 1.39058 0
      vertex 4.00953 2.04296 15
      vertex 4.00953 2.04296 0
    endloop
  endfacet
  facet normal -0.97237 -0.233447 0
    outer loop
      vertex 4.4446 0.703955 15
      vertex 4.27975 1.39058 15
      vertex 4.4446 0.703955 0
    endloop
  endfacet
  facet normal -0.97237 -0.233447 0
    outer loop
      vertex 4.4446 0.703955 0
      vertex 4.27975 1.39058 15
      vertex 4.27975 1.39058 0
    endloop
  endfacet
  facet normal -0.996917 -0.0784584 0
    outer loop
      vertex 4.5 0 15
      vertex 4.4446 0.703955 15
      vertex 4.5 0 0
    endloop
  endfacet
  facet normal -0.996917 -0.0784584 0
    outer loop
      vertex 4.5 0 0
      vertex 4.4446 0.703955 15
      vertex 4.4446 0.703955 0
    endloop
  endfacet
  facet normal -0.996917 0.0784584 0
    outer loop
      vertex 4.5 0 15
      vertex 4.5 0 0
      vertex 4.4446 -0.703955 15
    endloop
  endfacet
  facet normal -0.996917 0.0784584 0
    outer loop
      vertex 4.4446 -0.703955 15
      vertex 4.5 0 0
      vertex 4.4446 -0.703955 0
    endloop
  endfacet
  facet normal -0.97237 0.233447 0
    outer loop
      vertex 4.4446 -0.703955 15
      vertex 4.4446 -0.703955 0
      vertex 4.27975 -1.39058 15
    endloop
  endfacet
  facet normal -0.97237 0.233447 0
    outer loop
      vertex 4.27975 -1.39058 15
      vertex 4.4446 -0.703955 0
      vertex 4.27975 -1.39058 0
    endloop
  endfacet
  facet normal -0.92388 0.382683 0
    outer loop
      vertex 4.27975 -1.39058 15
      vertex 4.27975 -1.39058 0
      vertex 4.00953 -2.04296 15
    endloop
  endfacet
  facet normal -0.92388 0.382683 0
    outer loop
      vertex 4.00953 -2.04296 15
      vertex 4.27975 -1.39058 0
      vertex 4.00953 -2.04296 0
    endloop
  endfacet
  facet normal -0.85264 0.522498 0
    outer loop
      vertex 4.00953 -2.04296 15
      vertex 4.00953 -2.04296 0
      vertex 3.64058 -2.64503 15
    endloop
  endfacet
  facet normal -0.85264 0.522498 0
    outer loop
      vertex 3.64058 -2.64503 15
      vertex 4.00953 -2.04296 0
      vertex 3.64058 -2.64503 0
    endloop
  endfacet
  facet normal -0.760407 0.649447 0
    outer loop
      vertex 3.64058 -2.64503 15
      vertex 3.64058 -2.64503 0
      vertex 3.18198 -3.18198 15
    endloop
  endfacet
  facet normal -0.760407 0.649447 0
    outer loop
      vertex 3.18198 -3.18198 15
      vertex 3.64058 -2.64503 0
      vertex 3.18198 -3.18198 0
    endloop
  endfacet
  facet normal -0.649447 0.760407 0
    outer loop
      vertex 3.18198 -3.18198 15
      vertex 3.18198 -3.18198 0
      vertex 2.64503 -3.64058 15
    endloop
  endfacet
  facet normal -0.649447 0.760407 0
    outer loop
      vertex 2.64503 -3.64058 15
      vertex 3.18198 -3.18198 0
      vertex 2.64503 -3.64058 0
    endloop
  endfacet
  facet normal -0.522498 0.85264 0
    outer loop
      vertex 2.64503 -3.64058 15
      vertex 2.64503 -3.64058 0
      vertex 2.04296 -4.00953 15
    endloop
  endfacet
  facet normal -0.522498 0.85264 0
    outer loop
      vertex 2.04296 -4.00953 15
      vertex 2.64503 -3.64058 0
      vertex 2.04296 -4.00953 0
    endloop
  endfacet
  facet normal -0.382683 0.92388 0
    outer loop
      vertex 2.04296 -4.00953 15
      vertex 2.04296 -4.00953 0
      vertex 1.39058 -4.27975 15
    endloop
  endfacet
  facet normal -0.382683 0.92388 0
    outer loop
      vertex 1.39058 -4.27975 15
      vertex 2.04296 -4.00953 0
      vertex 1.39058 -4.27975 0
    endloop
  endfacet
  facet normal -0.233447 0.97237 0
    outer loop
      vertex 1.39058 -4.27975 15
      vertex 1.39058 -4.27975 0
      vertex 0.703955 -4.4446 15
    endloop
  endfacet
  facet normal -0.233447 0.97237 0
    outer loop
      vertex 0.703955 -4.4446 15
      vertex 1.39058 -4.27975 0
      vertex 0.703955 -4.4446 0
    endloop
  endfacet
  facet normal -0.0784584 0.996917 0
    outer loop
      vertex 0.703955 -4.4446 15
      vertex 0.703955 -4.4446 0
      vertex 0 -4.5 15
    endloop
  endfacet
  facet normal -0.0784584 0.996917 0
    outer loop
      vertex 0 -4.5 15
      vertex 0.703955 -4.4446 0
      vertex 0 -4.5 0
    endloop
  endfacet
  facet normal 0.0784584 0.996917 0
    outer loop
      vertex 0 -4.5 15
      vertex 0 -4.5 0
      vertex -0.703955 -4.4446 15
    endloop
  endfacet
  facet normal 0.0784584 0.996917 0
    outer loop
      vertex -0.703955 -4.4446 15
      vertex 0 -4.5 0
      vertex -0.703955 -4.4446 0
    endloop
  endfacet
  facet normal 0.233447 0.97237 0
    outer loop
      vertex -0.703955 -4.4446 15
      vertex -0.703955 -4.4446 0
      vertex -1.39058 -4.27975 15
    endloop
  endfacet
  facet normal 0.233447 0.97237 0
    outer loop
      vertex -1.39058 -4.27975 15
      vertex -0.703955 -4.4446 0
      vertex -1.39058 -4.27975 0
    endloop
  endfacet
  facet normal 0.382683 0.92388 0
    outer loop
      vertex -1.39058 -4.27975 15
      vertex -1.39058 -4.27975 0
      vertex -2.04296 -4.00953 15
    endloop
  endfacet
  facet normal 0.382683 0.92388 0
    outer loop
      vertex -2.04296 -4.00953 15
      vertex -1.39058 -4.27975 0
      vertex -2.04296 -4.00953 0
    endloop
  endfacet
  facet normal 0.522498 0.85264 0
    outer loop
      vertex -2.04296 -4.00953 15
      vertex -2.04296 -4.00953 0
      vertex -2.64503 -3.64058 15
    endloop
  endfacet
  facet normal 0.522498 0.85264 0
    outer loop
      vertex -2.64503 -3.64058 15
      vertex -2.04296 -4.00953 0
      vertex -2.64503 -3.64058 0
    endloop
  endfacet
  facet normal 0.649447 0.760407 0
    outer loop
      vertex -2.64503 -3.64058 15
      vertex -2.64503 -3.64058 0
      vertex -3.18198 -3.18198 15
    endloop
  endfacet
  facet normal 0.649447 0.760407 0
    outer loop
      vertex -3.18198 -3.18198 15
      vertex -2.64503 -3.64058 0
      vertex -3.18198 -3.18198 0
    endloop
  endfacet
  facet normal 0.760407 0.649447 0
    outer loop
      vertex -3.64058 -2.64503 15
      vertex -3.18198 -3.18198 15
      vertex -3.18198 -3.18198 0
    endloop
  endfacet
  facet normal 0.760407 0.649447 0
    outer loop
      vertex -3.64058 -2.64503 0
      vertex -3.64058 -2.64503 15
      vertex -3.18198 -3.18198 0
    endloop
  endfacet
  facet normal 0.85264 0.522498 0
    outer loop
      vertex -4.00953 -2.04296 15
      vertex -3.64058 -2.64503 15
      vertex -3.64058 -2.64503 0
    endloop
  endfacet
  facet normal 0.85264 0.522498 0
    outer loop
      vertex -4.00953 -2.04296 0
      vertex -4.00953 -2.04296 15
      vertex -3.64058 -2.64503 0
    endloop
  endfacet
  facet normal 0.92388 0.382683 0
    outer loop
      vertex -4.27975 -1.39058 15
      vertex -4.00953 -2.04296 15
      vertex -4.00953 -2.04296 0
    endloop
  endfacet
  facet normal 0.92388 0.382683 0
    outer loop
      vertex -4.27975 -1.39058 0
      vertex -4.27975 -1.39058 15
      vertex -4.00953 -2.04296 0
    endloop
  endfacet
  facet normal 0.97237 0.233447 0
    outer loop
      vertex -4.4446 -0.703955 15
      vertex -4.27975 -1.39058 15
      vertex -4.27975 -1.39058 0
    endloop
  endfacet
  facet normal 0.97237 0.233447 0
    outer loop
      vertex -4.4446 -0.703955 0
      vertex -4.4446 -0.703955 15
      vertex -4.27975 -1.39058 0
    endloop
  endfacet
  facet normal 0 0 1
    outer loop
      vertex -14.3215 2.2683 5
      vertex -14.5 0 5
      vertex -14.3215 -2.2683 5
    endloop
  endfacet
  facet normal 0 0 1
    outer loop
      vertex -12.9196 -6.58286 5
      vertex -14.3215 2.2683 5
      vertex -13.7903 -4.48075 5
    endloop
  endfacet
  facet normal 0 0 1
    outer loop
      vertex -13.7903 -4.48075 5
      vertex -14.3215 2.2683 5
      vertex -14.3215 -2.2683 5
    endloop
  endfacet
  facet normal 0 0 1
    outer loop
      vertex -11.7307 -8.52289 5
      vertex -14.3215 2.2683 5
      vertex -12.9196 -6.58286 5
    endloop
  endfacet
  facet normal 0 0 1
    outer loop
      vertex -10.253 -10.253 5
      vertex -14.3215 2.2683 5
      vertex -11.7307 -8.52289 5
    endloop
  endfacet
  facet normal 0 0 1
    outer loop
      vertex -8.52289 -11.7307 5
      vertex -14.3215 2.2683 5
      vertex -10.253 -10.253 5
    endloop
  endfacet
  facet normal 0 0 1
    outer loop
      vertex -6.58286 -12.9196 5
      vertex -14.3215 2.2683 5
      vertex -8.52289 -11.7307 5
    endloop
  endfacet
  facet normal 0 0 1
    outer loop
      vertex -4.48075 -13.7903 5
      vertex -14.3215 2.2683 5
      vertex -6.58286 -12.9196 5
    endloop
  endfacet
  facet normal 0 0 1
    outer loop
      vertex -2.2683 -14.3215 5
      vertex -14.3215 2.2683 5
      vertex -4.48075 -13.7903 5
    endloop
  endfacet
  facet normal 0 0 1
    outer loop
      vertex -7.68566 -5.58396 5
      vertex -14.3215 2.2683 5
      vertex -2.2683 -14.3215 5
    endloop
  endfacet
  facet normal 0 0 1
    outer loop
      vertex -5.58396 -7.68566 5
      vertex -6.71751 -6.71751 5
      vertex 0 -14.5 5
    endloop
  endfacet
  facet normal 0 0 1
    outer loop
      vertex 5.58396 -7.68566 5
      vertex 4.31291 -8.46456 5
      vertex 10.253 -10.253 5
    endloop
  endfacet
  facet normal 0 0 1
    outer loop
      vertex 8.46456 4.31291 5
      vertex 9.03504 2.93566 5
      vertex 13.7903 4.48075 5
    endloop
  endfacet
  facet normal 0 0 1
    outer loop
      vertex -4.31291 8.46456 5
      vertex -2.93566 9.03504 5
      vertex 4.48075 13.7903 5
    endloop
  endfacet
  facet normal 0 0 1
    outer loop
      vertex 4.31291 8.46456 5
      vertex 5.58396 7.68566 5
      vertex 10.253 10.253 5
    endloop
  endfacet
  facet normal 0 0 1
    outer loop
      vertex 0 14.5 5
      vertex -14.3215 2.2683 5
      vertex 2.2683 14.3215 5
    endloop
  endfacet
  facet normal 0 0 1
    outer loop
      vertex -2.2683 14.3215 5
      vertex -14.3215 2.2683 5
      vertex 0 14.5 5
    endloop
  endfacet
  facet normal 0 0 1
    outer loop
      vertex -4.48075 13.7903 5
      vertex -14.3215 2.2683 5
      vertex -2.2683 14.3215 5
    endloop
  endfacet
  facet normal 0 0 1
    outer loop
      vertex -6.58286 12.9196 5
      vertex -14.3215 2.2683 5
      vertex -4.48075 13.7903 5
    endloop
  endfacet
  facet normal 0 0 1
    outer loop
      vertex -8.52289 11.7307 5
      vertex -14.3215 2.2683 5
      vertex -6.58286 12.9196 5
    endloop
  endfacet
  facet normal 0 0 1
    outer loop
      vertex -10.253 10.253 5
      vertex -14.3215 2.2683 5
      vertex -8.52289 11.7307 5
    endloop
  endfacet
  facet normal 0 0 1
    outer loop
      vertex -11.7307 8.52289 5
      vertex -14.3215 2.2683 5
      vertex -10.253 10.253 5
    endloop
  endfacet
  facet normal 0 0 1
    outer loop
      vertex -12.9196 6.58286 5
      vertex -14.3215 2.2683 5
      vertex -11.7307 8.52289 5
    endloop
  endfacet
  facet normal 0 0 1
    outer loop
      vertex -13.7903 4.48075 5
      vertex -14.3215 2.2683 5
      vertex -12.9196 6.58286 5
    endloop
  endfacet
  facet normal 0 0 1
    outer loop
      vertex -2.93566 -9.03504 5
      vertex -4.31291 -8.46456 5
      vertex 2.2683 -14.3215 5
    endloop
  endfacet
  facet normal 0 0 1
    outer loop
      vertex -9.5 0 5
      vertex -9.38304 1.48613 5
      vertex -14.3215 2.2683 5
    endloop
  endfacet
  facet normal 0 0 1
    outer loop
      vertex 4.31291 -8.46456 5
      vertex 2.93566 -9.03504 5
      vertex 8.52289 -11.7307 5
    endloop
  endfacet
  facet normal 0 0 1
    outer loop
      vertex 8.46456 -4.31291 5
      vertex 7.68566 -5.58396 5
      vertex 12.9196 -6.58286 5
    endloop
  endfacet
  facet normal 0 0 1
    outer loop
      vertex 9.03504 2.93566 5
      vertex 9.38304 1.48613 5
      vertex 14.3215 2.2683 5
    endloop
  endfacet
  facet normal 0 0 1
    outer loop
      vertex 5.58396 7.68566 5
      vertex 6.71751 6.71751 5
      vertex 11.7307 8.52289 5
    endloop
  endfacet
  facet normal 0 0 1
    outer loop
      vertex -7.68566 5.58396 5
      vertex -6.71751 6.71751 5
      vertex -14.3215 2.2683 5
    endloop
  endfacet
  facet normal 0 0 1
    outer loop
      vertex 6.71751 6.71751 5
      vertex 7.68566 5.58396 5
      vertex 12.9196 6.58286 5
    endloop
  endfacet
  facet normal 0 0 1
    outer loop
      vertex -6.71751 6.71751 5
      vertex -5.58396 7.68566 5
      vertex -14.3215 2.2683 5
    endloop
  endfacet
  facet normal 0 0 1
    outer loop
      vertex 1.48613 9.38304 5
      vertex 2.93566 9.03504 5
      vertex 8.52289 11.7307 5
    endloop
  endfacet
  facet normal 0 0 1
    outer loop
      vertex -1.48613 9.38304 5
      vertex 0 9.5 5
      vertex 6.58286 12.9196 5
    endloop
  endfacet
  facet normal 0 0 1
    outer loop
      vertex 2.2683 14.3215 5
      vertex -14.3215 2.2683 5
      vertex -5.58396 7.68566 5
    endloop
  endfacet
  facet normal 0 0 1
    outer loop
      vertex 2.2683 14.3215 5
      vertex -4.31291 8.46456 5
      vertex 4.48075 13.7903 5
    endloop
  endfacet
  facet normal 0 0 1
    outer loop
      vertex 2.2683 14.3215 5
      vertex -5.58396 7.68566 5
      vertex -4.31291 8.46456 5
    endloop
  endfacet
  facet normal 0 0 1
    outer loop
      vertex 4.48075 13.7903 5
      vertex -2.93566 9.03504 5
      vertex 6.58286 12.9196 5
    endloop
  endfacet
  facet normal 0 0 1
    outer loop
      vertex -2.93566 9.03504 5
      vertex -1.48613 9.38304 5
      vertex 6.58286 12.9196 5
    endloop
  endfacet
  facet normal 0 0 1
    outer loop
      vertex 6.58286 12.9196 5
      vertex 0 9.5 5
      vertex 8.52289 11.7307 5
    endloop
  endfacet
  facet normal 0 0 1
    outer loop
      vertex 0 9.5 5
      vertex 1.48613 9.38304 5
      vertex 8.52289 11.7307 5
    endloop
  endfacet
  facet normal 0 0 1
    outer loop
      vertex 8.52289 11.7307 5
      vertex 2.93566 9.03504 5
      vertex 10.253 10.253 5
    endloop
  endfacet
  facet normal 0 0 1
    outer loop
      vertex 2.93566 9.03504 5
      vertex 4.31291 8.46456 5
      vertex 10.253 10.253 5
    endloop
  endfacet
  facet normal 0 0 1
    outer loop
      vertex 10.253 10.253 5
      vertex 5.58396 7.68566 5
      vertex 11.7307 8.52289 5
    endloop
  endfacet
  facet normal 0 0 1
    outer loop
      vertex -8.46456 4.31291 5
      vertex -7.68566 5.58396 5
      vertex -14.3215 2.2683 5
    endloop
  endfacet
  facet normal 0 0 1
    outer loop
      vertex 11.7307 8.52289 5
      vertex 6.71751 6.71751 5
      vertex 12.9196 6.58286 5
    endloop
  endfacet
  facet normal 0 0 1
    outer loop
      vertex 12.9196 6.58286 5
      vertex 7.68566 5.58396 5
      vertex 13.7903 4.48075 5
    endloop
  endfacet
  facet normal 0 0 1
    outer loop
      vertex 7.68566 5.58396 5
      vertex 8.46456 4.31291 5
      vertex 13.7903 4.48075 5
    endloop
  endfacet
  facet normal 0 0 1
    outer loop
      vertex 13.7903 4.48075 5
      vertex 9.03504 2.93566 5
      vertex 14.3215 2.2683 5
    endloop
  endfacet
  facet normal 0 0 1
    outer loop
      vertex 14.3215 2.2683 5
      vertex 9.38304 1.48613 5
      vertex 14.5 0 5
    endloop
  endfacet
  facet normal 0 0 1
    outer loop
      vertex 7.68566 -5.58396 5
      vertex 6.71751 -6.71751 5
      vertex 11.7307 -8.52289 5
    endloop
  endfacet
  facet normal 0 0 1
    outer loop
      vertex 14.5 0 5
      vertex 9.5 0 5
      vertex 14.3215 -2.2683 5
    endloop
  endfacet
  facet normal 0 0 1
    outer loop
      vertex -9.03504 2.93566 5
      vertex -8.46456 4.31291 5
      vertex -14.3215 2.2683 5
    endloop
  endfacet
  facet normal 0 0 1
    outer loop
      vertex 9.5 0 5
      vertex 9.38304 -1.48613 5
      vertex 14.3215 -2.2683 5
    endloop
  endfacet
  facet normal 0 0 1
    outer loop
      vertex 14.3215 -2.2683 5
      vertex 9.03504 -2.93566 5
      vertex 13.7903 -4.48075 5
    endloop
  endfacet
  facet normal 0 0 1
    outer loop
      vertex 13.7903 -4.48075 5
      vertex 8.46456 -4.31291 5
      vertex 12.9196 -6.58286 5
    endloop
  endfacet
  facet normal 0 0 1
    outer loop
      vertex 9.38304 1.48613 5
      vertex 9.5 0 5
      vertex 14.5 0 5
    endloop
  endfacet
  facet normal 0 0 1
    outer loop
      vertex 12.9196 -6.58286 5
      vertex 7.68566 -5.58396 5
      vertex 11.7307 -8.52289 5
    endloop
  endfacet
  facet normal 0 0 1
    outer loop
      vertex 9.38304 -1.48613 5
      vertex 9.03504 -2.93566 5
      vertex 14.3215 -2.2683 5
    endloop
  endfacet
  facet normal 0 0 1
    outer loop
      vertex 11.7307 -8.52289 5
      vertex 6.71751 -6.71751 5
      vertex 10.253 -10.253 5
    endloop
  endfacet
  facet normal 0 0 1
    outer loop
      vertex 6.71751 -6.71751 5
      vertex 5.58396 -7.68566 5
      vertex 10.253 -10.253 5
    endloop
  endfacet
  facet normal 0 0 1
    outer loop
      vertex 10.253 -10.253 5
      vertex 4.31291 -8.46456 5
      vertex 8.52289 -11.7307 5
    endloop
  endfacet
  facet normal 0 0 1
    outer loop
      vertex 8.52289 -11.7307 5
      vertex 2.93566 -9.03504 5
      vertex 6.58286 -12.9196 5
    endloop
  endfacet
  facet normal 0 0 1
    outer loop
      vertex 2.93566 -9.03504 5
      vertex 1.48613 -9.38304 5
      vertex 6.58286 -12.9196 5
    endloop
  endfacet
  facet normal 0 0 1
    outer loop
      vertex 6.58286 -12.9196 5
      vertex 1.48613 -9.38304 5
      vertex 4.48075 -13.7903 5
    endloop
  endfacet
  facet normal 0 0 1
    outer loop
      vertex 1.48613 -9.38304 5
      vertex 0 -9.5 5
      vertex 4.48075 -13.7903 5
    endloop
  endfacet
  facet normal 0 0 1
    outer loop
      vertex 4.48075 -13.7903 5
      vertex -1.48613 -9.38304 5
      vertex 2.2683 -14.3215 5
    endloop
  endfacet
  facet normal 0 0 1
    outer loop
      vertex -1.48613 -9.38304 5
      vertex -2.93566 -9.03504 5
      vertex 2.2683 -14.3215 5
    endloop
  endfacet
  facet normal 0 0 1
    outer loop
      vertex 2.2683 -14.3215 5
      vertex -4.31291 -8.46456 5
      vertex 0 -14.5 5
    endloop
  endfacet
  facet normal 0 0 1
    outer loop
      vertex -4.31291 -8.46456 5
      vertex -5.58396 -7.68566 5
      vertex 0 -14.5 5
    endloop
  endfacet
  facet normal 0 0 1
    outer loop
      vertex 0 -14.5 5
      vertex -6.71751 -6.71751 5
      vertex -2.2683 -14.3215 5
    endloop
  endfacet
  facet normal 0 0 1
    outer loop
      vertex -6.71751 -6.71751 5
      vertex -7.68566 -5.58396 5
      vertex -2.2683 -14.3215 5
    endloop
  endfacet
  facet normal 0 0 1
    outer loop
      vertex -8.46456 -4.31291 5
      vertex -9.03504 -2.93566 5
      vertex -14.3215 2.2683 5
    endloop
  endfacet
  facet normal 0 0 1
    outer loop
      vertex -9.03504 -2.93566 5
      vertex -9.38304 -1.48613 5
      vertex -14.3215 2.2683 5
    endloop
  endfacet
  facet normal 0 0 1
    outer loop
      vertex -7.68566 -5.58396 5
      vertex -8.46456 -4.31291 5
      vertex -14.3215 2.2683 5
    endloop
  endfacet
  facet normal 0 0 1
    outer loop
      vertex 0 -9.5 5
      vertex -1.48613 -9.38304 5
      vertex 4.48075 -13.7903 5
    endloop
  endfacet
  facet normal 0 0 1
    outer loop
      vertex -9.38304 -1.48613 5
      vertex -9.5 0 5
      vertex -14.3215 2.2683 5
    endloop
  endfacet
  facet normal 0 0 1
    outer loop
      vertex 9.03504 -2.93566 5
      vertex 8.46456 -4.31291 5
      vertex 13.7903 -4.48075 5
    endloop
  endfacet
  facet normal 0 0 1
    outer loop
      vertex -9.38304 1.48613 5
      vertex -9.03504 2.93566 5
      vertex -14.3215 2.2683 5
    endloop
  endfacet
  facet normal 0 0 1
    outer loop
      vertex -9.38304 1.48613 15
      vertex -9.5 0 15
      vertex -9.38304 -1.48613 15
    endloop
  endfacet
  facet normal 0 0 1
    outer loop
      vertex -8.46456 -4.31291 15
      vertex -9.38304 1.48613 15
      vertex -9.03504 -2.93566 15
    endloop
  endfacet
  facet normal 0 0 1
    outer loop
      vertex -9.03504 -2.93566 15
      vertex -9.38304 1.48613 15
      vertex -9.38304 -1.48613 15
    endloop
  endfacet
  facet normal 0 0 1
    outer loop
      vertex -7.68566 -5.58396 15
      vertex -9.38304 1.48613 15
      vertex -8.46456 -4.31291 15
    endloop
  endfacet
  facet normal 0 0 1
    outer loop
      vertex -6.71751 -6.71751 15
      vertex -9.38304 1.48613 15
      vertex -7.68566 -5.58396 15
    endloop
  endfacet
  facet normal 0 0 1
    outer loop
      vertex -5.58396 -7.68566 15
      vertex -9.38304 1.48613 15
      vertex -6.71751 -6.71751 15
    endloop
  endfacet
  facet normal 0 0 1
    outer loop
      vertex -4.31291 -8.46456 15
      vertex -9.38304 1.48613 15
      vertex -5.58396 -7.68566 15
    endloop
  endfacet
  facet normal 0 0 1
    outer loop
      vertex -2.93566 -9.03504 15
      vertex -9.38304 1.48613 15
      vertex -4.31291 -8.46456 15
    endloop
  endfacet
  facet normal 0 0 1
    outer loop
      vertex -1.48613 -9.38304 15
      vertex -9.38304 1.48613 15
      vertex -2.93566 -9.03504 15
    endloop
  endfacet
  facet normal 0 0 1
    outer loop
      vertex 0 -9.5 15
      vertex -9.38304 1.48613 15
      vertex -1.48613 -9.38304 15
    endloop
  endfacet
  facet normal 0 0 1
    outer loop
      vertex 1.48613 -9.38304 15
      vertex -9.38304 1.48613 15
      vertex 0 -9.5 15
    endloop
  endfacet
  facet normal 0 0 1
    outer loop
      vertex 2.93566 -9.03504 15
      vertex -9.38304 1.48613 15
      vertex 1.48613 -9.38304 15
    endloop
  endfacet
  facet normal 0 0 1
    outer loop
      vertex -2.64503 -3.64058 15
      vertex -9.38304 1.48613 15
      vertex 2.93566 -9.03504 15
    endloop
  endfacet
  facet normal 0 0 1
    outer loop
      vertex -1.39058 -4.27975 15
      vertex -2.04296 -4.00953 15
      vertex 4.31291 -8.46456 15
    endloop
  endfacet
  facet normal 0 0 1
    outer loop
      vertex 3.18198 -3.18198 15
      vertex 2.64503 -3.64058 15
      vertex 7.68566 -5.58396 15
    endloop
  endfacet
  facet normal 0 0 1
    outer loop
      vertex -4.27975 1.39058 15
      vertex -4.00953 2.04296 15
      vertex -9.38304 1.48613 15
    endloop
  endfacet
  facet normal 0 0 1
    outer loop
      vertex 4.5 0 15
      vertex 4.4446 -0.703955 15
      vertex 9.38304 -1.48613 15
    endloop
  endfacet
  facet normal 0 0 1
    outer loop
      vertex -0.703955 4.4446 15
      vertex 0 4.5 15
      vertex 6.71751 6.71751 15
    endloop
  endfacet
  facet normal 0 0 1
    outer loop
      vertex 3.64058 2.64503 15
      vertex 4.00953 2.04296 15
      vertex 9.03504 2.93566 15
    endloop
  endfacet
  facet normal 0 0 1
    outer loop
      vertex 0 4.5 15
      vertex 0.703955 4.4446 15
      vertex 6.71751 6.71751 15
    endloop
  endfacet
  facet normal 0 0 1
    outer loop
      vertex 4.31291 8.46456 15
      vertex -9.38304 1.48613 15
      vertex 5.58396 7.68566 15
    endloop
  endfacet
  facet normal 0 0 1
    outer loop
      vertex 2.93566 9.03504 15
      vertex -9.38304 1.48613 15
      vertex 4.31291 8.46456 15
    endloop
  endfacet
  facet normal 0 0 1
    outer loop
      vertex 1.48613 9.38304 15
      vertex -9.38304 1.48613 15
      vertex 2.93566 9.03504 15
    endloop
  endfacet
  facet normal 0 0 1
    outer loop
      vertex 0 9.5 15
      vertex -9.38304 1.48613 15
      vertex 1.48613 9.38304 15
    endloop
  endfacet
  facet normal 0 0 1
    outer loop
      vertex -1.48613 9.38304 15
      vertex -9.38304 1.48613 15
      vertex 0 9.5 15
    endloop
  endfacet
  facet normal 0 0 1
    outer loop
      vertex -2.93566 9.03504 15
      vertex -9.38304 1.48613 15
      vertex -1.48613 9.38304 15
    endloop
  endfacet
  facet normal 0 0 1
    outer loop
      vertex -4.31291 8.46456 15
      vertex -9.38304 1.48613 15
      vertex -2.93566 9.03504 15
    endloop
  endfacet
  facet normal 0 0 1
    outer loop
      vertex -5.58396 7.68566 15
      vertex -9.38304 1.48613 15
      vertex -4.31291 8.46456 15
    endloop
  endfacet
  facet normal 0 0 1
    outer loop
      vertex -6.71751 6.71751 15
      vertex -9.38304 1.48613 15
      vertex -5.58396 7.68566 15
    endloop
  endfacet
  facet normal 0 0 1
    outer loop
      vertex -7.68566 5.58396 15
      vertex -9.38304 1.48613 15
      vertex -6.71751 6.71751 15
    endloop
  endfacet
  facet normal 0 0 1
    outer loop
      vertex -8.46456 4.31291 15
      vertex -9.38304 1.48613 15
      vertex -7.68566 5.58396 15
    endloop
  endfacet
  facet normal 0 0 1
    outer loop
      vertex -9.03504 2.93566 15
      vertex -9.38304 1.48613 15
      vertex -8.46456 4.31291 15
    endloop
  endfacet
  facet normal 0 0 1
    outer loop
      vertex 0.703955 -4.4446 15
      vertex 0 -4.5 15
      vertex 5.58396 -7.68566 15
    endloop
  endfacet
  facet normal 0 0 1
    outer loop
      vertex 3.64058 -2.64503 15
      vertex 3.18198 -3.18198 15
      vertex 8.46456 -4.31291 15
    endloop
  endfacet
  facet normal 0 0 1
    outer loop
      vertex 4.4446 0.703955 15
      vertex 4.5 0 15
      vertex 9.5 0 15
    endloop
  endfacet
  facet normal 0 0 1
    outer loop
      vertex 4.27975 -1.39058 15
      vertex 4.00953 -2.04296 15
      vertex 9.03504 -2.93566 15
    endloop
  endfacet
  facet normal 0 0 1
    outer loop
      vertex -3.64058 2.64503 15
      vertex -3.18198 3.18198 15
      vertex -9.38304 1.48613 15
    endloop
  endfacet
  facet normal 0 0 1
    outer loop
      vertex 4.00953 2.04296 15
      vertex 4.27975 1.39058 15
      vertex 9.38304 1.48613 15
    endloop
  endfacet
  facet normal 0 0 1
    outer loop
      vertex -2.64503 3.64058 15
      vertex -2.04296 4.00953 15
      vertex -9.38304 1.48613 15
    endloop
  endfacet
  facet normal 0 0 1
    outer loop
      vertex 2.64503 3.64058 15
      vertex 3.18198 3.18198 15
      vertex 8.46456 4.31291 15
    endloop
  endfacet
  facet normal 0 0 1
    outer loop
      vertex -2.64503 3.64058 15
      vertex -9.38304 1.48613 15
      vertex -3.18198 3.18198 15
    endloop
  endfacet
  facet normal 0 0 1
    outer loop
      vertex 1.39058 4.27975 15
      vertex 2.04296 4.00953 15
      vertex 7.68566 5.58396 15
    endloop
  endfacet
  facet normal 0 0 1
    outer loop
      vertex 5.58396 7.68566 15
      vertex -9.38304 1.48613 15
      vertex -2.04296 4.00953 15
    endloop
  endfacet
  facet normal 0 0 1
    outer loop
      vertex 5.58396 7.68566 15
      vertex -1.39058 4.27975 15
      vertex 6.71751 6.71751 15
    endloop
  endfacet
  facet normal 0 0 1
    outer loop
      vertex 5.58396 7.68566 15
      vertex -2.04296 4.00953 15
      vertex -1.39058 4.27975 15
    endloop
  endfacet
  facet normal 0 0 1
    outer loop
      vertex -1.39058 4.27975 15
      vertex -0.703955 4.4446 15
      vertex 6.71751 6.71751 15
    endloop
  endfacet
  facet normal 0 0 1
    outer loop
      vertex 6.71751 6.71751 15
      vertex 0.703955 4.4446 15
      vertex 7.68566 5.58396 15
    endloop
  endfacet
  facet normal 0 0 1
    outer loop
      vertex 0.703955 4.4446 15
      vertex 1.39058 4.27975 15
      vertex 7.68566 5.58396 15
    endloop
  endfacet
  facet normal 0 0 1
    outer loop
      vertex 7.68566 5.58396 15
      vertex 2.04296 4.00953 15
      vertex 8.46456 4.31291 15
    endloop
  endfacet
  facet normal 0 0 1
    outer loop
      vertex 2.04296 4.00953 15
      vertex 2.64503 3.64058 15
      vertex 8.46456 4.31291 15
    endloop
  endfacet
  facet normal 0 0 1
    outer loop
      vertex 8.46456 4.31291 15
      vertex 3.18198 3.18198 15
      vertex 9.03504 2.93566 15
    endloop
  endfacet
  facet normal 0 0 1
    outer loop
      vertex 3.18198 3.18198 15
      vertex 3.64058 2.64503 15
      vertex 9.03504 2.93566 15
    endloop
  endfacet
  facet normal 0 0 1
    outer loop
      vertex 9.03504 2.93566 15
      vertex 4.00953 2.04296 15
      vertex 9.38304 1.48613 15
    endloop
  endfacet
  facet normal 0 0 1
    outer loop
      vertex -4.00953 2.04296 15
      vertex -3.64058 2.64503 15
      vertex -9.38304 1.48613 15
    endloop
  endfacet
  facet normal 0 0 1
    outer loop
      vertex 9.38304 1.48613 15
      vertex 4.27975 1.39058 15
      vertex 9.5 0 15
    endloop
  endfacet
  facet normal 0 0 1
    outer loop
      vertex 4.27975 1.39058 15
      vertex 4.4446 0.703955 15
      vertex 9.5 0 15
    endloop
  endfacet
  facet normal 0 0 1
    outer loop
      vertex 9.5 0 15
      vertex 4.5 0 15
      vertex 9.38304 -1.48613 15
    endloop
  endfacet
  facet normal 0 0 1
    outer loop
      vertex 9.38304 -1.48613 15
      vertex 4.4446 -0.703955 15
      vertex 9.03504 -2.93566 15
    endloop
  endfacet
  facet normal 0 0 1
    outer loop
      vertex -4.4446 0.703955 15
      vertex -4.27975 1.39058 15
      vertex -9.38304 1.48613 15
    endloop
  endfacet
  facet normal 0 0 1
    outer loop
      vertex 4.4446 -0.703955 15
      vertex 4.27975 -1.39058 15
      vertex 9.03504 -2.93566 15
    endloop
  endfacet
  facet normal 0 0 1
    outer loop
      vertex 9.03504 -2.93566 15
      vertex 4.00953 -2.04296 15
      vertex 8.46456 -4.31291 15
    endloop
  endfacet
  facet normal 0 0 1
    outer loop
      vertex 4.00953 -2.04296 15
      vertex 3.64058 -2.64503 15
      vertex 8.46456 -4.31291 15
    endloop
  endfacet
  facet normal 0 0 1
    outer loop
      vertex 8.46456 -4.31291 15
      vertex 3.18198 -3.18198 15
      vertex 7.68566 -5.58396 15
    endloop
  endfacet
  facet normal 0 0 1
    outer loop
      vertex 7.68566 -5.58396 15
      vertex 2.64503 -3.64058 15
      vertex 6.71751 -6.71751 15
    endloop
  endfacet
  facet normal 0 0 1
    outer loop
      vertex 2.64503 -3.64058 15
      vertex 2.04296 -4.00953 15
      vertex 6.71751 -6.71751 15
    endloop
  endfacet
  facet normal 0 0 1
    outer loop
      vertex 6.71751 -6.71751 15
      vertex 1.39058 -4.27975 15
      vertex 5.58396 -7.68566 15
    endloop
  endfacet
  facet normal 0 0 1
    outer loop
      vertex -3.18198 -3.18198 15
      vertex -3.64058 -2.64503 15
      vertex -9.38304 1.48613 15
    endloop
  endfacet
  facet normal 0 0 1
    outer loop
      vertex 1.39058 -4.27975 15
      vertex 0.703955 -4.4446 15
      vertex 5.58396 -7.68566 15
    endloop
  endfacet
  facet normal 0 0 1
    outer loop
      vertex 5.58396 -7.68566 15
      vertex 0 -4.5 15
      vertex 4.31291 -8.46456 15
    endloop
  endfacet
  facet normal 0 0 1
    outer loop
      vertex -3.64058 -2.64503 15
      vertex -4.00953 -2.04296 15
      vertex -9.38304 1.48613 15
    endloop
  endfacet
  facet normal 0 0 1
    outer loop
      vertex 0 -4.5 15
      vertex -0.703955 -4.4446 15
      vertex 4.31291 -8.46456 15
    endloop
  endfacet
  facet normal 0 0 1
    outer loop
      vertex -0.703955 -4.4446 15
      vertex -1.39058 -4.27975 15
      vertex 4.31291 -8.46456 15
    endloop
  endfacet
  facet normal 0 0 1
    outer loop
      vertex 4.31291 -8.46456 15
      vertex -2.04296 -4.00953 15
      vertex 2.93566 -9.03504 15
    endloop
  endfacet
  facet normal 0 0 1
    outer loop
      vertex -2.04296 -4.00953 15
      vertex -2.64503 -3.64058 15
      vertex 2.93566 -9.03504 15
    endloop
  endfacet
  facet normal 0 0 1
    outer loop
      vertex -3.18198 -3.18198 15
      vertex -9.38304 1.48613 15
      vertex -2.64503 -3.64058 15
    endloop
  endfacet
  facet normal 0 0 1
    outer loop
      vertex -4.00953 -2.04296 15
      vertex -4.27975 -1.39058 15
      vertex -9.38304 1.48613 15
    endloop
  endfacet
  facet normal 0 0 1
    outer loop
      vertex 2.04296 -4.00953 15
      vertex 1.39058 -4.27975 15
      vertex 6.71751 -6.71751 15
    endloop
  endfacet
  facet normal 0 0 1
    outer loop
      vertex -4.27975 -1.39058 15
      vertex -4.4446 -0.703955 15
      vertex -9.38304 1.48613 15
    endloop
  endfacet
  facet normal 0 0 1
    outer loop
      vertex -4.4446 -0.703955 15
      vertex -4.5 0 15
      vertex -9.38304 1.48613 15
    endloop
  endfacet
  facet normal 0 0 1
    outer loop
      vertex -4.5 0 15
      vertex -4.4446 0.703955 15
      vertex -9.38304 1.48613 15
    endloop
  endfacet
  facet normal -0.996917 -0.0784593 0
    outer loop
      vertex -9.5 0 5
      vertex -9.38304 -1.48613 5
      vertex -9.5 0 15
    endloop
  endfacet
  facet normal -0.996917 -0.0784593 0
    outer loop
      vertex -9.5 0 15
      vertex -9.38304 -1.48613 5
      vertex -9.38304 -1.48613 15
    endloop
  endfacet
  facet normal -0.97237 -0.233445 0
    outer loop
      vertex -9.38304 -1.48613 5
      vertex -9.03504 -2.93566 5
      vertex -9.38304 -1.48613 15
    endloop
  endfacet
  facet normal -0.97237 -0.233445 0
    outer loop
      vertex -9.38304 -1.48613 15
      vertex -9.03504 -2.93566 5
      vertex -9.03504 -2.93566 15
    endloop
  endfacet
  facet normal -0.92388 -0.382683 0
    outer loop
      vertex -9.03504 -2.93566 5
      vertex -8.46456 -4.31291 5
      vertex -9.03504 -2.93566 15
    endloop
  endfacet
  facet normal -0.92388 -0.382683 0
    outer loop
      vertex -9.03504 -2.93566 15
      vertex -8.46456 -4.31291 5
      vertex -8.46456 -4.31291 15
    endloop
  endfacet
  facet normal -0.85264 -0.522499 0
    outer loop
      vertex -8.46456 -4.31291 5
      vertex -7.68566 -5.58396 5
      vertex -8.46456 -4.31291 15
    endloop
  endfacet
  facet normal -0.85264 -0.522499 0
    outer loop
      vertex -8.46456 -4.31291 15
      vertex -7.68566 -5.58396 5
      vertex -7.68566 -5.58396 15
    endloop
  endfacet
  facet normal -0.760406 -0.649448 0
    outer loop
      vertex -7.68566 -5.58396 5
      vertex -6.71751 -6.71751 5
      vertex -7.68566 -5.58396 15
    endloop
  endfacet
  facet normal -0.760406 -0.649448 0
    outer loop
      vertex -7.68566 -5.58396 15
      vertex -6.71751 -6.71751 5
      vertex -6.71751 -6.71751 15
    endloop
  endfacet
  facet normal -0.649448 -0.760406 0
    outer loop
      vertex -6.71751 -6.71751 15
      vertex -6.71751 -6.71751 5
      vertex -5.58396 -7.68566 5
    endloop
  endfacet
  facet normal -0.649448 -0.760406 0
    outer loop
      vertex -5.58396 -7.68566 15
      vertex -6.71751 -6.71751 15
      vertex -5.58396 -7.68566 5
    endloop
  endfacet
  facet normal -0.522499 -0.85264 0
    outer loop
      vertex -5.58396 -7.68566 15
      vertex -5.58396 -7.68566 5
      vertex -4.31291 -8.46456 5
    endloop
  endfacet
  facet normal -0.522499 -0.85264 0
    outer loop
      vertex -4.31291 -8.46456 15
      vertex -5.58396 -7.68566 15
      vertex -4.31291 -8.46456 5
    endloop
  endfacet
  facet normal -0.382683 -0.92388 0
    outer loop
      vertex -4.31291 -8.46456 15
      vertex -4.31291 -8.46456 5
      vertex -2.93566 -9.03504 5
    endloop
  endfacet
  facet normal -0.382683 -0.92388 0
    outer loop
      vertex -2.93566 -9.03504 15
      vertex -4.31291 -8.46456 15
      vertex -2.93566 -9.03504 5
    endloop
  endfacet
  facet normal -0.233445 -0.97237 0
    outer loop
      vertex -2.93566 -9.03504 15
      vertex -2.93566 -9.03504 5
      vertex -1.48613 -9.38304 5
    endloop
  endfacet
  facet normal -0.233445 -0.97237 0
    outer loop
      vertex -1.48613 -9.38304 15
      vertex -2.93566 -9.03504 15
      vertex -1.48613 -9.38304 5
    endloop
  endfacet
  facet normal -0.0784593 -0.996917 0
    outer loop
      vertex -1.48613 -9.38304 15
      vertex -1.48613 -9.38304 5
      vertex 0 -9.5 5
    endloop
  endfacet
  facet normal -0.0784593 -0.996917 0
    outer loop
      vertex 0 -9.5 15
      vertex -1.48613 -9.38304 15
      vertex 0 -9.5 5
    endloop
  endfacet
  facet normal 0.0784593 -0.996917 0
    outer loop
      vertex 0 -9.5 15
      vertex 0 -9.5 5
      vertex 1.48613 -9.38304 5
    endloop
  endfacet
  facet normal 0.0784593 -0.996917 0
    outer loop
      vertex 1.48613 -9.38304 15
      vertex 0 -9.5 15
      vertex 1.48613 -9.38304 5
    endloop
  endfacet
  facet normal 0.233445 -0.97237 0
    outer loop
      vertex 1.48613 -9.38304 15
      vertex 1.48613 -9.38304 5
      vertex 2.93566 -9.03504 5
    endloop
  endfacet
  facet normal 0.233445 -0.97237 0
    outer loop
      vertex 2.93566 -9.03504 15
      vertex 1.48613 -9.38304 15
      vertex 2.93566 -9.03504 5
    endloop
  endfacet
  facet normal 0.382683 -0.92388 0
    outer loop
      vertex 2.93566 -9.03504 15
      vertex 2.93566 -9.03504 5
      vertex 4.31291 -8.46456 5
    endloop
  endfacet
  facet normal 0.382683 -0.92388 0
    outer loop
      vertex 4.31291 -8.46456 15
      vertex 2.93566 -9.03504 15
      vertex 4.31291 -8.46456 5
    endloop
  endfacet
  facet normal 0.522499 -0.85264 0
    outer loop
      vertex 4.31291 -8.46456 15
      vertex 4.31291 -8.46456 5
      vertex 5.58396 -7.68566 5
    endloop
  endfacet
  facet normal 0.522499 -0.85264 0
    outer loop
      vertex 5.58396 -7.68566 15
      vertex 4.31291 -8.46456 15
      vertex 5.58396 -7.68566 5
    endloop
  endfacet
  facet normal 0.649448 -0.760406 0
    outer loop
      vertex 5.58396 -7.68566 15
      vertex 5.58396 -7.68566 5
      vertex 6.71751 -6.71751 5
    endloop
  endfacet
  facet normal 0.649448 -0.760406 0
    outer loop
      vertex 6.71751 -6.71751 15
      vertex 5.58396 -7.68566 15
      vertex 6.71751 -6.71751 5
    endloop
  endfacet
  facet normal 0.760406 -0.649448 0
    outer loop
      vertex 6.71751 -6.71751 15
      vertex 6.71751 -6.71751 5
      vertex 7.68566 -5.58396 5
    endloop
  endfacet
  facet normal 0.760406 -0.649448 0
    outer loop
      vertex 7.68566 -5.58396 15
      vertex 6.71751 -6.71751 15
      vertex 7.68566 -5.58396 5
    endloop
  endfacet
  facet normal 0.85264 -0.522499 0
    outer loop
      vertex 7.68566 -5.58396 15
      vertex 7.68566 -5.58396 5
      vertex 8.46456 -4.31291 5
    endloop
  endfacet
  facet normal 0.85264 -0.522499 0
    outer loop
      vertex 8.46456 -4.31291 15
      vertex 7.68566 -5.58396 15
      vertex 8.46456 -4.31291 5
    endloop
  endfacet
  facet normal 0.92388 -0.382683 0
    outer loop
      vertex 8.46456 -4.31291 15
      vertex 8.46456 -4.31291 5
      vertex 9.03504 -2.93566 5
    endloop
  endfacet
  facet normal 0.92388 -0.382683 0
    outer loop
      vertex 9.03504 -2.93566 15
      vertex 8.46456 -4.31291 15
      vertex 9.03504 -2.93566 5
    endloop
  endfacet
  facet normal 0.97237 -0.233445 0
    outer loop
      vertex 9.03504 -2.93566 15
      vertex 9.03504 -2.93566 5
      vertex 9.38304 -1.48613 5
    endloop
  endfacet
  facet normal 0.97237 -0.233445 0
    outer loop
      vertex 9.38304 -1.48613 15
      vertex 9.03504 -2.93566 15
      vertex 9.38304 -1.48613 5
    endloop
  endfacet
  facet normal 0.996917 -0.0784593 0
    outer loop
      vertex 9.38304 -1.48613 15
      vertex 9.38304 -1.48613 5
      vertex 9.5 0 5
    endloop
  endfacet
  facet normal 0.996917 -0.0784593 0
    outer loop
      vertex 9.5 0 15
      vertex 9.38304 -1.48613 15
      vertex 9.5 0 5
    endloop
  endfacet
  facet normal 0.996917 0.0784593 0
    outer loop
      vertex 9.5 0 5
      vertex 9.38304 1.48613 5
      vertex 9.38304 1.48613 15
    endloop
  endfacet
  facet normal 0.996917 0.0784593 0
    outer loop
      vertex 9.5 0 15
      vertex 9.5 0 5
      vertex 9.38304 1.48613 15
    endloop
  endfacet
  facet normal 0.97237 0.233445 0
    outer loop
      vertex 9.38304 1.48613 5
      vertex 9.03504 2.93566 5
      vertex 9.03504 2.93566 15
    endloop
  endfacet
  facet normal 0.97237 0.233445 0
    outer loop
      vertex 9.38304 1.48613 15
      vertex 9.38304 1.48613 5
      vertex 9.03504 2.93566 15
    endloop
  endfacet
  facet normal 0.92388 0.382683 0
    outer loop
      vertex 9.03504 2.93566 5
      vertex 8.46456 4.31291 5
      vertex 8.46456 4.31291 15
    endloop
  endfacet
  facet normal 0.92388 0.382683 0
    outer loop
      vertex 9.03504 2.93566 15
      vertex 9.03504 2.93566 5
      vertex 8.46456 4.31291 15
    endloop
  endfacet
  facet normal 0.85264 0.522499 0
    outer loop
      vertex 8.46456 4.31291 5
      vertex 7.68566 5.58396 5
      vertex 7.68566 5.58396 15
    endloop
  endfacet
  facet normal 0.85264 0.522499 0
    outer loop
      vertex 8.46456 4.31291 15
      vertex 8.46456 4.31291 5
      vertex 7.68566 5.58396 15
    endloop
  endfacet
  facet normal 0.760406 0.649448 0
    outer loop
      vertex 7.68566 5.58396 5
      vertex 6.71751 6.71751 5
      vertex 6.71751 6.71751 15
    endloop
  endfacet
  facet normal 0.760406 0.649448 0
    outer loop
      vertex 7.68566 5.58396 15
      vertex 7.68566 5.58396 5
      vertex 6.71751 6.71751 15
    endloop
  endfacet
  facet normal 0.649448 0.760406 0
    outer loop
      vertex 5.58396 7.68566 5
      vertex 5.58396 7.68566 15
      vertex 6.71751 6.71751 5
    endloop
  endfacet
  facet normal 0.649448 0.760406 0
    outer loop
      vertex 6.71751 6.71751 5
      vertex 5.58396 7.68566 15
      vertex 6.71751 6.71751 15
    endloop
  endfacet
  facet normal 0.522499 0.85264 0
    outer loop
      vertex 4.31291 8.46456 5
      vertex 4.31291 8.46456 15
      vertex 5.58396 7.68566 5
    endloop
  endfacet
  facet normal 0.522499 0.85264 0
    outer loop
      vertex 5.58396 7.68566 5
      vertex 4.31291 8.46456 15
      vertex 5.58396 7.68566 15
    endloop
  endfacet
  facet normal 0.382683 0.92388 0
    outer loop
      vertex 2.93566 9.03504 5
      vertex 2.93566 9.03504 15
      vertex 4.31291 8.46456 5
    endloop
  endfacet
  facet normal 0.382683 0.92388 0
    outer loop
      vertex 4.31291 8.46456 5
      vertex 2.93566 9.03504 15
      vertex 4.31291 8.46456 15
    endloop
  endfacet
  facet normal 0.233445 0.97237 0
    outer loop
      vertex 1.48613 9.38304 5
      vertex 1.48613 9.38304 15
      vertex 2.93566 9.03504 5
    endloop
  endfacet
  facet normal 0.233445 0.97237 0
    outer loop
      vertex 2.93566 9.03504 5
      vertex 1.48613 9.38304 15
      vertex 2.93566 9.03504 15
    endloop
  endfacet
  facet normal 0.0784593 0.996917 0
    outer loop
      vertex 0 9.5 5
      vertex 0 9.5 15
      vertex 1.48613 9.38304 5
    endloop
  endfacet
  facet normal 0.0784593 0.996917 0
    outer loop
      vertex 1.48613 9.38304 5
      vertex 0 9.5 15
      vertex 1.48613 9.38304 15
    endloop
  endfacet
  facet normal -0.0784593 0.996917 0
    outer loop
      vertex -1.48613 9.38304 5
      vertex -1.48613 9.38304 15
      vertex 0 9.5 5
    endloop
  endfacet
  facet normal -0.0784593 0.996917 0
    outer loop
      vertex 0 9.5 5
      vertex -1.48613 9.38304 15
      vertex 0 9.5 15
    endloop
  endfacet
  facet normal -0.233445 0.97237 0
    outer loop
      vertex -2.93566 9.03504 5
      vertex -2.93566 9.03504 15
      vertex -1.48613 9.38304 5
    endloop
  endfacet
  facet normal -0.233445 0.97237 0
    outer loop
      vertex -1.48613 9.38304 5
      vertex -2.93566 9.03504 15
      vertex -1.48613 9.38304 15
    endloop
  endfacet
  facet normal -0.382683 0.92388 0
    outer loop
      vertex -4.31291 8.46456 5
      vertex -4.31291 8.46456 15
      vertex -2.93566 9.03504 5
    endloop
  endfacet
  facet normal -0.382683 0.92388 0
    outer loop
      vertex -2.93566 9.03504 5
      vertex -4.31291 8.46456 15
      vertex -2.93566 9.03504 15
    endloop
  endfacet
  facet normal -0.522499 0.85264 0
    outer loop
      vertex -5.58396 7.68566 5
      vertex -5.58396 7.68566 15
      vertex -4.31291 8.46456 5
    endloop
  endfacet
  facet normal -0.522499 0.85264 0
    outer loop
      vertex -4.31291 8.46456 5
      vertex -5.58396 7.68566 15
      vertex -4.31291 8.46456 15
    endloop
  endfacet
  facet normal -0.649448 0.760406 0
    outer loop
      vertex -6.71751 6.71751 5
      vertex -6.71751 6.71751 15
      vertex -5.58396 7.68566 5
    endloop
  endfacet
  facet normal -0.649448 0.760406 0
    outer loop
      vertex -5.58396 7.68566 5
      vertex -6.71751 6.71751 15
      vertex -5.58396 7.68566 15
    endloop
  endfacet
  facet normal -0.760406 0.649448 0
    outer loop
      vertex -7.68566 5.58396 5
      vertex -7.68566 5.58396 15
      vertex -6.71751 6.71751 5
    endloop
  endfacet
  facet normal -0.760406 0.649448 0
    outer loop
      vertex -6.71751 6.71751 5
      vertex -7.68566 5.58396 15
      vertex -6.71751 6.71751 15
    endloop
  endfacet
  facet normal -0.85264 0.522499 0
    outer loop
      vertex -8.46456 4.31291 5
      vertex -8.46456 4.31291 15
      vertex -7.68566 5.58396 5
    endloop
  endfacet
  facet normal -0.85264 0.522499 0
    outer loop
      vertex -7.68566 5.58396 5
      vertex -8.46456 4.31291 15
      vertex -7.68566 5.58396 15
    endloop
  endfacet
  facet normal -0.92388 0.382683 0
    outer loop
      vertex -9.03504 2.93566 5
      vertex -9.03504 2.93566 15
      vertex -8.46456 4.31291 5
    endloop
  endfacet
  facet normal -0.92388 0.382683 0
    outer loop
      vertex -8.46456 4.31291 5
      vertex -9.03504 2.93566 15
      vertex -8.46456 4.31291 15
    endloop
  endfacet
  facet normal -0.97237 0.233445 0
    outer loop
      vertex -9.38304 1.48613 5
      vertex -9.38304 1.48613 15
      vertex -9.03504 2.93566 5
    endloop
  endfacet
  facet normal -0.97237 0.233445 0
    outer loop
      vertex -9.03504 2.93566 5
      vertex -9.38304 1.48613 15
      vertex -9.03504 2.93566 15
    endloop
  endfacet
  facet normal -0.996917 0.0784593 0
    outer loop
      vertex -9.5 0 5
      vertex -9.5 0 15
      vertex -9.38304 1.48613 5
    endloop
  endfacet
  facet normal -0.996917 0.0784593 0
    outer loop
      vertex -9.38304 1.48613 5
      vertex -9.5 0 15
      vertex -9.38304 1.48613 15
    endloop
  endfacet
endsolid OpenSCAD_Model
