solid OpenSCAD_Model
  facet normal -0.994522 -0.104528 0
    outer loop
      vertex -20 0 -5
      vertex -19.8361 -1.55934 -5
      vertex -20 0 5
    endloop
  endfacet
  facet normal -0.994522 -0.104528 0
    outer loop
      vertex -20 0 5
      vertex -19.8361 -1.55934 -5
      vertex -19.8361 -1.55934 5
    endloop
  endfacet
  facet normal 0 0 -1
    outer loop
      vertex -20 0 -5
      vertex -19.8361 1.55934 -5
      vertex -19.8361 -1.55934 -5
    endloop
  endfacet
  facet normal 0 0 -1
    outer loop
      vertex -19.8361 -1.55934 -5
      vertex -19.8361 1.55934 -5
      vertex -19.3516 3.05052 -5
    endloop
  endfacet
  facet normal 0 0 -1
    outer loop
      vertex -19.8361 -1.55934 -5
      vertex -19.3516 3.05052 -5
      vertex -18.5676 4.40839 -5
    endloop
  endfacet
  facet normal 0 0 -1
    outer loop
      vertex -19.8361 -1.55934 -5
      vertex -18.5676 4.40839 -5
      vertex -17.5185 5.57359 -5
    endloop
  endfacet
  facet normal 0 0 -1
    outer loop
      vertex -19.8361 -1.55934 -5
      vertex -17.5185 5.57359 -5
      vertex -16.25 6.49519 -5
    endloop
  endfacet
  facet normal 0 0 -1
    outer loop
      vertex -19.8361 -1.55934 -5
      vertex -16.25 6.49519 -5
      vertex -14.8176 7.13292 -5
    endloop
  endfacet
  facet normal 0 0 -1
    outer loop
      vertex -19.8361 -1.55934 -5
      vertex -14.8176 7.13292 -5
      vertex -13.284 7.45891 -5
    endloop
  endfacet
  facet normal 0 0 -1
    outer loop
      vertex -19.8361 -1.55934 -5
      vertex -13.284 7.45891 -5
      vertex -1.04529 9.94522 -5
    endloop
  endfacet
  facet normal 0 0 -1
    outer loop
      vertex -12.7613 2.4863 -5
      vertex -1.04529 9.94522 -5
      vertex 1.04529 9.94522 -5
    endloop
  endfacet
  facet normal 0 0 -1
    outer loop
      vertex 1.54508 4.75528 -5
      vertex 1.04529 9.94522 -5
      vertex 13.284 7.45891 -5
    endloop
  endfacet
  facet normal 0 0 -1
    outer loop
      vertex 2.5 4.33013 -5
      vertex 13.284 7.45891 -5
      vertex 14.8176 7.13292 -5
    endloop
  endfacet
  facet normal 0 0 -1
    outer loop
      vertex 3.34565 3.71572 -5
      vertex 14.8176 7.13292 -5
      vertex 16.25 6.49519 -5
    endloop
  endfacet
  facet normal 0 0 -1
    outer loop
      vertex -4.89074 1.03956 -5
      vertex -10 0 -5
      vertex -10.0546 0.519779 -5
    endloop
  endfacet
  facet normal 0 0 -1
    outer loop
      vertex 4.56773 2.03368 -5
      vertex 18.5676 4.40839 -5
      vertex 19.3516 3.05052 -5
    endloop
  endfacet
  facet normal 0 0 -1
    outer loop
      vertex 14.5225 1.46946 -5
      vertex 19.3516 3.05052 -5
      vertex 19.8361 1.55934 -5
    endloop
  endfacet
  facet normal 0 0 -1
    outer loop
      vertex 14.5225 1.46946 -5
      vertex 19.8361 1.55934 -5
      vertex 14.7839 1.01684 -5
    endloop
  endfacet
  facet normal 0 0 -1
    outer loop
      vertex 14.7839 -1.01684 -5
      vertex 20 0 -5
      vertex 19.8361 -1.55934 -5
    endloop
  endfacet
  facet normal 0 0 -1
    outer loop
      vertex 13.75 -2.16506 -5
      vertex 19.8361 -1.55934 -5
      vertex 19.3516 -3.05052 -5
    endloop
  endfacet
  facet normal 0 0 -1
    outer loop
      vertex 4.04508 -2.93893 -5
      vertex 19.3516 -3.05052 -5
      vertex 18.5676 -4.40839 -5
    endloop
  endfacet
  facet normal 0 0 -1
    outer loop
      vertex 3.34565 -3.71572 -5
      vertex 18.5676 -4.40839 -5
      vertex 17.5185 -5.57359 -5
    endloop
  endfacet
  facet normal 0 0 -1
    outer loop
      vertex 2.5 -4.33013 -5
      vertex 17.5185 -5.57359 -5
      vertex 16.25 -6.49519 -5
    endloop
  endfacet
  facet normal 0 0 -1
    outer loop
      vertex 1.54508 -4.75528 -5
      vertex 14.8176 -7.13292 -5
      vertex 0.522642 -4.97261 -5
    endloop
  endfacet
  facet normal 0 0 -1
    outer loop
      vertex -19.8361 -1.55934 -5
      vertex 13.284 -7.45891 -5
      vertex 1.04529 -9.94522 -5
    endloop
  endfacet
  facet normal 0 0 -1
    outer loop
      vertex -19.8361 -1.55934 -5
      vertex 1.04529 -9.94522 -5
      vertex -1.04529 -9.94522 -5
    endloop
  endfacet
  facet normal 0 0 -1
    outer loop
      vertex -19.8361 -1.55934 -5
      vertex -1.04529 -9.94522 -5
      vertex -13.284 -7.45891 -5
    endloop
  endfacet
  facet normal 0 0 -1
    outer loop
      vertex -19.8361 -1.55934 -5
      vertex -13.284 -7.45891 -5
      vertex -14.8176 -7.13292 -5
    endloop
  endfacet
  facet normal 0 0 -1
    outer loop
      vertex -19.8361 -1.55934 -5
      vertex -14.8176 -7.13292 -5
      vertex -16.25 -6.49519 -5
    endloop
  endfacet
  facet normal 0 0 -1
    outer loop
      vertex -19.8361 -1.55934 -5
      vertex -16.25 -6.49519 -5
      vertex -17.5185 -5.57359 -5
    endloop
  endfacet
  facet normal 0 0 -1
    outer loop
      vertex -19.8361 -1.55934 -5
      vertex -17.5185 -5.57359 -5
      vertex -18.5676 -4.40839 -5
    endloop
  endfacet
  facet normal 0 0 -1
    outer loop
      vertex -19.8361 -1.55934 -5
      vertex -18.5676 -4.40839 -5
      vertex -19.3516 -3.05052 -5
    endloop
  endfacet
  facet normal 0 0 -1
    outer loop
      vertex -12.7613 2.4863 -5
      vertex 1.04529 9.94522 -5
      vertex -12.2387 2.4863 -5
    endloop
  endfacet
  facet normal 0 0 -1
    outer loop
      vertex -14.7839 -1.01684 -5
      vertex -19.8361 -1.55934 -5
      vertex -14.9454 -0.519779 -5
    endloop
  endfacet
  facet normal 0 0 -1
    outer loop
      vertex -14.5225 -1.46946 -5
      vertex -19.8361 -1.55934 -5
      vertex -14.7839 -1.01684 -5
    endloop
  endfacet
  facet normal 0 0 -1
    outer loop
      vertex -13.75 -2.16506 -5
      vertex -19.8361 -1.55934 -5
      vertex -14.1728 -1.85786 -5
    endloop
  endfacet
  facet normal 0 0 -1
    outer loop
      vertex -13.2725 -2.37764 -5
      vertex -19.8361 -1.55934 -5
      vertex -13.75 -2.16506 -5
    endloop
  endfacet
  facet normal 0 0 -1
    outer loop
      vertex -19.8361 -1.55934 -5
      vertex -13.2725 -2.37764 -5
      vertex -12.7613 -2.4863 -5
    endloop
  endfacet
  facet normal 0 0 -1
    outer loop
      vertex -2.5 -4.33013 -5
      vertex -12.7613 -2.4863 -5
      vertex -12.2387 -2.4863 -5
    endloop
  endfacet
  facet normal 0 0 -1
    outer loop
      vertex -3.34565 -3.71572 -5
      vertex -11.7275 -2.37764 -5
      vertex -4.04508 -2.93893 -5
    endloop
  endfacet
  facet normal 0 0 -1
    outer loop
      vertex -4.04508 -2.93893 -5
      vertex -11.25 -2.16506 -5
      vertex -10.8272 -1.85786 -5
    endloop
  endfacet
  facet normal 0 0 -1
    outer loop
      vertex -4.89074 -1.03956 -5
      vertex -10.0546 -0.519779 -5
      vertex -5 0 -5
    endloop
  endfacet
  facet normal 0 0 -1
    outer loop
      vertex 4.04508 2.93893 -5
      vertex 17.5185 5.57359 -5
      vertex 18.5676 4.40839 -5
    endloop
  endfacet
  facet normal 0 0 -1
    outer loop
      vertex 2.5 4.33013 -5
      vertex 14.8176 7.13292 -5
      vertex 3.34565 3.71572 -5
    endloop
  endfacet
  facet normal 0 0 -1
    outer loop
      vertex -4.89074 1.03956 -5
      vertex -10.0546 0.519779 -5
      vertex -4.56773 2.03368 -5
    endloop
  endfacet
  facet normal 0 0 -1
    outer loop
      vertex 4.89074 1.03956 -5
      vertex 10.2161 1.01684 -5
      vertex 5 0 -5
    endloop
  endfacet
  facet normal 0 0 -1
    outer loop
      vertex -10.8272 1.85786 -5
      vertex 1.04529 9.94522 -5
      vertex -10.4775 1.46946 -5
    endloop
  endfacet
  facet normal 0 0 -1
    outer loop
      vertex -11.25 2.16506 -5
      vertex 1.04529 9.94522 -5
      vertex -10.8272 1.85786 -5
    endloop
  endfacet
  facet normal 0 0 -1
    outer loop
      vertex -12.2387 2.4863 -5
      vertex 1.04529 9.94522 -5
      vertex -11.7275 2.37764 -5
    endloop
  endfacet
  facet normal 0 0 -1
    outer loop
      vertex -13.2725 2.37764 -5
      vertex -1.04529 9.94522 -5
      vertex -12.7613 2.4863 -5
    endloop
  endfacet
  facet normal 0 0 -1
    outer loop
      vertex -14.5225 1.46946 -5
      vertex -19.8361 -1.55934 -5
      vertex -14.1728 1.85786 -5
    endloop
  endfacet
  facet normal 0 0 -1
    outer loop
      vertex -13.75 2.16506 -5
      vertex -1.04529 9.94522 -5
      vertex -13.2725 2.37764 -5
    endloop
  endfacet
  facet normal 0 0 -1
    outer loop
      vertex -19.8361 -1.55934 -5
      vertex -1.04529 9.94522 -5
      vertex -13.75 2.16506 -5
    endloop
  endfacet
  facet normal 0 0 -1
    outer loop
      vertex -19.8361 -1.55934 -5
      vertex -13.75 2.16506 -5
      vertex -14.1728 1.85786 -5
    endloop
  endfacet
  facet normal 0 0 -1
    outer loop
      vertex 3.34565 3.71572 -5
      vertex 17.5185 5.57359 -5
      vertex 4.04508 2.93893 -5
    endloop
  endfacet
  facet normal 0 0 -1
    outer loop
      vertex -14.7839 1.01684 -5
      vertex -19.8361 -1.55934 -5
      vertex -14.5225 1.46946 -5
    endloop
  endfacet
  facet normal 0 0 -1
    outer loop
      vertex -14.9454 0.519779 -5
      vertex -19.8361 -1.55934 -5
      vertex -14.7839 1.01684 -5
    endloop
  endfacet
  facet normal 0 0 -1
    outer loop
      vertex -5 0 -5
      vertex -10 0 -5
      vertex -4.89074 1.03956 -5
    endloop
  endfacet
  facet normal 0 0 -1
    outer loop
      vertex -5 0 -5
      vertex -10.0546 -0.519779 -5
      vertex -10 0 -5
    endloop
  endfacet
  facet normal 0 0 -1
    outer loop
      vertex -19.8361 -1.55934 -5
      vertex -14.9454 0.519779 -5
      vertex -15 0 -5
    endloop
  endfacet
  facet normal 0 0 -1
    outer loop
      vertex -4.89074 -1.03956 -5
      vertex -10.2161 -1.01684 -5
      vertex -10.0546 -0.519779 -5
    endloop
  endfacet
  facet normal 0 0 -1
    outer loop
      vertex -10.2161 -1.01684 -5
      vertex -4.89074 -1.03956 -5
      vertex -10.4775 -1.46946 -5
    endloop
  endfacet
  facet normal 0 0 -1
    outer loop
      vertex -14.1728 -1.85786 -5
      vertex -19.8361 -1.55934 -5
      vertex -14.5225 -1.46946 -5
    endloop
  endfacet
  facet normal 0 0 -1
    outer loop
      vertex -4.04508 -2.93893 -5
      vertex -11.7275 -2.37764 -5
      vertex -11.25 -2.16506 -5
    endloop
  endfacet
  facet normal 0 0 -1
    outer loop
      vertex -3.34565 -3.71572 -5
      vertex -12.2387 -2.4863 -5
      vertex -11.7275 -2.37764 -5
    endloop
  endfacet
  facet normal 0 0 -1
    outer loop
      vertex -2.5 -4.33013 -5
      vertex -12.2387 -2.4863 -5
      vertex -3.34565 -3.71572 -5
    endloop
  endfacet
  facet normal 0 0 -1
    outer loop
      vertex -2.5 -4.33013 -5
      vertex -19.8361 -1.55934 -5
      vertex -12.7613 -2.4863 -5
    endloop
  endfacet
  facet normal 0 0 -1
    outer loop
      vertex 2.5 -4.33013 -5
      vertex 16.25 -6.49519 -5
      vertex 1.54508 -4.75528 -5
    endloop
  endfacet
  facet normal 0 0 -1
    outer loop
      vertex 1.54508 -4.75528 -5
      vertex 16.25 -6.49519 -5
      vertex 14.8176 -7.13292 -5
    endloop
  endfacet
  facet normal 0 0 -1
    outer loop
      vertex -19.8361 -1.55934 -5
      vertex -1.54508 -4.75528 -5
      vertex -0.522642 -4.97261 -5
    endloop
  endfacet
  facet normal 0 0 -1
    outer loop
      vertex -19.8361 -1.55934 -5
      vertex -0.522642 -4.97261 -5
      vertex 13.284 -7.45891 -5
    endloop
  endfacet
  facet normal 0 0 -1
    outer loop
      vertex 0.522642 -4.97261 -5
      vertex 13.284 -7.45891 -5
      vertex -0.522642 -4.97261 -5
    endloop
  endfacet
  facet normal 0 0 -1
    outer loop
      vertex 0.522642 -4.97261 -5
      vertex 14.8176 -7.13292 -5
      vertex 13.284 -7.45891 -5
    endloop
  endfacet
  facet normal 0 0 -1
    outer loop
      vertex -1.54508 -4.75528 -5
      vertex -19.8361 -1.55934 -5
      vertex -2.5 -4.33013 -5
    endloop
  endfacet
  facet normal 0 0 -1
    outer loop
      vertex 3.34565 -3.71572 -5
      vertex 17.5185 -5.57359 -5
      vertex 2.5 -4.33013 -5
    endloop
  endfacet
  facet normal 0 0 -1
    outer loop
      vertex 4.04508 -2.93893 -5
      vertex 18.5676 -4.40839 -5
      vertex 3.34565 -3.71572 -5
    endloop
  endfacet
  facet normal 0 0 -1
    outer loop
      vertex 5 0 -5
      vertex 10.0546 -0.519779 -5
      vertex 4.89074 -1.03956 -5
    endloop
  endfacet
  facet normal 0 0 -1
    outer loop
      vertex 14.7839 1.01684 -5
      vertex 19.8361 1.55934 -5
      vertex 14.9454 0.519779 -5
    endloop
  endfacet
  facet normal 0 0 -1
    outer loop
      vertex 14.9454 0.519779 -5
      vertex 19.8361 1.55934 -5
      vertex 15 0 -5
    endloop
  endfacet
  facet normal 0 0 -1
    outer loop
      vertex 10.4775 1.46946 -5
      vertex 4.89074 1.03956 -5
      vertex 10.8272 1.85786 -5
    endloop
  endfacet
  facet normal 0 0 -1
    outer loop
      vertex 12.2387 2.4863 -5
      vertex 4.56773 2.03368 -5
      vertex 19.3516 3.05052 -5
    endloop
  endfacet
  facet normal 0 0 -1
    outer loop
      vertex 4.04508 2.93893 -5
      vertex 18.5676 4.40839 -5
      vertex 4.56773 2.03368 -5
    endloop
  endfacet
  facet normal 0 0 -1
    outer loop
      vertex -4.56773 2.03368 -5
      vertex -10.2161 1.01684 -5
      vertex -4.04508 2.93893 -5
    endloop
  endfacet
  facet normal 0 0 -1
    outer loop
      vertex 1.54508 4.75528 -5
      vertex 13.284 7.45891 -5
      vertex 2.5 4.33013 -5
    endloop
  endfacet
  facet normal 0 0 -1
    outer loop
      vertex 0.522642 4.97261 -5
      vertex 1.04529 9.94522 -5
      vertex 1.54508 4.75528 -5
    endloop
  endfacet
  facet normal 0 0 -1
    outer loop
      vertex -3.34565 3.71572 -5
      vertex -10.4775 1.46946 -5
      vertex -2.5 4.33013 -5
    endloop
  endfacet
  facet normal 0 0 -1
    outer loop
      vertex -0.522642 4.97261 -5
      vertex 1.04529 9.94522 -5
      vertex 0.522642 4.97261 -5
    endloop
  endfacet
  facet normal 0 0 -1
    outer loop
      vertex -1.54508 4.75528 -5
      vertex 1.04529 9.94522 -5
      vertex -0.522642 4.97261 -5
    endloop
  endfacet
  facet normal 0 0 -1
    outer loop
      vertex -10.4775 1.46946 -5
      vertex 1.04529 9.94522 -5
      vertex -1.54508 4.75528 -5
    endloop
  endfacet
  facet normal 0 0 -1
    outer loop
      vertex -10.4775 1.46946 -5
      vertex -1.54508 4.75528 -5
      vertex -2.5 4.33013 -5
    endloop
  endfacet
  facet normal 0 0 -1
    outer loop
      vertex -4.04508 2.93893 -5
      vertex -10.4775 1.46946 -5
      vertex -3.34565 3.71572 -5
    endloop
  endfacet
  facet normal 0 0 -1
    outer loop
      vertex -11.7275 2.37764 -5
      vertex 1.04529 9.94522 -5
      vertex -11.25 2.16506 -5
    endloop
  endfacet
  facet normal 0 0 -1
    outer loop
      vertex -10.2161 1.01684 -5
      vertex -4.56773 2.03368 -5
      vertex -10.0546 0.519779 -5
    endloop
  endfacet
  facet normal 0 0 -1
    outer loop
      vertex 3.34565 3.71572 -5
      vertex 16.25 6.49519 -5
      vertex 17.5185 5.57359 -5
    endloop
  endfacet
  facet normal 0 0 -1
    outer loop
      vertex 10.2161 -1.01684 -5
      vertex 4.89074 -1.03956 -5
      vertex 10.0546 -0.519779 -5
    endloop
  endfacet
  facet normal 0 0 -1
    outer loop
      vertex 15 0 -5
      vertex 19.8361 1.55934 -5
      vertex 20 0 -5
    endloop
  endfacet
  facet normal 0 0 -1
    outer loop
      vertex 4.56773 -2.03368 -5
      vertex 19.3516 -3.05052 -5
      vertex 4.04508 -2.93893 -5
    endloop
  endfacet
  facet normal 0 0 -1
    outer loop
      vertex 15 0 -5
      vertex 20 0 -5
      vertex 14.9454 -0.519779 -5
    endloop
  endfacet
  facet normal 0 0 -1
    outer loop
      vertex 4.89074 -1.03956 -5
      vertex 10.4775 -1.46946 -5
      vertex 4.56773 -2.03368 -5
    endloop
  endfacet
  facet normal 0 0 -1
    outer loop
      vertex -4.04508 -2.93893 -5
      vertex -10.8272 -1.85786 -5
      vertex -4.56773 -2.03368 -5
    endloop
  endfacet
  facet normal 0 0 -1
    outer loop
      vertex 13.2725 -2.37764 -5
      vertex 19.3516 -3.05052 -5
      vertex 12.7613 -2.4863 -5
    endloop
  endfacet
  facet normal 0 0 -1
    outer loop
      vertex 4.56773 -2.03368 -5
      vertex 10.8272 -1.85786 -5
      vertex 11.25 -2.16506 -5
    endloop
  endfacet
  facet normal 0 0 -1
    outer loop
      vertex 4.56773 -2.03368 -5
      vertex 11.25 -2.16506 -5
      vertex 11.7275 -2.37764 -5
    endloop
  endfacet
  facet normal 0 0 -1
    outer loop
      vertex 4.56773 -2.03368 -5
      vertex 11.7275 -2.37764 -5
      vertex 12.2387 -2.4863 -5
    endloop
  endfacet
  facet normal 0 0 -1
    outer loop
      vertex 4.56773 -2.03368 -5
      vertex 12.2387 -2.4863 -5
      vertex 19.3516 -3.05052 -5
    endloop
  endfacet
  facet normal 0 0 -1
    outer loop
      vertex 12.2387 -2.4863 -5
      vertex 12.7613 -2.4863 -5
      vertex 19.3516 -3.05052 -5
    endloop
  endfacet
  facet normal 0 0 -1
    outer loop
      vertex 13.75 -2.16506 -5
      vertex 19.3516 -3.05052 -5
      vertex 13.2725 -2.37764 -5
    endloop
  endfacet
  facet normal 0 0 -1
    outer loop
      vertex 14.1728 -1.85786 -5
      vertex 19.8361 -1.55934 -5
      vertex 13.75 -2.16506 -5
    endloop
  endfacet
  facet normal 0 0 -1
    outer loop
      vertex 14.5225 -1.46946 -5
      vertex 19.8361 -1.55934 -5
      vertex 14.1728 -1.85786 -5
    endloop
  endfacet
  facet normal 0 0 -1
    outer loop
      vertex 10.0546 0.519779 -5
      vertex 5 0 -5
      vertex 10.2161 1.01684 -5
    endloop
  endfacet
  facet normal 0 0 -1
    outer loop
      vertex 10.8272 -1.85786 -5
      vertex 4.56773 -2.03368 -5
      vertex 10.4775 -1.46946 -5
    endloop
  endfacet
  facet normal 0 0 -1
    outer loop
      vertex 14.7839 -1.01684 -5
      vertex 19.8361 -1.55934 -5
      vertex 14.5225 -1.46946 -5
    endloop
  endfacet
  facet normal 0 0 -1
    outer loop
      vertex 14.9454 -0.519779 -5
      vertex 20 0 -5
      vertex 14.7839 -1.01684 -5
    endloop
  endfacet
  facet normal 0 0 -1
    outer loop
      vertex 10.4775 -1.46946 -5
      vertex 4.89074 -1.03956 -5
      vertex 10.2161 -1.01684 -5
    endloop
  endfacet
  facet normal 0 0 -1
    outer loop
      vertex -4.56773 -2.03368 -5
      vertex -10.4775 -1.46946 -5
      vertex -4.89074 -1.03956 -5
    endloop
  endfacet
  facet normal 0 0 -1
    outer loop
      vertex 14.1728 1.85786 -5
      vertex 19.3516 3.05052 -5
      vertex 14.5225 1.46946 -5
    endloop
  endfacet
  facet normal 0 0 -1
    outer loop
      vertex 13.2725 2.37764 -5
      vertex 19.3516 3.05052 -5
      vertex 13.75 2.16506 -5
    endloop
  endfacet
  facet normal 0 0 -1
    outer loop
      vertex 13.75 2.16506 -5
      vertex 19.3516 3.05052 -5
      vertex 14.1728 1.85786 -5
    endloop
  endfacet
  facet normal 0 0 -1
    outer loop
      vertex 10.8272 1.85786 -5
      vertex 4.89074 1.03956 -5
      vertex 11.25 2.16506 -5
    endloop
  endfacet
  facet normal 0 0 -1
    outer loop
      vertex 4.56773 2.03368 -5
      vertex 11.25 2.16506 -5
      vertex 4.89074 1.03956 -5
    endloop
  endfacet
  facet normal 0 0 -1
    outer loop
      vertex 11.25 2.16506 -5
      vertex 4.56773 2.03368 -5
      vertex 11.7275 2.37764 -5
    endloop
  endfacet
  facet normal 0 0 -1
    outer loop
      vertex 13.2725 2.37764 -5
      vertex 12.7613 2.4863 -5
      vertex 19.3516 3.05052 -5
    endloop
  endfacet
  facet normal 0 0 -1
    outer loop
      vertex 12.7613 2.4863 -5
      vertex 12.2387 2.4863 -5
      vertex 19.3516 3.05052 -5
    endloop
  endfacet
  facet normal 0 0 -1
    outer loop
      vertex 5 0 -5
      vertex 10 0 -5
      vertex 10.0546 -0.519779 -5
    endloop
  endfacet
  facet normal 0 0 -1
    outer loop
      vertex -4.56773 -2.03368 -5
      vertex -10.8272 -1.85786 -5
      vertex -10.4775 -1.46946 -5
    endloop
  endfacet
  facet normal 0 0 -1
    outer loop
      vertex 10.2161 1.01684 -5
      vertex 4.89074 1.03956 -5
      vertex 10.4775 1.46946 -5
    endloop
  endfacet
  facet normal 0 0 -1
    outer loop
      vertex 11.7275 2.37764 -5
      vertex 4.56773 2.03368 -5
      vertex 12.2387 2.4863 -5
    endloop
  endfacet
  facet normal 0 0 -1
    outer loop
      vertex 5 0 -5
      vertex 10.0546 0.519779 -5
      vertex 10 0 -5
    endloop
  endfacet
  facet normal 0 0 -1
    outer loop
      vertex -14.9454 -0.519779 -5
      vertex -19.8361 -1.55934 -5
      vertex -15 0 -5
    endloop
  endfacet
  facet normal 0 0 -1
    outer loop
      vertex -10.4775 1.46946 -5
      vertex -4.04508 2.93893 -5
      vertex -10.2161 1.01684 -5
    endloop
  endfacet
  facet normal -0.994522 0.104528 0
    outer loop
      vertex -20 0 -5
      vertex -20 0 5
      vertex -19.8361 1.55934 -5
    endloop
  endfacet
  facet normal -0.994522 0.104528 0
    outer loop
      vertex -19.8361 1.55934 -5
      vertex -20 0 5
      vertex -19.8361 1.55934 5
    endloop
  endfacet
  facet normal 0 0 1
    outer loop
      vertex -19.8361 1.55934 5
      vertex -20 0 5
      vertex -19.8361 -1.55934 5
    endloop
  endfacet
  facet normal 0 0 1
    outer loop
      vertex -18.5676 -4.40839 5
      vertex -19.8361 1.55934 5
      vertex -19.3516 -3.05052 5
    endloop
  endfacet
  facet normal 0 0 1
    outer loop
      vertex -19.3516 -3.05052 5
      vertex -19.8361 1.55934 5
      vertex -19.8361 -1.55934 5
    endloop
  endfacet
  facet normal 0 0 1
    outer loop
      vertex -17.5185 -5.57359 5
      vertex -19.8361 1.55934 5
      vertex -18.5676 -4.40839 5
    endloop
  endfacet
  facet normal 0 0 1
    outer loop
      vertex -16.25 -6.49519 5
      vertex -19.8361 1.55934 5
      vertex -17.5185 -5.57359 5
    endloop
  endfacet
  facet normal 0 0 1
    outer loop
      vertex -14.8176 -7.13292 5
      vertex -19.8361 1.55934 5
      vertex -16.25 -6.49519 5
    endloop
  endfacet
  facet normal 0 0 1
    outer loop
      vertex -13.284 -7.45891 5
      vertex -19.8361 1.55934 5
      vertex -14.8176 -7.13292 5
    endloop
  endfacet
  facet normal 0 0 1
    outer loop
      vertex -1.04529 -9.94522 5
      vertex -19.8361 1.55934 5
      vertex -13.284 -7.45891 5
    endloop
  endfacet
  facet normal 0 0 1
    outer loop
      vertex -13.75 -2.16506 5
      vertex -19.8361 1.55934 5
      vertex -1.04529 -9.94522 5
    endloop
  endfacet
  facet normal 0 0 1
    outer loop
      vertex -14.1728 -1.85786 5
      vertex -14.5225 -1.46946 5
      vertex -19.8361 1.55934 5
    endloop
  endfacet
  facet normal 0 0 1
    outer loop
      vertex 4.56773 -2.03368 5
      vertex 4.04508 -2.93893 5
      vertex 17.5185 -5.57359 5
    endloop
  endfacet
  facet normal 0 0 1
    outer loop
      vertex -10.0546 -0.519779 5
      vertex -10.2161 -1.01684 5
      vertex -4.56773 -2.03368 5
    endloop
  endfacet
  facet normal 0 0 1
    outer loop
      vertex -14.7839 1.01684 5
      vertex -14.5225 1.46946 5
      vertex -19.8361 1.55934 5
    endloop
  endfacet
  facet normal 0 0 1
    outer loop
      vertex -14.5225 1.46946 5
      vertex -14.1728 1.85786 5
      vertex -19.8361 1.55934 5
    endloop
  endfacet
  facet normal 0 0 1
    outer loop
      vertex -10.4775 1.46946 5
      vertex -10.2161 1.01684 5
      vertex -4.89074 1.03956 5
    endloop
  endfacet
  facet normal 0 0 1
    outer loop
      vertex -14.1728 1.85786 5
      vertex -13.75 2.16506 5
      vertex -19.8361 1.55934 5
    endloop
  endfacet
  facet normal 0 0 1
    outer loop
      vertex -4.04508 2.93893 5
      vertex -12.2387 2.4863 5
      vertex -11.7275 2.37764 5
    endloop
  endfacet
  facet normal 0 0 1
    outer loop
      vertex -0.522642 4.97261 5
      vertex 14.8176 7.13292 5
      vertex 13.284 7.45891 5
    endloop
  endfacet
  facet normal 0 0 1
    outer loop
      vertex 1.04529 9.94522 5
      vertex -19.8361 1.55934 5
      vertex 13.284 7.45891 5
    endloop
  endfacet
  facet normal 0 0 1
    outer loop
      vertex -1.04529 9.94522 5
      vertex -19.8361 1.55934 5
      vertex 1.04529 9.94522 5
    endloop
  endfacet
  facet normal 0 0 1
    outer loop
      vertex -13.284 7.45891 5
      vertex -19.8361 1.55934 5
      vertex -1.04529 9.94522 5
    endloop
  endfacet
  facet normal 0 0 1
    outer loop
      vertex -14.8176 7.13292 5
      vertex -19.8361 1.55934 5
      vertex -13.284 7.45891 5
    endloop
  endfacet
  facet normal 0 0 1
    outer loop
      vertex -16.25 6.49519 5
      vertex -19.8361 1.55934 5
      vertex -14.8176 7.13292 5
    endloop
  endfacet
  facet normal 0 0 1
    outer loop
      vertex -17.5185 5.57359 5
      vertex -19.8361 1.55934 5
      vertex -16.25 6.49519 5
    endloop
  endfacet
  facet normal 0 0 1
    outer loop
      vertex -18.5676 4.40839 5
      vertex -19.8361 1.55934 5
      vertex -17.5185 5.57359 5
    endloop
  endfacet
  facet normal 0 0 1
    outer loop
      vertex -19.3516 3.05052 5
      vertex -19.8361 1.55934 5
      vertex -18.5676 4.40839 5
    endloop
  endfacet
  facet normal 0 0 1
    outer loop
      vertex -15 0 5
      vertex -19.8361 1.55934 5
      vertex -14.9454 -0.519779 5
    endloop
  endfacet
  facet normal 0 0 1
    outer loop
      vertex 3.34565 -3.71572 5
      vertex 2.5 -4.33013 5
      vertex 14.8176 -7.13292 5
    endloop
  endfacet
  facet normal 0 0 1
    outer loop
      vertex -4.56773 -2.03368 5
      vertex -10 0 5
      vertex -10.0546 -0.519779 5
    endloop
  endfacet
  facet normal 0 0 1
    outer loop
      vertex -4.56773 -2.03368 5
      vertex -4.89074 -1.03956 5
      vertex -10 0 5
    endloop
  endfacet
  facet normal 0 0 1
    outer loop
      vertex -5 0 5
      vertex -10.2161 1.01684 5
      vertex -10.0546 0.519779 5
    endloop
  endfacet
  facet normal 0 0 1
    outer loop
      vertex -3.34565 3.71572 5
      vertex -2.5 4.33013 5
      vertex -12.7613 2.4863 5
    endloop
  endfacet
  facet normal 0 0 1
    outer loop
      vertex -4.04508 2.93893 5
      vertex -3.34565 3.71572 5
      vertex -12.2387 2.4863 5
    endloop
  endfacet
  facet normal 0 0 1
    outer loop
      vertex -12.7613 2.4863 5
      vertex -2.5 4.33013 5
      vertex -19.8361 1.55934 5
    endloop
  endfacet
  facet normal 0 0 1
    outer loop
      vertex -12.7613 2.4863 5
      vertex -19.8361 1.55934 5
      vertex -13.2725 2.37764 5
    endloop
  endfacet
  facet normal 0 0 1
    outer loop
      vertex -2.5 4.33013 5
      vertex -1.54508 4.75528 5
      vertex -19.8361 1.55934 5
    endloop
  endfacet
  facet normal 0 0 1
    outer loop
      vertex 3.34565 3.71572 5
      vertex 4.04508 2.93893 5
      vertex 18.5676 4.40839 5
    endloop
  endfacet
  facet normal 0 0 1
    outer loop
      vertex 4.89074 -1.03956 5
      vertex 4.56773 -2.03368 5
      vertex 11.25 -2.16506 5
    endloop
  endfacet
  facet normal 0 0 1
    outer loop
      vertex -13.75 2.16506 5
      vertex -13.2725 2.37764 5
      vertex -19.8361 1.55934 5
    endloop
  endfacet
  facet normal 0 0 1
    outer loop
      vertex -4.56773 2.03368 5
      vertex -4.04508 2.93893 5
      vertex -11.7275 2.37764 5
    endloop
  endfacet
  facet normal 0 0 1
    outer loop
      vertex 10 0 5
      vertex 10.0546 0.519779 5
      vertex 4.89074 1.03956 5
    endloop
  endfacet
  facet normal 0 0 1
    outer loop
      vertex -5 0 5
      vertex -4.89074 1.03956 5
      vertex -10.2161 1.01684 5
    endloop
  endfacet
  facet normal 0 0 1
    outer loop
      vertex 4.56773 -2.03368 5
      vertex 17.5185 -5.57359 5
      vertex 18.5676 -4.40839 5
    endloop
  endfacet
  facet normal 0 0 1
    outer loop
      vertex -11.7275 -2.37764 5
      vertex -12.2387 -2.4863 5
      vertex 1.04529 -9.94522 5
    endloop
  endfacet
  facet normal 0 0 1
    outer loop
      vertex -1.54508 -4.75528 5
      vertex -10.8272 -1.85786 5
      vertex 1.04529 -9.94522 5
    endloop
  endfacet
  facet normal 0 0 1
    outer loop
      vertex -10.8272 -1.85786 5
      vertex -11.25 -2.16506 5
      vertex 1.04529 -9.94522 5
    endloop
  endfacet
  facet normal 0 0 1
    outer loop
      vertex -11.25 -2.16506 5
      vertex -11.7275 -2.37764 5
      vertex 1.04529 -9.94522 5
    endloop
  endfacet
  facet normal 0 0 1
    outer loop
      vertex 4.04508 -2.93893 5
      vertex 16.25 -6.49519 5
      vertex 17.5185 -5.57359 5
    endloop
  endfacet
  facet normal 0 0 1
    outer loop
      vertex 1.04529 -9.94522 5
      vertex -12.7613 -2.4863 5
      vertex -1.04529 -9.94522 5
    endloop
  endfacet
  facet normal 0 0 1
    outer loop
      vertex -12.7613 -2.4863 5
      vertex -13.2725 -2.37764 5
      vertex -1.04529 -9.94522 5
    endloop
  endfacet
  facet normal 0 0 1
    outer loop
      vertex -14.5225 -1.46946 5
      vertex -14.7839 -1.01684 5
      vertex -19.8361 1.55934 5
    endloop
  endfacet
  facet normal 0 0 1
    outer loop
      vertex -13.2725 -2.37764 5
      vertex -13.75 -2.16506 5
      vertex -1.04529 -9.94522 5
    endloop
  endfacet
  facet normal 0 0 1
    outer loop
      vertex -14.1728 -1.85786 5
      vertex -19.8361 1.55934 5
      vertex -13.75 -2.16506 5
    endloop
  endfacet
  facet normal 0 0 1
    outer loop
      vertex 13.75 -2.16506 5
      vertex 13.2725 -2.37764 5
      vertex 19.3516 -3.05052 5
    endloop
  endfacet
  facet normal 0 0 1
    outer loop
      vertex -14.9454 -0.519779 5
      vertex -19.8361 1.55934 5
      vertex -14.7839 -1.01684 5
    endloop
  endfacet
  facet normal 0 0 1
    outer loop
      vertex -4.89074 -1.03956 5
      vertex -10.0546 0.519779 5
      vertex -10 0 5
    endloop
  endfacet
  facet normal 0 0 1
    outer loop
      vertex -4.89074 1.03956 5
      vertex -4.56773 2.03368 5
      vertex -10.8272 1.85786 5
    endloop
  endfacet
  facet normal 0 0 1
    outer loop
      vertex -4.89074 1.03956 5
      vertex -10.8272 1.85786 5
      vertex -10.4775 1.46946 5
    endloop
  endfacet
  facet normal 0 0 1
    outer loop
      vertex 15 0 5
      vertex 14.9454 -0.519779 5
      vertex 20 0 5
    endloop
  endfacet
  facet normal 0 0 1
    outer loop
      vertex 4.04508 2.93893 5
      vertex 4.56773 2.03368 5
      vertex 19.3516 3.05052 5
    endloop
  endfacet
  facet normal 0 0 1
    outer loop
      vertex -3.34565 3.71572 5
      vertex -12.7613 2.4863 5
      vertex -12.2387 2.4863 5
    endloop
  endfacet
  facet normal 0 0 1
    outer loop
      vertex 4.56773 2.03368 5
      vertex 4.89074 1.03956 5
      vertex 10.4775 1.46946 5
    endloop
  endfacet
  facet normal 0 0 1
    outer loop
      vertex 4.89074 1.03956 5
      vertex 5 0 5
      vertex 10 0 5
    endloop
  endfacet
  facet normal 0 0 1
    outer loop
      vertex 1.54508 4.75528 5
      vertex 2.5 4.33013 5
      vertex 16.25 6.49519 5
    endloop
  endfacet
  facet normal 0 0 1
    outer loop
      vertex -0.522642 4.97261 5
      vertex 0.522642 4.97261 5
      vertex 14.8176 7.13292 5
    endloop
  endfacet
  facet normal 0 0 1
    outer loop
      vertex 0.522642 4.97261 5
      vertex 16.25 6.49519 5
      vertex 14.8176 7.13292 5
    endloop
  endfacet
  facet normal 0 0 1
    outer loop
      vertex -0.522642 4.97261 5
      vertex -19.8361 1.55934 5
      vertex -1.54508 4.75528 5
    endloop
  endfacet
  facet normal 0 0 1
    outer loop
      vertex 0.522642 4.97261 5
      vertex 1.54508 4.75528 5
      vertex 16.25 6.49519 5
    endloop
  endfacet
  facet normal 0 0 1
    outer loop
      vertex 13.284 7.45891 5
      vertex -19.8361 1.55934 5
      vertex -0.522642 4.97261 5
    endloop
  endfacet
  facet normal 0 0 1
    outer loop
      vertex 2.5 4.33013 5
      vertex 3.34565 3.71572 5
      vertex 17.5185 5.57359 5
    endloop
  endfacet
  facet normal 0 0 1
    outer loop
      vertex 16.25 6.49519 5
      vertex 2.5 4.33013 5
      vertex 17.5185 5.57359 5
    endloop
  endfacet
  facet normal 0 0 1
    outer loop
      vertex 17.5185 5.57359 5
      vertex 3.34565 3.71572 5
      vertex 18.5676 4.40839 5
    endloop
  endfacet
  facet normal 0 0 1
    outer loop
      vertex 18.5676 4.40839 5
      vertex 4.04508 2.93893 5
      vertex 19.3516 3.05052 5
    endloop
  endfacet
  facet normal 0 0 1
    outer loop
      vertex -4.56773 2.03368 5
      vertex -11.25 2.16506 5
      vertex -10.8272 1.85786 5
    endloop
  endfacet
  facet normal 0 0 1
    outer loop
      vertex 2.5 -4.33013 5
      vertex 1.54508 -4.75528 5
      vertex 13.284 -7.45891 5
    endloop
  endfacet
  facet normal 0 0 1
    outer loop
      vertex 12.2387 -2.4863 5
      vertex 11.7275 -2.37764 5
      vertex 4.56773 -2.03368 5
    endloop
  endfacet
  facet normal 0 0 1
    outer loop
      vertex 19.3516 -3.05052 5
      vertex 4.56773 -2.03368 5
      vertex 18.5676 -4.40839 5
    endloop
  endfacet
  facet normal 0 0 1
    outer loop
      vertex -4.89074 -1.03956 5
      vertex -5 0 5
      vertex -10.0546 0.519779 5
    endloop
  endfacet
  facet normal 0 0 1
    outer loop
      vertex 16.25 -6.49519 5
      vertex 3.34565 -3.71572 5
      vertex 14.8176 -7.13292 5
    endloop
  endfacet
  facet normal 0 0 1
    outer loop
      vertex 14.8176 -7.13292 5
      vertex 2.5 -4.33013 5
      vertex 13.284 -7.45891 5
    endloop
  endfacet
  facet normal 0 0 1
    outer loop
      vertex -4.04508 -2.93893 5
      vertex -4.56773 -2.03368 5
      vertex -10.2161 -1.01684 5
    endloop
  endfacet
  facet normal 0 0 1
    outer loop
      vertex 13.284 -7.45891 5
      vertex 1.54508 -4.75528 5
      vertex 1.04529 -9.94522 5
    endloop
  endfacet
  facet normal 0 0 1
    outer loop
      vertex 1.54508 -4.75528 5
      vertex 0.522642 -4.97261 5
      vertex 1.04529 -9.94522 5
    endloop
  endfacet
  facet normal 0 0 1
    outer loop
      vertex 0.522642 -4.97261 5
      vertex -0.522642 -4.97261 5
      vertex 1.04529 -9.94522 5
    endloop
  endfacet
  facet normal 0 0 1
    outer loop
      vertex -0.522642 -4.97261 5
      vertex -1.54508 -4.75528 5
      vertex 1.04529 -9.94522 5
    endloop
  endfacet
  facet normal 0 0 1
    outer loop
      vertex -2.5 -4.33013 5
      vertex -3.34565 -3.71572 5
      vertex -10.8272 -1.85786 5
    endloop
  endfacet
  facet normal 0 0 1
    outer loop
      vertex -3.34565 -3.71572 5
      vertex -10.4775 -1.46946 5
      vertex -10.8272 -1.85786 5
    endloop
  endfacet
  facet normal 0 0 1
    outer loop
      vertex 10.0546 0.519779 5
      vertex 10.2161 1.01684 5
      vertex 4.89074 1.03956 5
    endloop
  endfacet
  facet normal 0 0 1
    outer loop
      vertex -3.34565 -3.71572 5
      vertex -4.04508 -2.93893 5
      vertex -10.4775 -1.46946 5
    endloop
  endfacet
  facet normal 0 0 1
    outer loop
      vertex -1.54508 -4.75528 5
      vertex -2.5 -4.33013 5
      vertex -10.8272 -1.85786 5
    endloop
  endfacet
  facet normal 0 0 1
    outer loop
      vertex 10.2161 -1.01684 5
      vertex 10.0546 -0.519779 5
      vertex 5 0 5
    endloop
  endfacet
  facet normal 0 0 1
    outer loop
      vertex 10.0546 -0.519779 5
      vertex 10 0 5
      vertex 5 0 5
    endloop
  endfacet
  facet normal 0 0 1
    outer loop
      vertex 5 0 5
      vertex 4.89074 -1.03956 5
      vertex 10.2161 -1.01684 5
    endloop
  endfacet
  facet normal 0 0 1
    outer loop
      vertex 10.2161 1.01684 5
      vertex 10.4775 1.46946 5
      vertex 4.89074 1.03956 5
    endloop
  endfacet
  facet normal 0 0 1
    outer loop
      vertex -4.56773 2.03368 5
      vertex -11.7275 2.37764 5
      vertex -11.25 2.16506 5
    endloop
  endfacet
  facet normal 0 0 1
    outer loop
      vertex 14.9454 0.519779 5
      vertex 15 0 5
      vertex 20 0 5
    endloop
  endfacet
  facet normal 0 0 1
    outer loop
      vertex 12.7613 2.4863 5
      vertex 13.2725 2.37764 5
      vertex 19.3516 3.05052 5
    endloop
  endfacet
  facet normal 0 0 1
    outer loop
      vertex 14.5225 1.46946 5
      vertex 14.7839 1.01684 5
      vertex 19.8361 1.55934 5
    endloop
  endfacet
  facet normal 0 0 1
    outer loop
      vertex 11.25 2.16506 5
      vertex 4.56773 2.03368 5
      vertex 10.8272 1.85786 5
    endloop
  endfacet
  facet normal 0 0 1
    outer loop
      vertex 11.7275 2.37764 5
      vertex 4.56773 2.03368 5
      vertex 11.25 2.16506 5
    endloop
  endfacet
  facet normal 0 0 1
    outer loop
      vertex 13.2725 2.37764 5
      vertex 13.75 2.16506 5
      vertex 19.3516 3.05052 5
    endloop
  endfacet
  facet normal 0 0 1
    outer loop
      vertex 12.2387 2.4863 5
      vertex 4.56773 2.03368 5
      vertex 11.7275 2.37764 5
    endloop
  endfacet
  facet normal 0 0 1
    outer loop
      vertex 19.3516 3.05052 5
      vertex 4.56773 2.03368 5
      vertex 12.2387 2.4863 5
    endloop
  endfacet
  facet normal 0 0 1
    outer loop
      vertex 14.1728 1.85786 5
      vertex 14.5225 1.46946 5
      vertex 19.8361 1.55934 5
    endloop
  endfacet
  facet normal 0 0 1
    outer loop
      vertex 19.3516 3.05052 5
      vertex 12.2387 2.4863 5
      vertex 12.7613 2.4863 5
    endloop
  endfacet
  facet normal 0 0 1
    outer loop
      vertex 19.3516 3.05052 5
      vertex 13.75 2.16506 5
      vertex 19.8361 1.55934 5
    endloop
  endfacet
  facet normal 0 0 1
    outer loop
      vertex 13.75 2.16506 5
      vertex 14.1728 1.85786 5
      vertex 19.8361 1.55934 5
    endloop
  endfacet
  facet normal 0 0 1
    outer loop
      vertex 10.4775 1.46946 5
      vertex 10.8272 1.85786 5
      vertex 4.56773 2.03368 5
    endloop
  endfacet
  facet normal 0 0 1
    outer loop
      vertex 19.8361 1.55934 5
      vertex 14.7839 1.01684 5
      vertex 20 0 5
    endloop
  endfacet
  facet normal 0 0 1
    outer loop
      vertex 14.7839 1.01684 5
      vertex 14.9454 0.519779 5
      vertex 20 0 5
    endloop
  endfacet
  facet normal 0 0 1
    outer loop
      vertex 20 0 5
      vertex 14.9454 -0.519779 5
      vertex 19.8361 -1.55934 5
    endloop
  endfacet
  facet normal 0 0 1
    outer loop
      vertex 14.9454 -0.519779 5
      vertex 14.7839 -1.01684 5
      vertex 19.8361 -1.55934 5
    endloop
  endfacet
  facet normal 0 0 1
    outer loop
      vertex 19.8361 -1.55934 5
      vertex 14.5225 -1.46946 5
      vertex 19.3516 -3.05052 5
    endloop
  endfacet
  facet normal 0 0 1
    outer loop
      vertex 14.5225 -1.46946 5
      vertex 14.1728 -1.85786 5
      vertex 19.3516 -3.05052 5
    endloop
  endfacet
  facet normal 0 0 1
    outer loop
      vertex 14.1728 -1.85786 5
      vertex 13.75 -2.16506 5
      vertex 19.3516 -3.05052 5
    endloop
  endfacet
  facet normal 0 0 1
    outer loop
      vertex 10.4775 -1.46946 5
      vertex 10.2161 -1.01684 5
      vertex 4.89074 -1.03956 5
    endloop
  endfacet
  facet normal 0 0 1
    outer loop
      vertex 11.25 -2.16506 5
      vertex 10.8272 -1.85786 5
      vertex 4.89074 -1.03956 5
    endloop
  endfacet
  facet normal 0 0 1
    outer loop
      vertex 11.7275 -2.37764 5
      vertex 11.25 -2.16506 5
      vertex 4.56773 -2.03368 5
    endloop
  endfacet
  facet normal 0 0 1
    outer loop
      vertex 19.3516 -3.05052 5
      vertex 13.2725 -2.37764 5
      vertex 12.7613 -2.4863 5
    endloop
  endfacet
  facet normal 0 0 1
    outer loop
      vertex 19.3516 -3.05052 5
      vertex 12.2387 -2.4863 5
      vertex 4.56773 -2.03368 5
    endloop
  endfacet
  facet normal 0 0 1
    outer loop
      vertex 19.3516 -3.05052 5
      vertex 12.7613 -2.4863 5
      vertex 12.2387 -2.4863 5
    endloop
  endfacet
  facet normal 0 0 1
    outer loop
      vertex 10.8272 -1.85786 5
      vertex 10.4775 -1.46946 5
      vertex 4.89074 -1.03956 5
    endloop
  endfacet
  facet normal 0 0 1
    outer loop
      vertex -10.2161 -1.01684 5
      vertex -10.4775 -1.46946 5
      vertex -4.04508 -2.93893 5
    endloop
  endfacet
  facet normal 0 0 1
    outer loop
      vertex 14.7839 -1.01684 5
      vertex 14.5225 -1.46946 5
      vertex 19.8361 -1.55934 5
    endloop
  endfacet
  facet normal 0 0 1
    outer loop
      vertex -12.2387 -2.4863 5
      vertex -12.7613 -2.4863 5
      vertex 1.04529 -9.94522 5
    endloop
  endfacet
  facet normal 0 0 1
    outer loop
      vertex -15 0 5
      vertex -14.9454 0.519779 5
      vertex -19.8361 1.55934 5
    endloop
  endfacet
  facet normal 0 0 1
    outer loop
      vertex 4.04508 -2.93893 5
      vertex 3.34565 -3.71572 5
      vertex 16.25 -6.49519 5
    endloop
  endfacet
  facet normal 0 0 1
    outer loop
      vertex -14.9454 0.519779 5
      vertex -14.7839 1.01684 5
      vertex -19.8361 1.55934 5
    endloop
  endfacet
  facet normal -0.951057 -0.309017 0
    outer loop
      vertex -19.8361 -1.55934 -5
      vertex -19.3516 -3.05052 -5
      vertex -19.8361 -1.55934 5
    endloop
  endfacet
  facet normal -0.951057 -0.309017 0
    outer loop
      vertex -19.8361 -1.55934 5
      vertex -19.3516 -3.05052 -5
      vertex -19.3516 -3.05052 5
    endloop
  endfacet
  facet normal -0.866025 -0.5 0
    outer loop
      vertex -19.3516 -3.05052 -5
      vertex -18.5676 -4.40839 -5
      vertex -19.3516 -3.05052 5
    endloop
  endfacet
  facet normal -0.866025 -0.5 0
    outer loop
      vertex -19.3516 -3.05052 5
      vertex -18.5676 -4.40839 -5
      vertex -18.5676 -4.40839 5
    endloop
  endfacet
  facet normal -0.743145 -0.66913 0
    outer loop
      vertex -18.5676 -4.40839 -5
      vertex -17.5185 -5.57359 -5
      vertex -18.5676 -4.40839 5
    endloop
  endfacet
  facet normal -0.743145 -0.66913 0
    outer loop
      vertex -18.5676 -4.40839 5
      vertex -17.5185 -5.57359 -5
      vertex -17.5185 -5.57359 5
    endloop
  endfacet
  facet normal -0.587785 -0.809017 0
    outer loop
      vertex -17.5185 -5.57359 5
      vertex -17.5185 -5.57359 -5
      vertex -16.25 -6.49519 -5
    endloop
  endfacet
  facet normal -0.587785 -0.809017 0
    outer loop
      vertex -16.25 -6.49519 5
      vertex -17.5185 -5.57359 5
      vertex -16.25 -6.49519 -5
    endloop
  endfacet
  facet normal -0.406736 -0.913546 0
    outer loop
      vertex -16.25 -6.49519 5
      vertex -16.25 -6.49519 -5
      vertex -14.8176 -7.13292 -5
    endloop
  endfacet
  facet normal -0.406736 -0.913546 0
    outer loop
      vertex -14.8176 -7.13292 5
      vertex -16.25 -6.49519 5
      vertex -14.8176 -7.13292 -5
    endloop
  endfacet
  facet normal -0.207911 -0.978148 0
    outer loop
      vertex -14.8176 -7.13292 5
      vertex -14.8176 -7.13292 -5
      vertex -13.284 -7.45891 -5
    endloop
  endfacet
  facet normal -0.207911 -0.978148 0
    outer loop
      vertex -13.284 -7.45891 5
      vertex -14.8176 -7.13292 5
      vertex -13.284 -7.45891 -5
    endloop
  endfacet
  facet normal -0.199085 -0.979982 0
    outer loop
      vertex -13.284 -7.45891 5
      vertex -13.284 -7.45891 -5
      vertex -1.04529 -9.94522 -5
    endloop
  endfacet
  facet normal -0.199085 -0.979982 0
    outer loop
      vertex -1.04529 -9.94522 5
      vertex -13.284 -7.45891 5
      vertex -1.04529 -9.94522 -5
    endloop
  endfacet
  facet normal 0 -1 0
    outer loop
      vertex -1.04529 -9.94522 5
      vertex -1.04529 -9.94522 -5
      vertex 1.04529 -9.94522 -5
    endloop
  endfacet
  facet normal 0 -1 0
    outer loop
      vertex 1.04529 -9.94522 5
      vertex -1.04529 -9.94522 5
      vertex 1.04529 -9.94522 -5
    endloop
  endfacet
  facet normal 0.199085 -0.979982 0
    outer loop
      vertex 1.04529 -9.94522 5
      vertex 1.04529 -9.94522 -5
      vertex 13.284 -7.45891 -5
    endloop
  endfacet
  facet normal 0.199085 -0.979982 0
    outer loop
      vertex 13.284 -7.45891 5
      vertex 1.04529 -9.94522 5
      vertex 13.284 -7.45891 -5
    endloop
  endfacet
  facet normal 0.207911 -0.978148 0
    outer loop
      vertex 13.284 -7.45891 5
      vertex 13.284 -7.45891 -5
      vertex 14.8176 -7.13292 -5
    endloop
  endfacet
  facet normal 0.207911 -0.978148 0
    outer loop
      vertex 14.8176 -7.13292 5
      vertex 13.284 -7.45891 5
      vertex 14.8176 -7.13292 -5
    endloop
  endfacet
  facet normal 0.406736 -0.913546 0
    outer loop
      vertex 14.8176 -7.13292 5
      vertex 14.8176 -7.13292 -5
      vertex 16.25 -6.49519 -5
    endloop
  endfacet
  facet normal 0.406736 -0.913546 0
    outer loop
      vertex 16.25 -6.49519 5
      vertex 14.8176 -7.13292 5
      vertex 16.25 -6.49519 -5
    endloop
  endfacet
  facet normal 0.587785 -0.809017 0
    outer loop
      vertex 16.25 -6.49519 5
      vertex 16.25 -6.49519 -5
      vertex 17.5185 -5.57359 -5
    endloop
  endfacet
  facet normal 0.587785 -0.809017 0
    outer loop
      vertex 17.5185 -5.57359 5
      vertex 16.25 -6.49519 5
      vertex 17.5185 -5.57359 -5
    endloop
  endfacet
  facet normal 0.743145 -0.66913 0
    outer loop
      vertex 17.5185 -5.57359 5
      vertex 17.5185 -5.57359 -5
      vertex 18.5676 -4.40839 -5
    endloop
  endfacet
  facet normal 0.743145 -0.66913 0
    outer loop
      vertex 18.5676 -4.40839 5
      vertex 17.5185 -5.57359 5
      vertex 18.5676 -4.40839 -5
    endloop
  endfacet
  facet normal 0.866025 -0.5 0
    outer loop
      vertex 18.5676 -4.40839 5
      vertex 18.5676 -4.40839 -5
      vertex 19.3516 -3.05052 -5
    endloop
  endfacet
  facet normal 0.866025 -0.5 0
    outer loop
      vertex 19.3516 -3.05052 5
      vertex 18.5676 -4.40839 5
      vertex 19.3516 -3.05052 -5
    endloop
  endfacet
  facet normal 0.951057 -0.309017 0
    outer loop
      vertex 19.3516 -3.05052 5
      vertex 19.3516 -3.05052 -5
      vertex 19.8361 -1.55934 -5
    endloop
  endfacet
  facet normal 0.951057 -0.309017 0
    outer loop
      vertex 19.8361 -1.55934 5
      vertex 19.3516 -3.05052 5
      vertex 19.8361 -1.55934 -5
    endloop
  endfacet
  facet normal 0.994522 -0.104528 0
    outer loop
      vertex 19.8361 -1.55934 5
      vertex 19.8361 -1.55934 -5
      vertex 20 0 -5
    endloop
  endfacet
  facet normal 0.994522 -0.104528 0
    outer loop
      vertex 20 0 5
      vertex 19.8361 -1.55934 5
      vertex 20 0 -5
    endloop
  endfacet
  facet normal 0.994522 0.104528 0
    outer loop
      vertex 20 0 -5
      vertex 19.8361 1.55934 -5
      vertex 19.8361 1.55934 5
    endloop
  endfacet
  facet normal 0.994522 0.104528 0
    outer loop
      vertex 20 0 5
      vertex 20 0 -5
      vertex 19.8361 1.55934 5
    endloop
  endfacet
  facet normal 0.951057 0.309017 0
    outer loop
      vertex 19.8361 1.55934 -5
      vertex 19.3516 3.05052 -5
      vertex 19.3516 3.05052 5
    endloop
  endfacet
  facet normal 0.951057 0.309017 0
    outer loop
      vertex 19.8361 1.55934 5
      vertex 19.8361 1.55934 -5
      vertex 19.3516 3.05052 5
    endloop
  endfacet
  facet normal 0.866025 0.5 0
    outer loop
      vertex 19.3516 3.05052 -5
      vertex 18.5676 4.40839 -5
      vertex 18.5676 4.40839 5
    endloop
  endfacet
  facet normal 0.866025 0.5 0
    outer loop
      vertex 19.3516 3.05052 5
      vertex 19.3516 3.05052 -5
      vertex 18.5676 4.40839 5
    endloop
  endfacet
  facet normal 0.743145 0.66913 0
    outer loop
      vertex 18.5676 4.40839 -5
      vertex 17.5185 5.57359 -5
      vertex 17.5185 5.57359 5
    endloop
  endfacet
  facet normal 0.743145 0.66913 0
    outer loop
      vertex 18.5676 4.40839 5
      vertex 18.5676 4.40839 -5
      vertex 17.5185 5.57359 5
    endloop
  endfacet
  facet normal 0.587785 0.809017 0
    outer loop
      vertex 16.25 6.49519 -5
      vertex 16.25 6.49519 5
      vertex 17.5185 5.57359 -5
    endloop
  endfacet
  facet normal 0.587785 0.809017 0
    outer loop
      vertex 17.5185 5.57359 -5
      vertex 16.25 6.49519 5
      vertex 17.5185 5.57359 5
    endloop
  endfacet
  facet normal 0.406736 0.913546 0
    outer loop
      vertex 14.8176 7.13292 -5
      vertex 14.8176 7.13292 5
      vertex 16.25 6.49519 -5
    endloop
  endfacet
  facet normal 0.406736 0.913546 0
    outer loop
      vertex 16.25 6.49519 -5
      vertex 14.8176 7.13292 5
      vertex 16.25 6.49519 5
    endloop
  endfacet
  facet normal 0.207911 0.978148 0
    outer loop
      vertex 13.284 7.45891 -5
      vertex 13.284 7.45891 5
      vertex 14.8176 7.13292 -5
    endloop
  endfacet
  facet normal 0.207911 0.978148 0
    outer loop
      vertex 14.8176 7.13292 -5
      vertex 13.284 7.45891 5
      vertex 14.8176 7.13292 5
    endloop
  endfacet
  facet normal 0.199085 0.979982 0
    outer loop
      vertex 1.04529 9.94522 -5
      vertex 1.04529 9.94522 5
      vertex 13.284 7.45891 -5
    endloop
  endfacet
  facet normal 0.199085 0.979982 0
    outer loop
      vertex 13.284 7.45891 -5
      vertex 1.04529 9.94522 5
      vertex 13.284 7.45891 5
    endloop
  endfacet
  facet normal 0 1 0
    outer loop
      vertex -1.04529 9.94522 -5
      vertex -1.04529 9.94522 5
      vertex 1.04529 9.94522 -5
    endloop
  endfacet
  facet normal 0 1 0
    outer loop
      vertex 1.04529 9.94522 -5
      vertex -1.04529 9.94522 5
      vertex 1.04529 9.94522 5
    endloop
  endfacet
  facet normal -0.199085 0.979982 0
    outer loop
      vertex -13.284 7.45891 -5
      vertex -13.284 7.45891 5
      vertex -1.04529 9.94522 -5
    endloop
  endfacet
  facet normal -0.199085 0.979982 0
    outer loop
      vertex -1.04529 9.94522 -5
      vertex -13.284 7.45891 5
      vertex -1.04529 9.94522 5
    endloop
  endfacet
  facet normal -0.207911 0.978148 0
    outer loop
      vertex -14.8176 7.13292 -5
      vertex -14.8176 7.13292 5
      vertex -13.284 7.45891 -5
    endloop
  endfacet
  facet normal -0.207911 0.978148 0
    outer loop
      vertex -13.284 7.45891 -5
      vertex -14.8176 7.13292 5
      vertex -13.284 7.45891 5
    endloop
  endfacet
  facet normal -0.406736 0.913546 0
    outer loop
      vertex -16.25 6.49519 -5
      vertex -16.25 6.49519 5
      vertex -14.8176 7.13292 -5
    endloop
  endfacet
  facet normal -0.406736 0.913546 0
    outer loop
      vertex -14.8176 7.13292 -5
      vertex -16.25 6.49519 5
      vertex -14.8176 7.13292 5
    endloop
  endfacet
  facet normal -0.587785 0.809017 0
    outer loop
      vertex -17.5185 5.57359 -5
      vertex -17.5185 5.57359 5
      vertex -16.25 6.49519 -5
    endloop
  endfacet
  facet normal -0.587785 0.809017 0
    outer loop
      vertex -16.25 6.49519 -5
      vertex -17.5185 5.57359 5
      vertex -16.25 6.49519 5
    endloop
  endfacet
  facet normal -0.743145 0.66913 0
    outer loop
      vertex -18.5676 4.40839 -5
      vertex -18.5676 4.40839 5
      vertex -17.5185 5.57359 -5
    endloop
  endfacet
  facet normal -0.743145 0.66913 0
    outer loop
      vertex -17.5185 5.57359 -5
      vertex -18.5676 4.40839 5
      vertex -17.5185 5.57359 5
    endloop
  endfacet
  facet normal -0.866025 0.5 0
    outer loop
      vertex -19.3516 3.05052 -5
      vertex -19.3516 3.05052 5
      vertex -18.5676 4.40839 -5
    endloop
  endfacet
  facet normal -0.866025 0.5 0
    outer loop
      vertex -18.5676 4.40839 -5
      vertex -19.3516 3.05052 5
      vertex -18.5676 4.40839 5
    endloop
  endfacet
  facet normal -0.951057 0.309017 0
    outer loop
      vertex -19.8361 1.55934 -5
      vertex -19.8361 1.55934 5
      vertex -19.3516 3.05052 -5
    endloop
  endfacet
  facet normal -0.951057 0.309017 0
    outer loop
      vertex -19.3516 3.05052 -5
      vertex -19.8361 1.55934 5
      vertex -19.3516 3.05052 5
    endloop
  endfacet
  facet normal 0.994522 0.104529 0
    outer loop
      vertex -15 0 5
      vertex -14.9454 -0.519779 5
      vertex -14.9454 -0.519779 -5
    endloop
  endfacet
  facet normal 0.994522 0.104529 0
    outer loop
      vertex -15 0 -5
      vertex -15 0 5
      vertex -14.9454 -0.519779 -5
    endloop
  endfacet
  facet normal 0.994522 -0.104529 0
    outer loop
      vertex -14.9454 0.519779 -5
      vertex -14.9454 0.519779 5
      vertex -15 0 5
    endloop
  endfacet
  facet normal 0.994522 -0.104529 0
    outer loop
      vertex -15 0 -5
      vertex -14.9454 0.519779 -5
      vertex -15 0 5
    endloop
  endfacet
  facet normal 0.951057 -0.309016 0
    outer loop
      vertex -14.7839 1.01684 -5
      vertex -14.7839 1.01684 5
      vertex -14.9454 0.519779 5
    endloop
  endfacet
  facet normal 0.951057 -0.309016 0
    outer loop
      vertex -14.9454 0.519779 -5
      vertex -14.7839 1.01684 -5
      vertex -14.9454 0.519779 5
    endloop
  endfacet
  facet normal 0.866024 -0.500002 0
    outer loop
      vertex -14.5225 1.46946 -5
      vertex -14.5225 1.46946 5
      vertex -14.7839 1.01684 5
    endloop
  endfacet
  facet normal 0.866024 -0.500002 0
    outer loop
      vertex -14.7839 1.01684 -5
      vertex -14.5225 1.46946 -5
      vertex -14.7839 1.01684 5
    endloop
  endfacet
  facet normal 0.743146 -0.66913 0
    outer loop
      vertex -14.1728 1.85786 -5
      vertex -14.1728 1.85786 5
      vertex -14.5225 1.46946 5
    endloop
  endfacet
  facet normal 0.743146 -0.66913 0
    outer loop
      vertex -14.5225 1.46946 -5
      vertex -14.1728 1.85786 -5
      vertex -14.5225 1.46946 5
    endloop
  endfacet
  facet normal 0.587786 -0.809017 0
    outer loop
      vertex -13.75 2.16506 -5
      vertex -13.75 2.16506 5
      vertex -14.1728 1.85786 5
    endloop
  endfacet
  facet normal 0.587786 -0.809017 0
    outer loop
      vertex -14.1728 1.85786 -5
      vertex -13.75 2.16506 -5
      vertex -14.1728 1.85786 5
    endloop
  endfacet
  facet normal 0.406735 -0.913546 0
    outer loop
      vertex -13.2725 2.37764 -5
      vertex -13.2725 2.37764 5
      vertex -13.75 2.16506 5
    endloop
  endfacet
  facet normal 0.406735 -0.913546 0
    outer loop
      vertex -13.75 2.16506 -5
      vertex -13.2725 2.37764 -5
      vertex -13.75 2.16506 5
    endloop
  endfacet
  facet normal 0.207913 -0.978147 0
    outer loop
      vertex -12.7613 2.4863 -5
      vertex -12.7613 2.4863 5
      vertex -13.2725 2.37764 5
    endloop
  endfacet
  facet normal 0.207913 -0.978147 0
    outer loop
      vertex -13.2725 2.37764 -5
      vertex -12.7613 2.4863 -5
      vertex -13.2725 2.37764 5
    endloop
  endfacet
  facet normal 0 -1 0
    outer loop
      vertex -12.2387 2.4863 -5
      vertex -12.2387 2.4863 5
      vertex -12.7613 2.4863 5
    endloop
  endfacet
  facet normal 0 -1 0
    outer loop
      vertex -12.7613 2.4863 -5
      vertex -12.2387 2.4863 -5
      vertex -12.7613 2.4863 5
    endloop
  endfacet
  facet normal -0.207913 -0.978147 0
    outer loop
      vertex -11.7275 2.37764 -5
      vertex -11.7275 2.37764 5
      vertex -12.2387 2.4863 5
    endloop
  endfacet
  facet normal -0.207913 -0.978147 0
    outer loop
      vertex -12.2387 2.4863 -5
      vertex -11.7275 2.37764 -5
      vertex -12.2387 2.4863 5
    endloop
  endfacet
  facet normal -0.406735 -0.913546 0
    outer loop
      vertex -11.25 2.16506 -5
      vertex -11.25 2.16506 5
      vertex -11.7275 2.37764 5
    endloop
  endfacet
  facet normal -0.406735 -0.913546 0
    outer loop
      vertex -11.7275 2.37764 -5
      vertex -11.25 2.16506 -5
      vertex -11.7275 2.37764 5
    endloop
  endfacet
  facet normal -0.587786 -0.809017 0
    outer loop
      vertex -10.8272 1.85786 -5
      vertex -10.8272 1.85786 5
      vertex -11.25 2.16506 5
    endloop
  endfacet
  facet normal -0.587786 -0.809017 0
    outer loop
      vertex -11.25 2.16506 -5
      vertex -10.8272 1.85786 -5
      vertex -11.25 2.16506 5
    endloop
  endfacet
  facet normal -0.743146 -0.66913 0
    outer loop
      vertex -10.4775 1.46946 5
      vertex -10.8272 1.85786 5
      vertex -10.4775 1.46946 -5
    endloop
  endfacet
  facet normal -0.743146 -0.66913 0
    outer loop
      vertex -10.4775 1.46946 -5
      vertex -10.8272 1.85786 5
      vertex -10.8272 1.85786 -5
    endloop
  endfacet
  facet normal -0.866024 -0.500002 0
    outer loop
      vertex -10.2161 1.01684 5
      vertex -10.4775 1.46946 5
      vertex -10.2161 1.01684 -5
    endloop
  endfacet
  facet normal -0.866024 -0.500002 0
    outer loop
      vertex -10.2161 1.01684 -5
      vertex -10.4775 1.46946 5
      vertex -10.4775 1.46946 -5
    endloop
  endfacet
  facet normal -0.951057 -0.309016 0
    outer loop
      vertex -10.0546 0.519779 5
      vertex -10.2161 1.01684 5
      vertex -10.0546 0.519779 -5
    endloop
  endfacet
  facet normal -0.951057 -0.309016 0
    outer loop
      vertex -10.0546 0.519779 -5
      vertex -10.2161 1.01684 5
      vertex -10.2161 1.01684 -5
    endloop
  endfacet
  facet normal -0.994522 -0.104529 0
    outer loop
      vertex -10 0 5
      vertex -10.0546 0.519779 5
      vertex -10 0 -5
    endloop
  endfacet
  facet normal -0.994522 -0.104529 0
    outer loop
      vertex -10 0 -5
      vertex -10.0546 0.519779 5
      vertex -10.0546 0.519779 -5
    endloop
  endfacet
  facet normal -0.994522 0.104529 0
    outer loop
      vertex -10 0 5
      vertex -10 0 -5
      vertex -10.0546 -0.519779 5
    endloop
  endfacet
  facet normal -0.994522 0.104529 0
    outer loop
      vertex -10.0546 -0.519779 5
      vertex -10 0 -5
      vertex -10.0546 -0.519779 -5
    endloop
  endfacet
  facet normal -0.951057 0.309016 0
    outer loop
      vertex -10.0546 -0.519779 5
      vertex -10.0546 -0.519779 -5
      vertex -10.2161 -1.01684 5
    endloop
  endfacet
  facet normal -0.951057 0.309016 0
    outer loop
      vertex -10.2161 -1.01684 5
      vertex -10.0546 -0.519779 -5
      vertex -10.2161 -1.01684 -5
    endloop
  endfacet
  facet normal -0.866024 0.500002 0
    outer loop
      vertex -10.2161 -1.01684 5
      vertex -10.2161 -1.01684 -5
      vertex -10.4775 -1.46946 5
    endloop
  endfacet
  facet normal -0.866024 0.500002 0
    outer loop
      vertex -10.4775 -1.46946 5
      vertex -10.2161 -1.01684 -5
      vertex -10.4775 -1.46946 -5
    endloop
  endfacet
  facet normal -0.743146 0.66913 0
    outer loop
      vertex -10.4775 -1.46946 5
      vertex -10.4775 -1.46946 -5
      vertex -10.8272 -1.85786 5
    endloop
  endfacet
  facet normal -0.743146 0.66913 0
    outer loop
      vertex -10.8272 -1.85786 5
      vertex -10.4775 -1.46946 -5
      vertex -10.8272 -1.85786 -5
    endloop
  endfacet
  facet normal -0.587786 0.809017 0
    outer loop
      vertex -10.8272 -1.85786 5
      vertex -10.8272 -1.85786 -5
      vertex -11.25 -2.16506 5
    endloop
  endfacet
  facet normal -0.587786 0.809017 0
    outer loop
      vertex -11.25 -2.16506 5
      vertex -10.8272 -1.85786 -5
      vertex -11.25 -2.16506 -5
    endloop
  endfacet
  facet normal -0.406735 0.913546 0
    outer loop
      vertex -11.25 -2.16506 5
      vertex -11.25 -2.16506 -5
      vertex -11.7275 -2.37764 5
    endloop
  endfacet
  facet normal -0.406735 0.913546 0
    outer loop
      vertex -11.7275 -2.37764 5
      vertex -11.25 -2.16506 -5
      vertex -11.7275 -2.37764 -5
    endloop
  endfacet
  facet normal -0.207913 0.978147 0
    outer loop
      vertex -11.7275 -2.37764 5
      vertex -11.7275 -2.37764 -5
      vertex -12.2387 -2.4863 5
    endloop
  endfacet
  facet normal -0.207913 0.978147 0
    outer loop
      vertex -12.2387 -2.4863 5
      vertex -11.7275 -2.37764 -5
      vertex -12.2387 -2.4863 -5
    endloop
  endfacet
  facet normal 0 1 0
    outer loop
      vertex -12.2387 -2.4863 5
      vertex -12.2387 -2.4863 -5
      vertex -12.7613 -2.4863 5
    endloop
  endfacet
  facet normal 0 1 0
    outer loop
      vertex -12.7613 -2.4863 5
      vertex -12.2387 -2.4863 -5
      vertex -12.7613 -2.4863 -5
    endloop
  endfacet
  facet normal 0.207913 0.978147 0
    outer loop
      vertex -12.7613 -2.4863 5
      vertex -12.7613 -2.4863 -5
      vertex -13.2725 -2.37764 5
    endloop
  endfacet
  facet normal 0.207913 0.978147 0
    outer loop
      vertex -13.2725 -2.37764 5
      vertex -12.7613 -2.4863 -5
      vertex -13.2725 -2.37764 -5
    endloop
  endfacet
  facet normal 0.406735 0.913546 0
    outer loop
      vertex -13.2725 -2.37764 5
      vertex -13.2725 -2.37764 -5
      vertex -13.75 -2.16506 5
    endloop
  endfacet
  facet normal 0.406735 0.913546 0
    outer loop
      vertex -13.75 -2.16506 5
      vertex -13.2725 -2.37764 -5
      vertex -13.75 -2.16506 -5
    endloop
  endfacet
  facet normal 0.587786 0.809017 0
    outer loop
      vertex -13.75 -2.16506 5
      vertex -13.75 -2.16506 -5
      vertex -14.1728 -1.85786 5
    endloop
  endfacet
  facet normal 0.587786 0.809017 0
    outer loop
      vertex -14.1728 -1.85786 5
      vertex -13.75 -2.16506 -5
      vertex -14.1728 -1.85786 -5
    endloop
  endfacet
  facet normal 0.743146 0.66913 0
    outer loop
      vertex -14.5225 -1.46946 5
      vertex -14.1728 -1.85786 5
      vertex -14.1728 -1.85786 -5
    endloop
  endfacet
  facet normal 0.743146 0.66913 0
    outer loop
      vertex -14.5225 -1.46946 -5
      vertex -14.5225 -1.46946 5
      vertex -14.1728 -1.85786 -5
    endloop
  endfacet
  facet normal 0.866024 0.500002 0
    outer loop
      vertex -14.7839 -1.01684 5
      vertex -14.5225 -1.46946 5
      vertex -14.5225 -1.46946 -5
    endloop
  endfacet
  facet normal 0.866024 0.500002 0
    outer loop
      vertex -14.7839 -1.01684 -5
      vertex -14.7839 -1.01684 5
      vertex -14.5225 -1.46946 -5
    endloop
  endfacet
  facet normal 0.951057 0.309016 0
    outer loop
      vertex -14.9454 -0.519779 5
      vertex -14.7839 -1.01684 5
      vertex -14.7839 -1.01684 -5
    endloop
  endfacet
  facet normal 0.951057 0.309016 0
    outer loop
      vertex -14.9454 -0.519779 -5
      vertex -14.9454 -0.519779 5
      vertex -14.7839 -1.01684 -5
    endloop
  endfacet
  facet normal 0.994522 0.104529 0
    outer loop
      vertex -5 0 5
      vertex -4.89074 -1.03956 5
      vertex -4.89074 -1.03956 -5
    endloop
  endfacet
  facet normal 0.994522 0.104529 0
    outer loop
      vertex -5 0 -5
      vertex -5 0 5
      vertex -4.89074 -1.03956 -5
    endloop
  endfacet
  facet normal 0.994522 -0.104529 0
    outer loop
      vertex -4.89074 1.03956 -5
      vertex -4.89074 1.03956 5
      vertex -5 0 5
    endloop
  endfacet
  facet normal 0.994522 -0.104529 0
    outer loop
      vertex -5 0 -5
      vertex -4.89074 1.03956 -5
      vertex -5 0 5
    endloop
  endfacet
  facet normal 0.951056 -0.309017 0
    outer loop
      vertex -4.56773 2.03368 -5
      vertex -4.56773 2.03368 5
      vertex -4.89074 1.03956 5
    endloop
  endfacet
  facet normal 0.951056 -0.309017 0
    outer loop
      vertex -4.89074 1.03956 -5
      vertex -4.56773 2.03368 -5
      vertex -4.89074 1.03956 5
    endloop
  endfacet
  facet normal 0.866026 -0.5 0
    outer loop
      vertex -4.04508 2.93893 -5
      vertex -4.04508 2.93893 5
      vertex -4.56773 2.03368 5
    endloop
  endfacet
  facet normal 0.866026 -0.5 0
    outer loop
      vertex -4.56773 2.03368 -5
      vertex -4.04508 2.93893 -5
      vertex -4.56773 2.03368 5
    endloop
  endfacet
  facet normal 0.743145 -0.669131 0
    outer loop
      vertex -3.34565 3.71572 -5
      vertex -3.34565 3.71572 5
      vertex -4.04508 2.93893 5
    endloop
  endfacet
  facet normal 0.743145 -0.669131 0
    outer loop
      vertex -4.04508 2.93893 -5
      vertex -3.34565 3.71572 -5
      vertex -4.04508 2.93893 5
    endloop
  endfacet
  facet normal 0.587785 -0.809017 0
    outer loop
      vertex -2.5 4.33013 -5
      vertex -2.5 4.33013 5
      vertex -3.34565 3.71572 5
    endloop
  endfacet
  facet normal 0.587785 -0.809017 0
    outer loop
      vertex -3.34565 3.71572 -5
      vertex -2.5 4.33013 -5
      vertex -3.34565 3.71572 5
    endloop
  endfacet
  facet normal 0.406737 -0.913545 0
    outer loop
      vertex -1.54508 4.75528 -5
      vertex -1.54508 4.75528 5
      vertex -2.5 4.33013 5
    endloop
  endfacet
  facet normal 0.406737 -0.913545 0
    outer loop
      vertex -2.5 4.33013 -5
      vertex -1.54508 4.75528 -5
      vertex -2.5 4.33013 5
    endloop
  endfacet
  facet normal 0.207911 -0.978148 0
    outer loop
      vertex -0.522642 4.97261 -5
      vertex -0.522642 4.97261 5
      vertex -1.54508 4.75528 5
    endloop
  endfacet
  facet normal 0.207911 -0.978148 0
    outer loop
      vertex -1.54508 4.75528 -5
      vertex -0.522642 4.97261 -5
      vertex -1.54508 4.75528 5
    endloop
  endfacet
  facet normal 0 -1 0
    outer loop
      vertex 0.522642 4.97261 -5
      vertex 0.522642 4.97261 5
      vertex -0.522642 4.97261 5
    endloop
  endfacet
  facet normal 0 -1 0
    outer loop
      vertex -0.522642 4.97261 -5
      vertex 0.522642 4.97261 -5
      vertex -0.522642 4.97261 5
    endloop
  endfacet
  facet normal -0.207911 -0.978148 0
    outer loop
      vertex 1.54508 4.75528 -5
      vertex 1.54508 4.75528 5
      vertex 0.522642 4.97261 5
    endloop
  endfacet
  facet normal -0.207911 -0.978148 0
    outer loop
      vertex 0.522642 4.97261 -5
      vertex 1.54508 4.75528 -5
      vertex 0.522642 4.97261 5
    endloop
  endfacet
  facet normal -0.406737 -0.913545 0
    outer loop
      vertex 2.5 4.33013 -5
      vertex 2.5 4.33013 5
      vertex 1.54508 4.75528 5
    endloop
  endfacet
  facet normal -0.406737 -0.913545 0
    outer loop
      vertex 1.54508 4.75528 -5
      vertex 2.5 4.33013 -5
      vertex 1.54508 4.75528 5
    endloop
  endfacet
  facet normal -0.587785 -0.809017 0
    outer loop
      vertex 3.34565 3.71572 -5
      vertex 3.34565 3.71572 5
      vertex 2.5 4.33013 5
    endloop
  endfacet
  facet normal -0.587785 -0.809017 0
    outer loop
      vertex 2.5 4.33013 -5
      vertex 3.34565 3.71572 -5
      vertex 2.5 4.33013 5
    endloop
  endfacet
  facet normal -0.743145 -0.669131 0
    outer loop
      vertex 4.04508 2.93893 5
      vertex 3.34565 3.71572 5
      vertex 4.04508 2.93893 -5
    endloop
  endfacet
  facet normal -0.743145 -0.669131 0
    outer loop
      vertex 4.04508 2.93893 -5
      vertex 3.34565 3.71572 5
      vertex 3.34565 3.71572 -5
    endloop
  endfacet
  facet normal -0.866026 -0.5 0
    outer loop
      vertex 4.56773 2.03368 5
      vertex 4.04508 2.93893 5
      vertex 4.56773 2.03368 -5
    endloop
  endfacet
  facet normal -0.866026 -0.5 0
    outer loop
      vertex 4.56773 2.03368 -5
      vertex 4.04508 2.93893 5
      vertex 4.04508 2.93893 -5
    endloop
  endfacet
  facet normal -0.951056 -0.309017 0
    outer loop
      vertex 4.89074 1.03956 5
      vertex 4.56773 2.03368 5
      vertex 4.89074 1.03956 -5
    endloop
  endfacet
  facet normal -0.951056 -0.309017 0
    outer loop
      vertex 4.89074 1.03956 -5
      vertex 4.56773 2.03368 5
      vertex 4.56773 2.03368 -5
    endloop
  endfacet
  facet normal -0.994522 -0.104529 0
    outer loop
      vertex 5 0 5
      vertex 4.89074 1.03956 5
      vertex 5 0 -5
    endloop
  endfacet
  facet normal -0.994522 -0.104529 0
    outer loop
      vertex 5 0 -5
      vertex 4.89074 1.03956 5
      vertex 4.89074 1.03956 -5
    endloop
  endfacet
  facet normal -0.994522 0.104529 0
    outer loop
      vertex 5 0 5
      vertex 5 0 -5
      vertex 4.89074 -1.03956 5
    endloop
  endfacet
  facet normal -0.994522 0.104529 0
    outer loop
      vertex 4.89074 -1.03956 5
      vertex 5 0 -5
      vertex 4.89074 -1.03956 -5
    endloop
  endfacet
  facet normal -0.951056 0.309017 0
    outer loop
      vertex 4.89074 -1.03956 5
      vertex 4.89074 -1.03956 -5
      vertex 4.56773 -2.03368 5
    endloop
  endfacet
  facet normal -0.951056 0.309017 0
    outer loop
      vertex 4.56773 -2.03368 5
      vertex 4.89074 -1.03956 -5
      vertex 4.56773 -2.03368 -5
    endloop
  endfacet
  facet normal -0.866026 0.5 0
    outer loop
      vertex 4.56773 -2.03368 5
      vertex 4.56773 -2.03368 -5
      vertex 4.04508 -2.93893 5
    endloop
  endfacet
  facet normal -0.866026 0.5 0
    outer loop
      vertex 4.04508 -2.93893 5
      vertex 4.56773 -2.03368 -5
      vertex 4.04508 -2.93893 -5
    endloop
  endfacet
  facet normal -0.743145 0.669131 0
    outer loop
      vertex 4.04508 -2.93893 5
      vertex 4.04508 -2.93893 -5
      vertex 3.34565 -3.71572 5
    endloop
  endfacet
  facet normal -0.743145 0.669131 0
    outer loop
      vertex 3.34565 -3.71572 5
      vertex 4.04508 -2.93893 -5
      vertex 3.34565 -3.71572 -5
    endloop
  endfacet
  facet normal -0.587785 0.809017 0
    outer loop
      vertex 3.34565 -3.71572 5
      vertex 3.34565 -3.71572 -5
      vertex 2.5 -4.33013 5
    endloop
  endfacet
  facet normal -0.587785 0.809017 0
    outer loop
      vertex 2.5 -4.33013 5
      vertex 3.34565 -3.71572 -5
      vertex 2.5 -4.33013 -5
    endloop
  endfacet
  facet normal -0.406737 0.913545 0
    outer loop
      vertex 2.5 -4.33013 5
      vertex 2.5 -4.33013 -5
      vertex 1.54508 -4.75528 5
    endloop
  endfacet
  facet normal -0.406737 0.913545 0
    outer loop
      vertex 1.54508 -4.75528 5
      vertex 2.5 -4.33013 -5
      vertex 1.54508 -4.75528 -5
    endloop
  endfacet
  facet normal -0.207911 0.978148 0
    outer loop
      vertex 1.54508 -4.75528 5
      vertex 1.54508 -4.75528 -5
      vertex 0.522642 -4.97261 5
    endloop
  endfacet
  facet normal -0.207911 0.978148 0
    outer loop
      vertex 0.522642 -4.97261 5
      vertex 1.54508 -4.75528 -5
      vertex 0.522642 -4.97261 -5
    endloop
  endfacet
  facet normal 0 1 0
    outer loop
      vertex 0.522642 -4.97261 5
      vertex 0.522642 -4.97261 -5
      vertex -0.522642 -4.97261 5
    endloop
  endfacet
  facet normal 0 1 0
    outer loop
      vertex -0.522642 -4.97261 5
      vertex 0.522642 -4.97261 -5
      vertex -0.522642 -4.97261 -5
    endloop
  endfacet
  facet normal 0.207911 0.978148 0
    outer loop
      vertex -0.522642 -4.97261 5
      vertex -0.522642 -4.97261 -5
      vertex -1.54508 -4.75528 5
    endloop
  endfacet
  facet normal 0.207911 0.978148 0
    outer loop
      vertex -1.54508 -4.75528 5
      vertex -0.522642 -4.97261 -5
      vertex -1.54508 -4.75528 -5
    endloop
  endfacet
  facet normal 0.406737 0.913545 0
    outer loop
      vertex -1.54508 -4.75528 5
      vertex -1.54508 -4.75528 -5
      vertex -2.5 -4.33013 5
    endloop
  endfacet
  facet normal 0.406737 0.913545 0
    outer loop
      vertex -2.5 -4.33013 5
      vertex -1.54508 -4.75528 -5
      vertex -2.5 -4.33013 -5
    endloop
  endfacet
  facet normal 0.587785 0.809017 0
    outer loop
      vertex -2.5 -4.33013 5
      vertex -2.5 -4.33013 -5
      vertex -3.34565 -3.71572 5
    endloop
  endfacet
  facet normal 0.587785 0.809017 0
    outer loop
      vertex -3.34565 -3.71572 5
      vertex -2.5 -4.33013 -5
      vertex -3.34565 -3.71572 -5
    endloop
  endfacet
  facet normal 0.743145 0.669131 0
    outer loop
      vertex -4.04508 -2.93893 5
      vertex -3.34565 -3.71572 5
      vertex -3.34565 -3.71572 -5
    endloop
  endfacet
  facet normal 0.743145 0.669131 0
    outer loop
      vertex -4.04508 -2.93893 -5
      vertex -4.04508 -2.93893 5
      vertex -3.34565 -3.71572 -5
    endloop
  endfacet
  facet normal 0.866026 0.5 0
    outer loop
      vertex -4.56773 -2.03368 5
      vertex -4.04508 -2.93893 5
      vertex -4.04508 -2.93893 -5
    endloop
  endfacet
  facet normal 0.866026 0.5 0
    outer loop
      vertex -4.56773 -2.03368 -5
      vertex -4.56773 -2.03368 5
      vertex -4.04508 -2.93893 -5
    endloop
  endfacet
  facet normal 0.951056 0.309017 0
    outer loop
      vertex -4.89074 -1.03956 5
      vertex -4.56773 -2.03368 5
      vertex -4.56773 -2.03368 -5
    endloop
  endfacet
  facet normal 0.951056 0.309017 0
    outer loop
      vertex -4.89074 -1.03956 -5
      vertex -4.89074 -1.03956 5
      vertex -4.56773 -2.03368 -5
    endloop
  endfacet
  facet normal 0.994522 0.104529 0
    outer loop
      vertex 10 0 5
      vertex 10.0546 -0.519779 5
      vertex 10.0546 -0.519779 -5
    endloop
  endfacet
  facet normal 0.994522 0.104529 0
    outer loop
      vertex 10 0 -5
      vertex 10 0 5
      vertex 10.0546 -0.519779 -5
    endloop
  endfacet
  facet normal 0.994522 -0.104529 0
    outer loop
      vertex 10.0546 0.519779 -5
      vertex 10.0546 0.519779 5
      vertex 10 0 5
    endloop
  endfacet
  facet normal 0.994522 -0.104529 0
    outer loop
      vertex 10 0 -5
      vertex 10.0546 0.519779 -5
      vertex 10 0 5
    endloop
  endfacet
  facet normal 0.951057 -0.309016 0
    outer loop
      vertex 10.2161 1.01684 -5
      vertex 10.2161 1.01684 5
      vertex 10.0546 0.519779 5
    endloop
  endfacet
  facet normal 0.951057 -0.309016 0
    outer loop
      vertex 10.0546 0.519779 -5
      vertex 10.2161 1.01684 -5
      vertex 10.0546 0.519779 5
    endloop
  endfacet
  facet normal 0.866024 -0.500002 0
    outer loop
      vertex 10.4775 1.46946 -5
      vertex 10.4775 1.46946 5
      vertex 10.2161 1.01684 5
    endloop
  endfacet
  facet normal 0.866024 -0.500002 0
    outer loop
      vertex 10.2161 1.01684 -5
      vertex 10.4775 1.46946 -5
      vertex 10.2161 1.01684 5
    endloop
  endfacet
  facet normal 0.743146 -0.66913 0
    outer loop
      vertex 10.8272 1.85786 -5
      vertex 10.8272 1.85786 5
      vertex 10.4775 1.46946 5
    endloop
  endfacet
  facet normal 0.743146 -0.66913 0
    outer loop
      vertex 10.4775 1.46946 -5
      vertex 10.8272 1.85786 -5
      vertex 10.4775 1.46946 5
    endloop
  endfacet
  facet normal 0.587786 -0.809017 0
    outer loop
      vertex 11.25 2.16506 -5
      vertex 11.25 2.16506 5
      vertex 10.8272 1.85786 5
    endloop
  endfacet
  facet normal 0.587786 -0.809017 0
    outer loop
      vertex 10.8272 1.85786 -5
      vertex 11.25 2.16506 -5
      vertex 10.8272 1.85786 5
    endloop
  endfacet
  facet normal 0.406735 -0.913546 0
    outer loop
      vertex 11.7275 2.37764 -5
      vertex 11.7275 2.37764 5
      vertex 11.25 2.16506 5
    endloop
  endfacet
  facet normal 0.406735 -0.913546 0
    outer loop
      vertex 11.25 2.16506 -5
      vertex 11.7275 2.37764 -5
      vertex 11.25 2.16506 5
    endloop
  endfacet
  facet normal 0.207913 -0.978147 0
    outer loop
      vertex 12.2387 2.4863 -5
      vertex 12.2387 2.4863 5
      vertex 11.7275 2.37764 5
    endloop
  endfacet
  facet normal 0.207913 -0.978147 0
    outer loop
      vertex 11.7275 2.37764 -5
      vertex 12.2387 2.4863 -5
      vertex 11.7275 2.37764 5
    endloop
  endfacet
  facet normal 0 -1 0
    outer loop
      vertex 12.7613 2.4863 -5
      vertex 12.7613 2.4863 5
      vertex 12.2387 2.4863 5
    endloop
  endfacet
  facet normal 0 -1 0
    outer loop
      vertex 12.2387 2.4863 -5
      vertex 12.7613 2.4863 -5
      vertex 12.2387 2.4863 5
    endloop
  endfacet
  facet normal -0.207913 -0.978147 0
    outer loop
      vertex 13.2725 2.37764 -5
      vertex 13.2725 2.37764 5
      vertex 12.7613 2.4863 5
    endloop
  endfacet
  facet normal -0.207913 -0.978147 0
    outer loop
      vertex 12.7613 2.4863 -5
      vertex 13.2725 2.37764 -5
      vertex 12.7613 2.4863 5
    endloop
  endfacet
  facet normal -0.406735 -0.913546 0
    outer loop
      vertex 13.75 2.16506 -5
      vertex 13.75 2.16506 5
      vertex 13.2725 2.37764 5
    endloop
  endfacet
  facet normal -0.406735 -0.913546 0
    outer loop
      vertex 13.2725 2.37764 -5
      vertex 13.75 2.16506 -5
      vertex 13.2725 2.37764 5
    endloop
  endfacet
  facet normal -0.587786 -0.809017 0
    outer loop
      vertex 14.1728 1.85786 -5
      vertex 14.1728 1.85786 5
      vertex 13.75 2.16506 5
    endloop
  endfacet
  facet normal -0.587786 -0.809017 0
    outer loop
      vertex 13.75 2.16506 -5
      vertex 14.1728 1.85786 -5
      vertex 13.75 2.16506 5
    endloop
  endfacet
  facet normal -0.743146 -0.66913 0
    outer loop
      vertex 14.5225 1.46946 5
      vertex 14.1728 1.85786 5
      vertex 14.5225 1.46946 -5
    endloop
  endfacet
  facet normal -0.743146 -0.66913 0
    outer loop
      vertex 14.5225 1.46946 -5
      vertex 14.1728 1.85786 5
      vertex 14.1728 1.85786 -5
    endloop
  endfacet
  facet normal -0.866024 -0.500002 0
    outer loop
      vertex 14.7839 1.01684 5
      vertex 14.5225 1.46946 5
      vertex 14.7839 1.01684 -5
    endloop
  endfacet
  facet normal -0.866024 -0.500002 0
    outer loop
      vertex 14.7839 1.01684 -5
      vertex 14.5225 1.46946 5
      vertex 14.5225 1.46946 -5
    endloop
  endfacet
  facet normal -0.951057 -0.309016 0
    outer loop
      vertex 14.9454 0.519779 5
      vertex 14.7839 1.01684 5
      vertex 14.9454 0.519779 -5
    endloop
  endfacet
  facet normal -0.951057 -0.309016 0
    outer loop
      vertex 14.9454 0.519779 -5
      vertex 14.7839 1.01684 5
      vertex 14.7839 1.01684 -5
    endloop
  endfacet
  facet normal -0.994522 -0.104529 0
    outer loop
      vertex 15 0 5
      vertex 14.9454 0.519779 5
      vertex 15 0 -5
    endloop
  endfacet
  facet normal -0.994522 -0.104529 0
    outer loop
      vertex 15 0 -5
      vertex 14.9454 0.519779 5
      vertex 14.9454 0.519779 -5
    endloop
  endfacet
  facet normal -0.994522 0.104529 0
    outer loop
      vertex 15 0 5
      vertex 15 0 -5
      vertex 14.9454 -0.519779 5
    endloop
  endfacet
  facet normal -0.994522 0.104529 0
    outer loop
      vertex 14.9454 -0.519779 5
      vertex 15 0 -5
      vertex 14.9454 -0.519779 -5
    endloop
  endfacet
  facet normal -0.951057 0.309016 0
    outer loop
      vertex 14.9454 -0.519779 5
      vertex 14.9454 -0.519779 -5
      vertex 14.7839 -1.01684 5
    endloop
  endfacet
  facet normal -0.951057 0.309016 0
    outer loop
      vertex 14.7839 -1.01684 5
      vertex 14.9454 -0.519779 -5
      vertex 14.7839 -1.01684 -5
    endloop
  endfacet
  facet normal -0.866024 0.500002 0
    outer loop
      vertex 14.7839 -1.01684 5
      vertex 14.7839 -1.01684 -5
      vertex 14.5225 -1.46946 5
    endloop
  endfacet
  facet normal -0.866024 0.500002 0
    outer loop
      vertex 14.5225 -1.46946 5
      vertex 14.7839 -1.01684 -5
      vertex 14.5225 -1.46946 -5
    endloop
  endfacet
  facet normal -0.743146 0.66913 0
    outer loop
      vertex 14.5225 -1.46946 5
      vertex 14.5225 -1.46946 -5
      vertex 14.1728 -1.85786 5
    endloop
  endfacet
  facet normal -0.743146 0.66913 0
    outer loop
      vertex 14.1728 -1.85786 5
      vertex 14.5225 -1.46946 -5
      vertex 14.1728 -1.85786 -5
    endloop
  endfacet
  facet normal -0.587786 0.809017 0
    outer loop
      vertex 14.1728 -1.85786 5
      vertex 14.1728 -1.85786 -5
      vertex 13.75 -2.16506 5
    endloop
  endfacet
  facet normal -0.587786 0.809017 0
    outer loop
      vertex 13.75 -2.16506 5
      vertex 14.1728 -1.85786 -5
      vertex 13.75 -2.16506 -5
    endloop
  endfacet
  facet normal -0.406735 0.913546 0
    outer loop
      vertex 13.75 -2.16506 5
      vertex 13.75 -2.16506 -5
      vertex 13.2725 -2.37764 5
    endloop
  endfacet
  facet normal -0.406735 0.913546 0
    outer loop
      vertex 13.2725 -2.37764 5
      vertex 13.75 -2.16506 -5
      vertex 13.2725 -2.37764 -5
    endloop
  endfacet
  facet normal -0.207913 0.978147 0
    outer loop
      vertex 13.2725 -2.37764 5
      vertex 13.2725 -2.37764 -5
      vertex 12.7613 -2.4863 5
    endloop
  endfacet
  facet normal -0.207913 0.978147 0
    outer loop
      vertex 12.7613 -2.4863 5
      vertex 13.2725 -2.37764 -5
      vertex 12.7613 -2.4863 -5
    endloop
  endfacet
  facet normal 0 1 0
    outer loop
      vertex 12.7613 -2.4863 5
      vertex 12.7613 -2.4863 -5
      vertex 12.2387 -2.4863 5
    endloop
  endfacet
  facet normal 0 1 0
    outer loop
      vertex 12.2387 -2.4863 5
      vertex 12.7613 -2.4863 -5
      vertex 12.2387 -2.4863 -5
    endloop
  endfacet
  facet normal 0.207913 0.978147 0
    outer loop
      vertex 12.2387 -2.4863 5
      vertex 12.2387 -2.4863 -5
      vertex 11.7275 -2.37764 5
    endloop
  endfacet
  facet normal 0.207913 0.978147 0
    outer loop
      vertex 11.7275 -2.37764 5
      vertex 12.2387 -2.4863 -5
      vertex 11.7275 -2.37764 -5
    endloop
  endfacet
  facet normal 0.406735 0.913546 0
    outer loop
      vertex 11.7275 -2.37764 5
      vertex 11.7275 -2.37764 -5
      vertex 11.25 -2.16506 5
    endloop
  endfacet
  facet normal 0.406735 0.913546 0
    outer loop
      vertex 11.25 -2.16506 5
      vertex 11.7275 -2.37764 -5
      vertex 11.25 -2.16506 -5
    endloop
  endfacet
  facet normal 0.587786 0.809017 0
    outer loop
      vertex 11.25 -2.16506 5
      vertex 11.25 -2.16506 -5
      vertex 10.8272 -1.85786 5
    endloop
  endfacet
  facet normal 0.587786 0.809017 0
    outer loop
      vertex 10.8272 -1.85786 5
      vertex 11.25 -2.16506 -5
      vertex 10.8272 -1.85786 -5
    endloop
  endfacet
  facet normal 0.743146 0.66913 0
    outer loop
      vertex 10.4775 -1.46946 5
      vertex 10.8272 -1.85786 5
      vertex 10.8272 -1.85786 -5
    endloop
  endfacet
  facet normal 0.743146 0.66913 0
    outer loop
      vertex 10.4775 -1.46946 -5
      vertex 10.4775 -1.46946 5
      vertex 10.8272 -1.85786 -5
    endloop
  endfacet
  facet normal 0.866024 0.500002 0
    outer loop
      vertex 10.2161 -1.01684 5
      vertex 10.4775 -1.46946 5
      vertex 10.4775 -1.46946 -5
    endloop
  endfacet
  facet normal 0.866024 0.500002 0
    outer loop
      vertex 10.2161 -1.01684 -5
      vertex 10.2161 -1.01684 5
      vertex 10.4775 -1.46946 -5
    endloop
  endfacet
  facet normal 0.951057 0.309016 0
    outer loop
      vertex 10.0546 -0.519779 5
      vertex 10.2161 -1.01684 5
      vertex 10.2161 -1.01684 -5
    endloop
  endfacet
  facet normal 0.951057 0.309016 0
    outer loop
      vertex 10.0546 -0.519779 -5
      vertex 10.0546 -0.519779 5
      vertex 10.2161 -1.01684 -5
    endloop
  endfacet
endsolid OpenSCAD_Model
